<?xml version="1.0" standalone="no"?>
<!DOCTYPE svg PUBLIC "-//W3C//DTD SVG 1.1//EN" "http://www.w3.org/Graphics/SVG/1.1/DTD/svg11.dtd" >
<svg xmlns="http://www.w3.org/2000/svg">
<metadata></metadata>
<defs>
<font id="ambleregular" horiz-adv-x="1185" >
<font-face units-per-em="2048" ascent="1548" descent="-500" />
<missing-glyph horiz-adv-x="498" />
<glyph unicode="fi" horiz-adv-x="1248" d="M94 1000h134v34q0 104 30.5 179t87.5 123t138 71t182 23q81 0 160.5 -9t139.5 -21v-136q-27 4 -61 7.5t-72.5 6.5t-79 4.5t-79.5 1.5q-66 0 -113 -14t-77.5 -44t-45 -77.5t-14.5 -114.5v-34h295v-134h-295v-866h-196v866h-153zM855 1000h196v-1000h-196v1000z" />
<glyph unicode="fl" horiz-adv-x="1328" d="M1134 1400v-1400h-196v1267q-53 7 -124 12t-140 5q-66 0 -113 -14t-77.5 -44t-45 -77.5t-14.5 -114.5v-34h295v-134h-295v-866h-196v866h-153l19 134h134v34q0 104 30.5 179t87.5 123t138 71t182 23q81 0 160.5 -9t139.5 -21h168z" />
<glyph unicode="&#xd;" horiz-adv-x="478" />
<glyph unicode=" "  horiz-adv-x="498" />
<glyph unicode="&#x09;" horiz-adv-x="498" />
<glyph unicode="&#xa0;" horiz-adv-x="498" />
<glyph unicode="!" horiz-adv-x="585" d="M196 1400h198v-998h-198v998zM196 156h198v-156h-198v156z" />
<glyph unicode="&#x22;" horiz-adv-x="659" d="M88 1360h204l-75 -438l-129 10v428zM371 1360h203l-73 -438l-130 10v428z" />
<glyph unicode="#" horiz-adv-x="1399" d="M749 344h-214l-43 -344h-196l44 344h-232v150h251l45 354h-242v150h261l47 362h194l-46 -362h214l46 362h198l-47 -362h234v-150h-253l-45 -354h247v-150h-266l-44 -344h-197zM554 494h214l45 354h-214z" />
<glyph unicode="$" d="M517 -18q-50 3 -100 9.5t-95.5 16t-85 22.5t-69.5 28l49 144q42 -15 85 -29t88.5 -24.5t95.5 -16.5t107 -6q62 0 111 15.5t83.5 45t53 71t18.5 94.5q0 49 -22 87t-63 68.5t-99 55t-129 45.5q-80 24 -150 60t-121.5 85t-81 110.5t-29.5 136.5t24.5 138t70.5 111 t111.5 79.5t147.5 43.5v224h196v-221q95 -10 172 -32.5t123 -42.5l-43 -150q-41 15 -79 30t-78.5 27t-85.5 19.5t-100 7.5q-65 0 -114.5 -16.5t-82.5 -46.5t-49.5 -71t-16.5 -90q0 -83 66 -144.5t215 -107.5q103 -33 181 -72t129.5 -87.5t77.5 -108t26 -132.5t-23.5 -134.5 t-68 -109t-107.5 -79.5t-142 -45v-250h-196v242z" />
<glyph unicode="%" horiz-adv-x="1695" d="M137 1076q0 71 25 127.5t68.5 95.5t102.5 60t127 21q69 0 128.5 -21t103.5 -60t69 -95.5t25 -127.5q0 -72 -25 -128.5t-69 -95.5t-103.5 -59.5t-128.5 -20.5q-68 0 -127 20.5t-102.5 59.5t-68.5 95.5t-25 128.5zM311 1076q0 -39 11 -70t31 -53t47.5 -33.5t59.5 -11.5 q68 0 109.5 45t41.5 123t-41.5 122t-109.5 44q-32 0 -59.5 -11.5t-47.5 -32.5t-31 -52t-11 -70zM915 290q0 71 25 127.5t68 95.5t101.5 60t126.5 21q70 0 129.5 -21t103.5 -60t69 -95.5t25 -127.5q0 -72 -25 -128.5t-69 -95.5t-103.5 -59.5t-129.5 -20.5q-68 0 -126.5 20.5 t-101.5 59.5t-68 95.5t-25 128.5zM1088 290q0 -39 11 -70t30.5 -53t46.5 -33.5t60 -11.5q69 0 110 45t41 123t-41 122t-110 44q-33 0 -60 -11.5t-46.5 -32.5t-30.5 -52t-11 -70zM1220 1360h157l-916 -1360h-159z" />
<glyph unicode="&#x26;" horiz-adv-x="1277" d="M1235 62l-140 -96l-153 170q-87 -72 -188 -114t-216 -42q-100 0 -182.5 25.5t-141.5 72.5t-91.5 113t-32.5 147q0 69 22 124.5t61.5 104t95 93t123.5 91.5l-65 73q-65 70 -89.5 131t-24.5 121q0 69 26.5 124.5t75.5 94.5t117 60t151 21q72 0 134.5 -20t108.5 -57 t72.5 -89t26.5 -116q0 -52 -19 -94t-52.5 -80t-78.5 -74t-96 -76l-46 -35l320 -358q33 46 65.5 96.5t64.5 104.5l121 -100q-31 -60 -66.5 -115.5t-77.5 -105.5zM284 332q0 -48 18 -85.5t51.5 -63t80.5 -38.5t106 -13q93 0 165.5 31.5t134.5 86.5l-345 385 q-45 -34 -83.5 -67.5t-67 -70.5t-44.5 -77.5t-16 -87.5zM583 882q37 26 64.5 48.5t46.5 46.5t28.5 51.5t9.5 65.5q0 31 -11.5 56t-32.5 43t-49.5 27.5t-61.5 9.5q-28 0 -58.5 -10t-55.5 -29.5t-41 -47.5t-16 -65q0 -27 6.5 -52t17 -47t24 -40.5t26.5 -32.5l53 -59z" />
<glyph unicode="'" horiz-adv-x="373" d="M64 1360h204l-72 -418l-132 10v408z" />
<glyph unicode="(" horiz-adv-x="689" d="M301 560q0 -153 25.5 -282.5t66 -237t91 -193t101.5 -149.5l-125 -60q-76 93 -140.5 197.5t-111.5 220t-73.5 241.5t-26.5 263q0 142 27.5 279t76 261t115 229.5t143.5 184.5l127 -60q-54 -66 -107 -154t-95 -199t-68 -246t-26 -295z" />
<glyph unicode=")" horiz-adv-x="689" d="M392 592q0 153 -25.5 282.5t-66 237t-91 192.5t-101.5 150l125 60q166 -186 259 -417.5t93 -504.5q0 -142 -27.5 -279t-76 -261t-114.5 -229.5t-143 -184.5l-126 60q52 66 104.5 153.5t94.5 198.5t68.5 246t26.5 296z" />
<glyph unicode="*" horiz-adv-x="925" d="M555 1360l-29 -307l255 150l76 -150l-287 -117l214 -225l-132 -102l-172 261l-168 -274l-137 100l205 234l-294 104l72 154l258 -141l-28 313h167z" />
<glyph unicode="+" horiz-adv-x="1066" d="M454 586h-346v146h346v316h161v-316h345v-146h-345v-318h-161v318z" />
<glyph unicode="," horiz-adv-x="519" d="M196 176h225l-155 -468l-142 20z" />
<glyph unicode="-" horiz-adv-x="780" d="M108 606v166h566v-166h-566z" />
<glyph unicode="." horiz-adv-x="527" d="M151 196h226v-196h-226v196z" />
<glyph unicode="/" horiz-adv-x="864" d="M607 1360h196l-564 -1500h-196z" />
<glyph unicode="0" d="M111 672q0 161 31 292t91.5 223.5t150 142.5t207.5 50q120 0 212 -50t154.5 -142.5t94.5 -223.5t32 -292q0 -162 -32 -290.5t-94.5 -217.5t-154.5 -136.5t-212 -47.5q-118 0 -207.5 47.5t-150 136.5t-91.5 217.5t-31 290.5zM307 672q0 -128 18 -229t53.5 -171.5 t88.5 -108t124 -37.5q72 0 127 37.5t93 108t57.5 171.5t19.5 229q0 129 -19.5 233t-57.5 177t-93 112.5t-127 39.5q-71 0 -124 -39.5t-88.5 -112.5t-53.5 -177t-18 -233z" />
<glyph unicode="1" d="M245 0v146h313v1044l-325 -80v138l388 112h133v-1214h306v-146h-815z" />
<glyph unicode="2" d="M1060 146v-146h-902v66q0 126 27 219.5t82.5 168t140 135.5t199.5 123q63 34 107 68.5t72.5 71.5t41.5 76t13 82q0 49 -19.5 90t-54.5 71t-84 46.5t-109 16.5q-55 0 -104 -10t-94 -26.5t-87 -37t-82 -42.5l-56 126q32 22 78.5 46t103.5 44t121.5 33t133.5 13 q101 0 184 -26t142 -74t91 -117t32 -155q0 -79 -27.5 -140.5t-75 -111.5t-110 -91.5t-131.5 -80.5q-71 -42 -131.5 -84.5t-105.5 -93.5t-71.5 -114t-30.5 -146h706z" />
<glyph unicode="3" d="M994 1004q0 -109 -58.5 -188t-167.5 -119q130 -40 200.5 -126t70.5 -205q0 -86 -35.5 -157t-102 -122t-162.5 -79t-216 -28q-55 0 -112 6.5t-110 18.5t-99.5 29.5t-80.5 39.5l61 122q69 -30 145.5 -50t175.5 -20q76 0 140.5 15t111 45.5t72.5 76t26 107.5q0 66 -25 113.5 t-69.5 78.5t-105.5 45.5t-132 14.5h-182v146h182q61 0 113.5 14t91 43t60.5 73.5t22 105.5t-23.5 105t-65 71.5t-98 40.5t-122.5 13q-46 0 -85.5 -5.5t-75 -14.5t-68.5 -22t-66 -28l-65 118q32 22 76.5 40t96 31t106 20t105.5 7q109 0 196.5 -26.5t148.5 -75.5t93.5 -118.5 t32.5 -155.5z" />
<glyph unicode="4" d="M931 292v-292h-196v292h-671v110l631 958h236v-922h196v-146h-196zM735 438v703l-460 -703h460z" />
<glyph unicode="5" d="M1068 426q0 -100 -33.5 -182t-99 -140.5t-163 -91t-224.5 -32.5q-59 0 -116.5 6.5t-110 17.5t-97 26t-75.5 32l45 134q32 -16 66 -29t73.5 -22t85.5 -14t102 -5q169 0 260 73.5t91 226.5q0 71 -24 123t-66.5 85.5t-100.5 49.5t-125 16t-133 -10.5t-114 -33.5l-158 40 l101 664h736v-146h-584l-68 -400q54 14 122 23t155 9q105 0 189 -30t143.5 -85t91 -132.5t31.5 -172.5z" />
<glyph unicode="6" d="M691 864q103 0 179 -31.5t126.5 -89t75 -138.5t24.5 -181q0 -86 -31 -166t-91 -141.5t-147.5 -99t-200.5 -37.5q-125 0 -219.5 47t-158 133.5t-95.5 208.5t-32 273q0 167 39.5 303.5t113.5 233t181 149t242 52.5q57 0 101 -4.5t80 -12.5t65 -19t55 -24l-40 -130 q-51 21 -108.5 32.5t-126.5 11.5q-87 0 -158.5 -30.5t-124 -94.5t-84.5 -163.5t-38 -236.5q69 77 165 116t208 39zM664 718q-47 0 -93.5 -7t-90.5 -23.5t-85 -45.5t-76 -72q10 -230 93 -337t234 -107q63 0 111 24t79.5 64.5t47.5 92t16 107.5q0 64 -13 119.5t-41.5 96.5 t-73.5 64.5t-108 23.5z" />
<glyph unicode="7" d="M1073 1360v-120l-541 -1240h-204l534 1214h-753v146h964z" />
<glyph unicode="8" d="M100 374q0 113 67 197t187 127q-100 41 -155.5 117t-55.5 185q0 89 32 159.5t90.5 119.5t140.5 75t183 26q102 0 186.5 -26t145 -75t94 -119.5t33.5 -159.5q0 -109 -58 -185t-161 -117q61 -21 109.5 -53.5t82.5 -73.5t52 -91t18 -106q0 -95 -36.5 -168t-102.5 -123.5 t-158.5 -76.5t-204.5 -26q-111 0 -201 26t-154 76.5t-99 123.5t-35 168zM296 374q0 -60 21.5 -106.5t60.5 -78t93 -47.5t118 -16q66 0 122 16t97 47.5t64 78t23 106.5q0 55 -23 101.5t-64 80t-97 52t-122 18.5q-64 0 -118 -18.5t-93 -52t-60.5 -80t-21.5 -101.5zM339 1000 q0 -56 18.5 -99t52 -72.5t79.5 -45t100 -15.5q55 0 103.5 15.5t83.5 45t55.5 72.5t20.5 99t-20.5 99.5t-55.5 73.5t-83.5 45.5t-103.5 15.5q-54 0 -100 -15.5t-79.5 -45.5t-52 -73.5t-18.5 -99.5z" />
<glyph unicode="9" d="M513 504q-95 0 -170.5 32.5t-128 90t-80.5 136.5t-28 171q0 86 31 166.5t91 142.5t148 99.5t201 37.5q244 0 362.5 -170.5t118.5 -527.5q0 -158 -36.5 -287.5t-104.5 -221.5t-165.5 -142.5t-219.5 -50.5q-60 0 -106.5 4.5t-84 12.5t-68 19t-58.5 24l34 136 q55 -24 119 -37t139 -13q76 0 140 30t110.5 93t73.5 160.5t30 232.5q-67 -69 -157.5 -103.5t-190.5 -34.5zM539 650q42 0 85 6.5t84 23t79.5 45t71.5 72.5q-8 132 -32 217t-64 134t-93.5 67.5t-119.5 18.5q-62 0 -108.5 -24.5t-77.5 -66.5t-46.5 -96.5t-15.5 -114.5 q0 -59 12.5 -110.5t40.5 -89.5t73 -60t111 -22z" />
<glyph unicode=":" horiz-adv-x="630" d="M178 2zM178 890h226v-196h-226v196zM178 198h226v-196h-226v196z" />
<glyph unicode=";" horiz-adv-x="575" d="M124 0zM196 176h225l-155 -468l-142 20zM178 898h226v-196h-226v196z" />
<glyph unicode="&#x3c;" horiz-adv-x="1066" d="M960 258v-184l-852 348v160l852 348v-184l-638 -244z" />
<glyph unicode="=" horiz-adv-x="1196" d="M132 686v146h936v-146h-936zM132 326v146h936v-146h-936z" />
<glyph unicode="&#x3e;" horiz-adv-x="1066" d="M108 746v184l852 -348v-160l-852 -348v184l637 244z" />
<glyph unicode="?" horiz-adv-x="1021" d="M357 362q0 77 9.5 135.5t30 105t53 84.5t79.5 75q46 35 81 66.5t58.5 63t35.5 65t12 73.5q0 44 -17.5 81.5t-49 64.5t-76.5 42t-100 15q-51 0 -95 -9t-84 -24t-77.5 -34.5t-74.5 -41.5l-51 127q31 22 72.5 44.5t93 41.5t112 31t129.5 12q97 0 174 -24.5t130.5 -70 t81.5 -110.5t28 -147q0 -71 -28.5 -127t-71.5 -102t-94.5 -85t-97.5 -76q-25 -22 -41 -47t-25 -57.5t-12.5 -74.5t-3.5 -97h-181zM348 176h195v-176h-195v176z" />
<glyph unicode="@" horiz-adv-x="1835" d="M1714 482q-3 -59 -15 -119t-34.5 -116t-57 -104.5t-83 -84.5t-111 -57t-140.5 -21q-72 0 -122.5 43t-72.5 121q-105 -160 -312 -160q-60 0 -108.5 24.5t-82 69.5t-51.5 109.5t-18 144.5q0 33 3 68q12 121 48.5 219.5t92 168t127 107t154.5 37.5q67 0 118 -8t91.5 -22 t74.5 -32.5t69 -39.5l-4 -4h5l-52 -544q-1 -11 -1.5 -20.5t-0.5 -18.5q0 -44 8 -72t20.5 -44t28.5 -21.5t32 -5.5q58 0 104 30t78 81.5t49.5 121t20.5 149.5q1 16 1 31.5v31.5q0 166 -37 299t-113 227t-192.5 144.5t-274.5 50.5q-153 0 -275.5 -57t-209.5 -162t-136.5 -254 t-57.5 -333q-1 -17 -1.5 -33.5t-0.5 -32.5q0 -166 41 -299t119.5 -226.5t192 -144t258.5 -50.5q50 0 101.5 6.5t100.5 17.5t93.5 26t79.5 32l19 -106q-38 -22 -86 -38t-101 -26.5t-107.5 -16t-105.5 -5.5q-180 0 -322 58.5t-240.5 167t-151 264t-52.5 350.5v28t1 28 q9 210 72 379.5t172 289.5t261 184.5t340 64.5q180 0 320.5 -58t237 -166t147 -262t50.5 -345v-32t-1 -33zM701 400q-3 -33 -3 -62q0 -208 137 -208q31 0 62.5 6t60.5 23t56 47t50 77l50 491q-29 12 -64.5 20t-77.5 8q-63 0 -109.5 -25.5t-79 -76.5t-52.5 -126t-30 -174z " />
<glyph unicode="A" horiz-adv-x="1335" d="M950 346h-562l-120 -346h-196l496 1360h200l499 -1360h-196zM439 492h460l-230 658z" />
<glyph unicode="B" horiz-adv-x="1281" d="M183 1360h398q114 0 203 -26t150 -74t92.5 -115t31.5 -149q0 -56 -17.5 -101.5t-44 -80.5t-58 -61t-59.5 -44q136 -30 211.5 -113.5t75.5 -211.5q0 -86 -35.5 -157t-103 -121.5t-164 -78t-217.5 -27.5h-463v1360zM379 632v-486h244q77 0 141 14.5t109.5 44t71 74 t25.5 105.5t-19.5 107t-56 77.5t-88 47.5t-115.5 16h-312zM379 1214v-436h393q13 16 28.5 34t29 43t23 59t9.5 82q0 111 -80 164.5t-224 53.5h-179z" />
<glyph unicode="C" horiz-adv-x="1122" d="M121 682q0 158 43.5 287t124.5 220.5t196.5 141t260.5 49.5q51 0 92.5 -5.5t76 -14.5t63.5 -21t55 -25l-55 -130q-49 23 -105.5 36.5t-126.5 13.5q-96 0 -175 -32t-135.5 -99.5t-87.5 -171.5t-31 -249t32.5 -250t91.5 -173t142 -100.5t185 -32.5q43 0 79.5 5.5t67.5 14.5 t57 19.5t48 20.5l42 -128q-53 -33 -128.5 -55.5t-187.5 -22.5q-145 0 -260.5 50.5t-196.5 142.5t-124.5 221.5t-43.5 287.5z" />
<glyph unicode="D" horiz-adv-x="1388" d="M183 1360h420q149 0 269.5 -48.5t205 -137t130.5 -213.5t46 -279t-46 -279.5t-130.5 -215t-205 -138.5t-269.5 -49h-420v1360zM379 1214v-1068h202q106 0 194 31.5t151 97t97.5 166.5t34.5 241q0 139 -34.5 240t-97.5 165.5t-151 95.5t-194 31h-202z" />
<glyph unicode="E" horiz-adv-x="1074" d="M183 0v1360h801v-146h-605v-444h540v-146h-540v-478h605v-146h-801z" />
<glyph unicode="F" horiz-adv-x="1001" d="M379 624v-624h-196v1360h758v-146h-562v-444h495v-146h-495z" />
<glyph unicode="G" horiz-adv-x="1369" d="M723 690h492v-622q-98 -41 -202 -64.5t-227 -23.5q-155 0 -276.5 56t-206 152t-129 223t-44.5 269q0 161 48.5 290.5t139 220.5t221 140t294.5 49q52 0 96 -5t80.5 -13t65.5 -18t52 -20l-41 -138q-46 17 -109 32.5t-144 15.5q-120 0 -214 -35.5t-159.5 -105t-99.5 -173.5 t-34 -240q0 -107 30.5 -207t89 -177t144.5 -123.5t196 -46.5q65 0 122 7t111 27v384h-296v146z" />
<glyph unicode="H" horiz-adv-x="1410" d="M182 1360h196v-608h659v608h196v-1360h-196v606h-659v-606h-196v1360z" />
<glyph unicode="I" horiz-adv-x="840" d="M137 0v146h185v1068h-185v146h568v-146h-187v-1068h187v-146h-568z" />
<glyph unicode="J" horiz-adv-x="954" d="M130 178q20 -10 49.5 -19t61 -16.5t62.5 -12t55 -4.5q59 0 101.5 14t69.5 45.5t39.5 80.5t12.5 120v974h196v-974q0 -118 -28.5 -196t-80.5 -124.5t-125 -66t-162 -19.5q-97 0 -171.5 18.5t-124.5 43.5z" />
<glyph unicode="K" horiz-adv-x="1275" d="M581 602h-207v-602h-196v1360h196v-612h201l374 612h215l-418 -674h-2l492 -686h-225z" />
<glyph unicode="L" horiz-adv-x="1036" d="M182 1360h196v-1214h614v-146h-810v1360z" />
<glyph unicode="M" horiz-adv-x="1693" d="M852 669l413 691h253v-1360h-196v688l14 462l-405 -688h-161l-409 696l17 -458v-700h-196v1360h255z" />
<glyph unicode="N" horiz-adv-x="1455" d="M182 1360h196v-1l1 1l701 -1056v1056h196v-1360h-196l-702 1058v-1058h-196v1360z" />
<glyph unicode="O" horiz-adv-x="1408" d="M111 680q0 161 43.5 290.5t121.5 220.5t187 140t240 49q130 0 239.5 -49t188 -140t122.5 -220.5t44 -290.5q0 -162 -44 -291.5t-122.5 -220.5t-188 -139.5t-239.5 -48.5q-131 0 -240 48.5t-187 139.5t-121.5 220.5t-43.5 291.5zM307 680q0 -139 29 -243t81.5 -173 t125.5 -103.5t160 -34.5q88 0 161.5 34.5t126 103.5t81.5 173t29 243t-29 243t-81.5 173t-126 103.5t-161.5 34.5q-87 0 -160 -34.5t-125.5 -103.5t-81.5 -173t-29 -243z" />
<glyph unicode="P" horiz-adv-x="1209" d="M182 1360h441q119 0 212 -29.5t157.5 -84t98.5 -132t34 -172.5t-34 -173t-98.5 -133.5t-157.5 -85.5t-212 -30h-245v-520h-196v1360zM378 1214v-548h223q77 0 138 16.5t103 50.5t64.5 86t22.5 123t-22.5 122.5t-64.5 84.5t-103 49t-138 16h-223z" />
<glyph unicode="Q" horiz-adv-x="1356" d="M88 680q0 161 43.5 290.5t121.5 220.5t187 140t240 49q130 0 239.5 -49t188 -140t122.5 -220.5t44 -290.5q0 -183 -54.5 -322t-151.5 -230l280 -314h-214l-200 221q-115 -55 -254 -55q-131 0 -240 48.5t-187 139.5t-121.5 220.5t-43.5 291.5zM284 680q0 -139 29 -243 t81.5 -173t125.5 -103.5t160 -34.5q88 0 161.5 34.5t126 103.5t81.5 173t29 243t-29 243t-81.5 173t-126 103.5t-161.5 34.5q-87 0 -160 -34.5t-125.5 -103.5t-81.5 -173t-29 -243z" />
<glyph unicode="R" horiz-adv-x="1258" d="M183 1360h440q115 0 204 -26.5t150.5 -76t93.5 -121t32 -162.5q0 -56 -18 -107t-48 -96t-70 -82.5t-84 -64.5l288 -624h-205l-266 584h-321v-584h-196v1360zM379 1214v-484h407q22 18 43.5 39t38.5 49.5t28 66.5t11 89q0 66 -20.5 111.5t-59.5 74t-95.5 41.5t-128.5 13 h-224z" />
<glyph unicode="S" horiz-adv-x="1105" d="M1002 358q0 -86 -32.5 -155.5t-92.5 -119t-145 -76.5t-190 -27q-59 0 -119.5 5.5t-117 15.5t-106 24.5t-84.5 32.5l49 144q42 -15 85 -29t88.5 -24.5t95.5 -16.5t107 -6q62 0 111 15.5t83.5 45t53 71t18.5 94.5q0 49 -22 87t-63 68.5t-99 55t-129 45.5q-80 24 -150 60 t-121.5 85t-81 110.5t-29.5 136.5q0 86 32.5 156.5t91.5 120t143 76.5t188 27q63 0 121 -8t108 -20t91 -26t70 -26l-43 -150q-41 15 -79 30t-78.5 27t-85.5 19.5t-100 7.5q-65 0 -114.5 -16.5t-82.5 -46.5t-49.5 -71t-16.5 -90q0 -83 66 -144.5t215 -107.5q103 -33 181 -72 t129.5 -87.5t77.5 -108t26 -132.5z" />
<glyph unicode="T" horiz-adv-x="1188" d="M693 1214v-1214h-196v1214h-425v146h1048v-146h-427z" />
<glyph unicode="U" horiz-adv-x="1421" d="M1047 1360h196v-948q0 -104 -38.5 -184t-108.5 -135.5t-168 -84t-217 -28.5q-118 0 -215 28.5t-166.5 84t-108 135.5t-38.5 184v948h196v-948q0 -69 24.5 -122.5t68.5 -89.5t105 -55t134 -19q75 0 137 19t106 55t68.5 89.5t24.5 122.5v948z" />
<glyph unicode="V" horiz-adv-x="1314" d="M537 610l122 -398l123 394l263 754h201l-490 -1360h-196l-488 1360h201z" />
<glyph unicode="W" horiz-adv-x="1842" d="M1555 1360h197l-305 -1360h-209l-312 1046l-319 -1046h-206l-307 1360h202l218 -1115l319 1115h182l317 -1119z" />
<glyph unicode="X" d="M593 824l311 536h218l-409 -671l409 -689h-220l-309 548l-305 -548h-224l407 689l-407 671h220z" />
<glyph unicode="Y" d="M593 674l322 686h201l-427 -875v-485h-196v491l-421 869h201z" />
<glyph unicode="Z" horiz-adv-x="1243" d="M143 1360h943v-110l-726 -1104h794l-43 -146h-974v126l703 1088h-697v146z" />
<glyph unicode="[" horiz-adv-x="771" d="M260 1524h361v-146h-165v-1532h165v-146h-361v1824z" />
<glyph unicode="\" horiz-adv-x="864" d="M43 1360h196l564 -1500h-196z" />
<glyph unicode="]" horiz-adv-x="771" d="M511 1524v-1824h-360v146h164v1532h-164v146h360z" />
<glyph unicode="^" horiz-adv-x="932" d="M273 708h-192l296 652h183l298 -652h-196l-195 449z" />
<glyph unicode="_" horiz-adv-x="908" d="M-1 -234v146h909v-146h-909z" />
<glyph unicode="`" horiz-adv-x="620" d="M516 1152l-142 -40l-286 248l213 60z" />
<glyph unicode="a" horiz-adv-x="1105" d="M746 598v24q0 70 -12.5 116.5t-39 74t-68 38.5t-100.5 11q-39 0 -80.5 -5t-80 -14t-73 -20t-59.5 -23l-43 136q33 19 75.5 34.5t89 26.5t95 17t94.5 6q91 0 164.5 -18t125.5 -63t80 -122t28 -195v-622h-151l-27 108q-20 -17 -53 -38.5t-76.5 -41t-97.5 -33t-117 -13.5 q-78 0 -137.5 24t-99 65t-59.5 95t-20 114q0 64 32 121.5t88.5 101t134 69.5t169.5 26h218zM472 128q53 0 98 12t80 28.5t59.5 33.5t36.5 26v246h-194q-77 -1 -126 -24t-77 -55t-38.5 -65.5t-10.5 -55.5q0 -35 13 -62.5t36 -46t54.5 -28t68.5 -9.5z" />
<glyph unicode="b" horiz-adv-x="1211" d="M175 1402h196v-493q28 26 56.5 46.5t62.5 35t76.5 22t97.5 7.5q96 0 173.5 -37t132 -104.5t84.5 -163t30 -213.5t-30 -214t-84.5 -164.5t-132 -106t-173.5 -37.5q-57 0 -101.5 9t-80.5 26.5t-67 42t-62 54.5l-27 -112h-151v1402zM888 502q0 181 -68.5 276.5t-218.5 95.5 q-68 0 -125 -22t-105 -56v-589q48 -34 105 -57.5t125 -23.5q150 0 218.5 97t68.5 279z" />
<glyph unicode="c" horiz-adv-x="962" d="M115 502q0 118 34 213.5t98 163t155.5 104.5t206.5 37q95 0 164.5 -14t116.5 -40l-55 -136q-18 8 -37.5 16t-43.5 14t-54.5 10t-69.5 4q-72 0 -130.5 -21.5t-100.5 -67t-65 -116t-23 -167.5q0 -98 23 -168.5t65 -117t100.5 -68.5t130.5 -22q84 0 141 14t101 34l49 -128 q-48 -30 -120.5 -48t-170.5 -18q-120 0 -215 37.5t-162 106t-102.5 164.5t-35.5 214z" />
<glyph unicode="d" horiz-adv-x="1187" d="M827 87q-27 -26 -55.5 -45.5t-62.5 -33.5t-76 -21t-96 -7q-95 0 -171.5 37.5t-130 106t-82.5 164.5t-29 214t29 213.5t82.5 163t130 104.5t171.5 37q50 0 90 -7t74 -19.5t62.5 -31.5t55.5 -43v481h196v-1400h-173zM320 502q0 -91 15.5 -161t49 -118t87 -72.5t129.5 -24.5 q65 0 119 20t99 52v604q-45 32 -99 52t-119 20q-76 0 -129.5 -24t-87 -71t-49 -116.5t-15.5 -160.5z" />
<glyph unicode="e" horiz-adv-x="1111" d="M309 476q4 -167 84.5 -258.5t232.5 -91.5q51 0 93.5 5.5t77.5 13.5t63 18t51 19l47 -128q-62 -35 -148 -54.5t-184 -19.5q-122 0 -217.5 34.5t-161 100t-100 160.5t-34.5 217q0 125 33.5 223.5t95 166t148.5 103t195 35.5q88 0 165 -27t134 -78t90 -125t33 -168v-146 h-698zM585 874q-54 0 -98.5 -12t-79 -41.5t-57.5 -78t-33 -120.5h494q0 69 -19 117t-50.5 78t-72 43.5t-84.5 13.5z" />
<glyph unicode="f" horiz-adv-x="771" d="M100 1000h124v62q0 106 24.5 175t70.5 109.5t111.5 57t146.5 16.5q26 0 53 -2.5t53 -6.5t49.5 -9.5t41.5 -11.5l-6 -136q-15 3 -35.5 6.5t-43 6.5t-46.5 5t-46 2q-47 0 -80.5 -11t-55 -36.5t-31.5 -66t-10 -98.5v-62h295v-146h-295v-854h-196v854h-143z" />
<glyph unicode="g" horiz-adv-x="1190" d="M141 656q0 89 32.5 157t91 114t140 69.5t180.5 23.5q90 0 167 -20h370l-15 -128h-146q33 -43 50.5 -96.5t17.5 -119.5q0 -86 -32.5 -153.5t-91 -114t-140 -71.5t-180.5 -25q-95 0 -176 23q-17 -18 -26 -41.5t-9 -55.5q0 -9 3 -22t8 -26t11.5 -25t12.5 -19h296 q96 0 169 -22.5t121.5 -62t72 -93t21.5 -114.5q-6 -68 -45 -126t-105.5 -100t-158 -66t-203.5 -24q-57 0 -115.5 5.5t-113 18.5t-102.5 34t-83.5 52.5t-56 73.5t-20.5 98q0 76 41 138t133 108q-24 26 -42 60t-18 76q0 60 27 103t73 78q-75 47 -117 120.5t-42 172.5zM337 656 q0 -102 62 -160t186 -58t186 58t62 160q0 55 -18.5 96t-51.5 68t-78.5 40.5t-99.5 13.5t-99.5 -13.5t-78.5 -40.5t-51.5 -68t-18.5 -96zM386 -20q-26 -17 -45 -33.5t-32.5 -37t-20 -46t-6.5 -59.5q0 -30 15.5 -52t41 -37.5t57.5 -25.5t65 -15.5t64.5 -7.5t55.5 -2 q71 0 128.5 12.5t98.5 35t63 53t22 65.5q0 32 -9 59.5t-33.5 47.5t-68 31.5t-112.5 11.5h-284z" />
<glyph unicode="h" horiz-adv-x="1205" d="M175 1400h196v-491q72 53 153.5 82t178.5 29q75 0 136 -18t104 -60.5t66.5 -113t23.5 -176.5v-652h-196v652q0 119 -42 170.5t-137 51.5q-85 0 -155.5 -31t-131.5 -81v-762h-196v1400z" />
<glyph unicode="i" horiz-adv-x="585" d="M196 1000h196v-1000h-196v1000zM186 1402h215v-176h-215v176z" />
<glyph unicode="j" horiz-adv-x="612" d="M-70 -280q13 -3 32.5 -6t41 -6t44 -4.5t42.5 -1.5q41 0 70.5 11.5t48 38t27.5 70t9 108.5v1070h196v-1070q0 -112 -24 -184.5t-67.5 -114.5t-105 -58.5t-136.5 -16.5q-25 0 -52.5 1.5t-53.5 4.5t-50 8t-42 12zM233 1402h217v-176h-217v176z" />
<glyph unicode="k" horiz-adv-x="1074" d="M509 442h-138v-442h-196v1400h196v-812h135l280 412h219l-335 -474h-2l369 -526h-226z" />
<glyph unicode="l" horiz-adv-x="586" d="M196 1400h196v-1400h-196v1400z" />
<glyph unicode="m" horiz-adv-x="1836" d="M175 1000h173l11 -83q74 49 159 76t185 27q97 0 169 -23.5t114 -84.5q73 51 158 79.5t188 28.5q75 0 136 -17t104.5 -57.5t67 -107t23.5 -166.5v-672h-196v672q0 108 -43 155t-137 47q-75 0 -139 -24.5t-119 -65.5q2 -14 3 -29.5t1 -32.5v-722h-196v722q0 84 -42.5 118 t-136.5 34q-85 0 -155.5 -31t-131.5 -81v-762h-196v1000z" />
<glyph unicode="n" horiz-adv-x="1205" d="M175 1000h173l16 -95q73 54 156.5 84.5t182.5 30.5q75 0 136 -16.5t104 -57t66.5 -109.5t23.5 -175v-662h-196v662q0 59 -10.5 99.5t-32 65.5t-55.5 36t-81 11q-85 0 -155.5 -32t-131.5 -80v-762h-196v1000z" />
<glyph unicode="o" horiz-adv-x="1190" d="M113 500q0 121 35 217t98.5 163.5t152.5 103.5t198 36q108 0 198 -36t154 -103.5t99.5 -163.5t35.5 -217q0 -122 -35.5 -218t-99.5 -163.5t-154 -103t-198 -35.5q-109 0 -198 35.5t-152.5 103t-98.5 163.5t-35 218zM309 500q0 -98 21 -169t59 -116.5t91 -67t117 -21.5 t117.5 21.5t92 67t60 116.5t21.5 169t-21.5 169t-60 116.5t-92 67t-117.5 21.5t-117 -21.5t-91 -67t-59 -116.5t-21 -169z" />
<glyph unicode="p" horiz-adv-x="1194" d="M175 1000h173l15 -98q29 28 58 50t64 37t78.5 23t100.5 8q96 0 173.5 -37t132 -104.5t84.5 -163t30 -213.5t-30 -214t-84.5 -164.5t-132 -106t-173.5 -37.5q-53 0 -95 7.5t-76.5 21.5t-64 35t-57.5 47v-491h-196v1400zM888 502q0 181 -68.5 276.5t-218.5 95.5 q-68 0 -125 -22t-105 -56v-593q48 -33 105 -55t125 -22q150 0 218.5 97t68.5 279z" />
<glyph unicode="q" horiz-adv-x="1187" d="M819 80q-26 -24 -54 -42.5t-61 -31t-74 -19.5t-93 -7q-95 0 -171.5 37.5t-130 106t-82.5 164.5t-29 214t29 213.5t82.5 163t130 104.5t171.5 37q54 0 96 -8t77.5 -22.5t65 -36t58.5 -48.5l28 95h153v-1400h-196v480zM320 502q0 -91 15.5 -161t49 -118t87 -72.5 t129.5 -24.5q65 0 119 20t99 52v604q-45 32 -99 52t-119 20q-76 0 -129.5 -24t-87 -71t-49 -116.5t-15.5 -160.5z" />
<glyph unicode="r" horiz-adv-x="762" d="M175 1000h173l16 -140q60 88 128 124t146 36q20 0 42.5 -1t42.5 -3l-18 -170q-26 5 -52 6.5t-58 1.5q-67 0 -122 -40t-102 -103v-711h-196v1000z" />
<glyph unicode="s" horiz-adv-x="972" d="M864 278q0 -68 -26.5 -123t-76 -94t-120.5 -60t-160 -21q-53 0 -106 5.5t-101.5 15.5t-91 24.5t-74.5 32.5l37 140q40 -15 76.5 -28t75.5 -23t83 -15.5t99 -5.5q100 0 144.5 38.5t44.5 107.5q0 31 -16 55.5t-45.5 44.5t-71.5 36t-94 30q-69 18 -128 45t-102 63t-67.5 82 t-24.5 102q0 68 26.5 122t77 91.5t122.5 57t162 19.5q109 0 193 -20t133 -44l-36 -137q-36 11 -67 21t-63.5 17.5t-70 12t-85.5 4.5q-100 0 -148 -36t-48 -98q0 -30 10.5 -54t34 -44t62 -36.5t95.5 -31.5q89 -23 154.5 -52t108 -65t63.5 -80t21 -99z" />
<glyph unicode="t" horiz-adv-x="813" d="M81 1000h143v260l196 20v-280h295v-146h-295v-534q0 -50 8 -85t25.5 -56.5t45 -31t65.5 -9.5q24 0 49.5 2t50 5t46 6.5t36.5 6.5l6 -136q-19 -6 -43.5 -11.5t-52 -9.5t-56.5 -6.5t-56 -2.5q-75 0 -134 14t-100.5 50.5t-63.5 100t-22 163.5v534h-167z" />
<glyph unicode="u" horiz-adv-x="1205" d="M1033 0h-173l-17 127q-72 -69 -155.5 -108t-180.5 -39q-76 0 -137 18t-104.5 63t-67 122t-23.5 195v622h196v-622q0 -71 10.5 -119t32.5 -77.5t55.5 -42.5t80.5 -13q85 0 156 31.5t131 81.5v761h196v-1000z" />
<glyph unicode="v" horiz-adv-x="1017" d="M43 1000h202l187 -554l78 -264l83 266l184 552h199l-377 -1000h-176z" />
<glyph unicode="w" horiz-adv-x="1523" d="M1269 1000h190l-273 -1000h-161l-261 721l-263 -721h-158l-275 1000h190l166 -776l275 776h132l271 -771z" />
<glyph unicode="x" horiz-adv-x="1062" d="M292 0h-213l355 507l-350 493h212l237 -360l237 360h208l-348 -492l360 -508h-216l-242 368z" />
<glyph unicode="y" horiz-adv-x="1052" d="M788 1000h202l-384 -1066q-33 -101 -66.5 -167.5t-73.5 -106.5t-88.5 -56t-111.5 -16q-33 0 -65 5t-58 13l19 136q17 0 39 -4t46 -4q33 0 57 9t44.5 32.5t41 64.5t45.5 105l-371 1055h202l256 -799z" />
<glyph unicode="z" horiz-adv-x="1036" d="M117 1000h782v-120l-565 -734h619l-42 -146h-803v136l542 718h-533v146z" />
<glyph unicode="{" horiz-adv-x="724" d="M79 654q41 0 75 10t58.5 36.5t38 72.5t13.5 117v220q0 109 18 190t58 135t104 80.5t155 26.5l20 -100q-86 0 -122.5 -81.5t-36.5 -250.5v-220q0 -68 -15 -118.5t-42 -86.5t-66 -58.5t-87 -34.5q48 -12 87 -34.5t66 -58.5t42 -86.5t15 -118.5v-260q0 -170 36.5 -251 t122.5 -81l-20 -100q-91 0 -155 26.5t-104 80.5t-58 135t-18 190v260q0 71 -13.5 117t-38 72.5t-58.5 36.5t-75 10v124z" />
<glyph unicode="|" horiz-adv-x="411" d="M108 1524h196v-1824h-196v1824z" />
<glyph unicode="}" horiz-adv-x="724" d="M652 490q-42 0 -76.5 -10t-59.5 -36.5t-38.5 -72.5t-13.5 -117v-220q0 -109 -18.5 -190t-58 -135t-102.5 -80.5t-153 -26.5l-24 100q87 0 123.5 81t36.5 251v220q0 68 15 118.5t42.5 86.5t66.5 58.5t87 34.5q-48 12 -87 34.5t-66.5 58.5t-42.5 86.5t-15 118.5v260 q0 169 -36.5 250.5t-123.5 81.5l24 100q90 0 153 -26.5t102.5 -80.5t58 -135t18.5 -190v-260q0 -71 13.5 -117t38.5 -72.5t59.5 -36.5t76.5 -10v-124z" />
<glyph unicode="~" horiz-adv-x="1408" d="M652 452q-55 42 -103.5 68.5t-102.5 29.5q-23 1 -48.5 -7t-51 -29t-48.5 -58t-40 -94l-151 77q18 79 55.5 133t84 87t97 47t93.5 14q55 0 97.5 -9.5t79.5 -26t71 -39.5t72 -51q57 -41 106 -67t101 -29q24 -2 50.5 5.5t51.5 28.5t47.5 58t38.5 94l155 -77 q-18 -79 -56 -132.5t-85 -86.5t-97.5 -47.5t-92.5 -14.5q-55 0 -98 9.5t-80.5 26t-72.5 39.5t-73 51z" />
<glyph unicode="&#xa1;" horiz-adv-x="585" d="M203 0zM401.012 -399.914h-197.987v997.938h197.987v-997.938zM401.012 844.01h-197.987v155.99h197.987v-155.99z" />
<glyph unicode="&#xa2;" d="M153 502q0 106 28 195t81 155t129.5 107.5t172.5 54.5v172h148v-168q137 -9 216 -52l-55 -136q-18 8 -37.5 16t-43.5 14t-54.5 10t-69.5 4q-72 0 -130.5 -21.5t-100.5 -67t-65 -116t-23 -167.5q0 -98 23 -168.5t65 -117t100.5 -68.5t130.5 -22q84 0 141 14t101 34 l49 -128q-42 -27 -104 -44t-143 -21v-201h-148v208q-96 15 -172.5 58.5t-129.5 110t-81 154t-28 191.5z" />
<glyph unicode="&#xa3;" horiz-adv-x="1146" d="M137 752h172v242q0 105 27 178.5t81 119.5t135 67t189 21q32 0 66.5 -2.5t68 -6.5t64 -9.5t55.5 -11.5l-2 -138q-21 4 -50 8t-60.5 7t-65 5t-63.5 2q-68 0 -115 -14t-77 -44t-43.5 -78.5t-13.5 -117.5v-228h365v-146h-365v-200q0 -92 -31.5 -153t-92.5 -107h693v-146 h-970v146h6l-4 2q52 0 90.5 22t64 59.5t37.5 87t11 105.5v184h-203z" />
<glyph unicode="&#xa4;" horiz-adv-x="1398" d="M364 969q68 44 150 67.5t177 23.5t177 -23.5t150 -67.5l160 145l124 -108l-162 -147q54 -69 83.5 -154.5t29.5 -184.5q0 -102 -31 -189.5t-88 -156.5l166 -150l-122 -106l-165 149q-67 -42 -147.5 -64.5t-174.5 -22.5t-174.5 23t-147.5 65l-164 -150l-121 106l165 149 q-57 69 -88 157t-31 190q0 100 29.5 186t85.5 155l-161 145l121 108zM691 126q86 0 156.5 26.5t120.5 77.5t77.5 124t27.5 166q0 92 -27.5 165t-77.5 124t-120.5 78t-156.5 27t-156 -27t-120.5 -78t-78 -124t-27.5 -165q0 -93 27.5 -166t78 -124t120.5 -77.5t156 -26.5z" />
<glyph unicode="&#xa5;" d="M605 674l322 686h201l-339 -694h247v-146h-318l-17 -35v-95h335v-146h-335v-244h-196v244h-320v146h320v101l-14 29h-306v146h235l-336 694h201z" />
<glyph unicode="&#xa6;" horiz-adv-x="411" d="M108 524h197v-824h-197v824zM305 758h-197v766h197v-766z" />
<glyph unicode="&#xa7;" horiz-adv-x="1190" d="M1026 -100q0 -85 -31 -152.5t-87.5 -114.5t-136.5 -72t-179 -25q-60 0 -116.5 8t-108 20t-96 27t-80.5 29l21 138q44 -15 87 -29t88 -24.5t94 -16.5t105 -6q54 0 99 13.5t77.5 40t50 66t17.5 92.5q0 48 -27 84.5t-75 66.5t-114 54.5t-144 48.5q-101 31 -172.5 68 t-117.5 83t-67.5 101.5t-21.5 123.5q0 97 43.5 167t121.5 117q-45 42 -69.5 93.5t-24.5 114.5q0 86 31 154.5t89.5 116t142.5 72.5t191 25q61 0 118 -8t106 -20t88.5 -26.5t65.5 -27.5l-34 -142q-40 14 -78 28t-78.5 25t-85 18t-98.5 7q-131 0 -196.5 -56t-65.5 -156 q0 -40 17 -74.5t54.5 -65.5t98 -59.5t148.5 -56.5q110 -35 188.5 -75t128.5 -88.5t73.5 -107.5t23.5 -131q0 -91 -38 -159.5t-105 -116.5q39 -41 59 -88t20 -104zM584 634q-56 19 -107 39.5t-97 45.5q-49 -29 -76 -74t-27 -107q0 -38 14.5 -73.5t47 -68t83.5 -60t125 -48.5 q82 -23 150 -48.5t124 -55.5q39 29 61.5 71t22.5 99q0 49 -15 87t-52 71t-98.5 62t-155.5 60z" />
<glyph unicode="&#xa8;" horiz-adv-x="966" d="M132 1402h216v-176h-216v176zM619 1402h218v-176h-218v176z" />
<glyph unicode="&#xa9;" horiz-adv-x="1755" d="M497 670q0 91 25.5 164t74 124.5t119.5 79.5t162 28q88 0 146.5 -17.5t100.5 -44.5l-32 -110q-18 9 -37 17t-42.5 14.5t-54.5 10.5t-73 4q-54 0 -97.5 -15.5t-74.5 -48.5t-47.5 -84t-16.5 -122t17 -123t48.5 -85.5t76 -49.5t98.5 -16q44 0 78.5 4t62.5 11.5t51.5 16.5 t46.5 20l34 -104q-45 -30 -105.5 -52t-150.5 -22q-98 0 -174 28.5t-128.5 81t-80 126t-27.5 164.5zM878 1380q153 0 284.5 -49t228 -140t151 -220.5t54.5 -290.5t-54.5 -290.5t-151 -220.5t-228 -140t-284.5 -49t-284.5 49t-228 140t-151.5 220.5t-55 290.5t55 290.5 t151.5 220.5t228 140t284.5 49zM878 86q122 0 230 36t188.5 109.5t127 185t46.5 263.5q0 151 -46.5 263.5t-127 186t-188.5 110t-230 36.5q-123 0 -230 -36.5t-187 -110t-126 -186t-46 -263.5q0 -152 46 -263.5t126 -185t187 -109.5t230 -36z" />
<glyph unicode="&#xaa;" horiz-adv-x="856" d="M544 1080v20q0 44 -9 74t-27 48t-44.5 26t-60.5 8q-30 0 -62.5 -4t-63.5 -10t-59.5 -14.5t-51.5 -17.5l-36 108q28 13 62 24.5t72 20t77.5 13t78.5 4.5q65 0 118.5 -13t92 -44.5t59.5 -86t21 -136.5v-432h-143l-14 75q-19 -15 -43 -31t-53 -28.5t-62.5 -21t-69.5 -8.5 q-63 0 -109.5 17t-77 45.5t-45.5 66.5t-15 81q0 45 23.5 84.5t66.5 68.5t103 46t133 17h139zM369 774q24 0 48.5 6.5t47 16.5t43 22t36.5 23v130h-123q-55 0 -89 -12.5t-53.5 -30t-26.5 -37t-7 -32.5q0 -42 36 -64t88 -22z" />
<glyph unicode="&#xab;" horiz-adv-x="1101" d="M108 42zM566 152l-110 -110l-348 386v84l348 406l110 -110l-249 -336zM1012 152l-110 -110l-348 386v84l348 406l110 -110l-249 -336z" />
<glyph unicode="&#xac;" horiz-adv-x="1214" d="M108 594v146h982v-390h-179v244h-803z" />
<glyph unicode="&#xad;" horiz-adv-x="1105" d="M55 586zM55 586v146h981v-146h-981z" />
<glyph unicode="&#xae;" horiz-adv-x="1755" d="M878 1380q153 0 284.5 -49t228 -140t151 -220.5t54.5 -290.5t-54.5 -290.5t-151 -220.5t-228 -140t-284.5 -49t-284.5 49t-228 140t-151.5 220.5t-55 290.5t55 290.5t151.5 220.5t228 140t284.5 49zM878 86q122 0 230 36t188.5 109.5t127 185t46.5 263.5 q0 151 -46.5 263.5t-127 186t-188.5 110t-230 36.5q-123 0 -230 -36.5t-187 -110t-126 -186t-46 -263.5q0 -152 46 -263.5t126 -185t187 -109.5t230 -36zM607 1054h293q62 0 114.5 -13.5t90 -41.5t58.5 -71.5t21 -103.5q0 -66 -40.5 -113t-102.5 -74l164 -305h-149l-143 276 h-167v-276h-139v722zM746 938v-222h189q17 3 35.5 10t34.5 19t26 30.5t10 44.5q0 65 -41 91.5t-116 26.5h-138z" />
<glyph unicode="&#xaf;" horiz-adv-x="987" d="M108 1402h772v-146h-772v146z" />
<glyph unicode="&#xb0;" horiz-adv-x="706" d="M352 1376q52 0 97 -18t79 -48.5t53.5 -72t19.5 -87.5q0 -47 -19.5 -87.5t-53.5 -71t-79 -48t-97 -17.5q-51 0 -95.5 17.5t-77.5 48t-52 71t-19 87.5q0 46 19 87.5t52 72t77.5 48.5t95.5 18zM352 1032q28 0 52 9.5t41.5 25.5t27.5 37.5t10 45.5q0 25 -10 46.5t-27.5 37.5 t-41.5 25t-52 9q-26 0 -49 -9t-40.5 -25t-28 -37.5t-10.5 -46.5q0 -24 10.5 -45.5t28 -37.5t40.5 -25.5t49 -9.5z" />
<glyph unicode="&#xb1;" horiz-adv-x="1066" d="M454 634h-346v146h346v316h161v-316h345v-146h-345v-318h-161v318zM96 -1v143h852v-143h-852z" />
<glyph unicode="&#xb2;" horiz-adv-x="773" d="M664 774v-106h-553v46q0 61 15 108t47 84.5t83.5 69t124.5 62.5q39 16 64.5 32.5t40.5 33t21 34.5t6 38q0 45 -36 69.5t-106 24.5q-33 0 -62.5 -5t-56.5 -13.5t-54 -19.5t-55 -24l-37 94q22 12 51 25.5t63.5 25.5t74.5 19.5t84 7.5q131 0 201 -52.5t70 -149.5 q0 -41 -17 -74.5t-45.5 -60.5t-67 -49.5t-81.5 -41.5q-40 -19 -72 -37.5t-56 -39.5t-39 -45.5t-20 -55.5h412z" />
<glyph unicode="&#xb3;" horiz-adv-x="704" d="M595 1178q0 -113 -118 -156q68 -21 103 -63t35 -103q0 -93 -75 -149.5t-227 -56.5q-65 0 -131 12.5t-118 39.5l32 90q51 -17 98.5 -28.5t106.5 -11.5q81 0 130.5 26t49.5 82q0 57 -44.5 83.5t-123.5 26.5h-145v104h145q68 0 105.5 23.5t37.5 76.5q0 56 -41.5 79 t-113.5 23q-56 0 -100 -11t-93 -29l-33 88q22 13 52.5 23.5t63 18t64 11t56.5 3.5q142 0 213 -54t71 -148z" />
<glyph unicode="&#xb4;" horiz-adv-x="620" d="M345 1420l213 -60l-285 -248l-141 40z" />
<glyph unicode="&#xb6;" horiz-adv-x="1043" d="M879 0h-196v520h-53q-124 0 -221 30t-164 85.5t-102 133.5t-35 173t35 172.5t102 132t164 84t221 29.5h249v-1360z" />
<glyph unicode="&#xb7;" horiz-adv-x="438" d="M108 196h225v-196h-225v196z" />
<glyph unicode="&#xb8;" horiz-adv-x="612" d="M499 20q35 -66 35 -136q0 -53 -22 -101t-65.5 -84t-108.5 -57.5t-152 -21.5l-35 110q107 11 158.5 53t51.5 105q0 59 -44 132h182z" />
<glyph unicode="&#xb9;" horiz-adv-x="502" d="M83 668v96h119v486l-130 -36v100l179 62h86v-612h113v-96h-367z" />
<glyph unicode="&#xba;" horiz-adv-x="848" d="M84 1018q0 84 23.5 151t67.5 114t106.5 72t139.5 25q79 0 143.5 -25t110 -72t70.5 -114t25 -151q0 -85 -25 -152t-70.5 -113.5t-110 -71.5t-143.5 -25q-77 0 -139.5 25t-106.5 71.5t-67.5 113.5t-23.5 152zM249 1018q0 -62 13 -107t36 -74t54.5 -43t68.5 -14q41 0 75 14 t58 43t37.5 74t13.5 107q0 63 -13.5 108.5t-37.5 74.5t-58 43t-75 14q-37 0 -68.5 -14t-54.5 -43t-36 -74.5t-13 -108.5z" />
<glyph unicode="&#xbb;" horiz-adv-x="1103" d="M88 42zM88 808l108 110l348 -386v-84l-348 -406l-108 110l248 336zM536 808l108 110l348 -386v-84l-348 -406l-108 110l248 336z" />
<glyph unicode="&#xbc;" horiz-adv-x="1431" d="M110 0zM121 672v96h119v486l-130 -36v100l179 62h86v-612h113v-96h-367zM1111 1360h157l-916 -1360h-159zM1285 149v-146h-133v146h-405v76l396 486h142v-464h95v-98h-95zM1152 247v318l-258 -318h258z" />
<glyph unicode="&#xbd;" horiz-adv-x="1555" d="M110 0zM1441 105v-106h-553v46q0 61 15 108t47 84.5t83.5 69t124.5 62.5q39 16 64.5 32.5t40.5 33t21 34.5t6 38q0 45 -36 69.5t-106 24.5q-33 0 -62.5 -5t-56.5 -13.5t-54 -19.5t-55 -24l-37 94q22 12 51 25.5t63.5 25.5t74.5 19.5t84 7.5q131 0 201 -52.5t70 -149.5 q0 -41 -17 -74.5t-45.5 -60.5t-67 -49.5t-81.5 -41.5q-40 -19 -72 -37.5t-56 -39.5t-39 -45.5t-20 -55.5h412zM121 668v96h119v486l-130 -36v100l179 62h86v-612h113v-96h-367zM1132 1360h157l-916 -1360h-159z" />
<glyph unicode="&#xbe;" horiz-adv-x="1433" d="M64 0zM595 1178q0 -113 -118 -156q68 -21 103 -63t35 -103q0 -93 -75 -149.5t-227 -56.5q-65 0 -131 12.5t-118 39.5l32 90q51 -17 98.5 -28.5t106.5 -11.5q81 0 130.5 26t49.5 82q0 57 -44.5 83.5t-123.5 26.5h-145v104h145q68 0 105.5 23.5t37.5 76.5q0 56 -41.5 79 t-113.5 23q-56 0 -100 -11t-93 -29l-33 88q22 13 52.5 23.5t63 18t64 11t56.5 3.5q142 0 213 -54t71 -148zM1163 1360h157l-916 -1360h-159zM1290 149v-146h-133v146h-405v76l396 486h142v-464h95v-98h-95zM1157 247v318l-258 -318h258z" />
<glyph unicode="&#xbf;" horiz-adv-x="983" d="M100 0zM655.021 638.022q0 -76.9961 -9.49902 -135.492t-29.998 -104.993t-52.9971 -84.4951t-79.4951 -74.9951q-45.9971 -34.998 -80.9951 -66.4961t-58.4961 -62.9961q-23.499 -31.498 -35.498 -64.9961t-11.999 -73.4961q0 -43.9971 17.499 -81.4951 q17.499 -37.4971 48.9971 -64.4951q31.498 -26.999 76.4951 -41.998t99.9941 -14.999q50.9961 0 94.9941 8.99902q43.9971 9 83.9941 23.999q39.998 14.999 77.4961 34.498q37.4971 19.499 74.4951 41.4971l50.9971 -126.992q-30.998 -21.998 -72.4961 -44.4971 q-41.4971 -22.499 -92.9941 -41.4971q-51.4971 -18.999 -111.993 -30.998q-60.4961 -12 -129.492 -12q-96.9941 0 -173.989 24.499q-76.9951 24.498 -130.492 69.9951q-53.4961 45.498 -81.4951 110.493q-27.998 64.9961 -27.998 146.991q0 70.9961 28.498 126.992 q28.498 55.9971 71.4961 101.994q42.9971 45.9971 94.4941 84.9951q51.4971 38.9971 97.4941 75.9951q24.998 21.998 40.9971 46.9971q15.999 24.998 24.999 57.4961q8.99902 32.498 12.499 74.4961q3.5 41.9971 3.5 96.9941h180.988zM664.021 824.011h-194.988v175.989 h194.988v-175.989z" />
<glyph unicode="&#xc0;" horiz-adv-x="1335" d="M72 0zM950 346h-562l-120 -346h-196l496 1360h200l499 -1360h-196zM439 492h460l-230 658zM764 1512l-142 -40l-286 248l213 60z" />
<glyph unicode="&#xc1;" horiz-adv-x="1335" d="M72 0zM950 346h-562l-120 -346h-196l496 1360h200l499 -1360h-196zM439 492h460l-230 658zM797 1782l213 -60l-285 -248l-141 40z" />
<glyph unicode="&#xc2;" horiz-adv-x="1335" d="M72 0zM950 346h-562l-120 -346h-196l496 1360h200l499 -1360h-196zM439 492h460l-230 658zM543 1472h-208l298 232h123l295 -232h-205l-152 117z" />
<glyph unicode="&#xc3;" horiz-adv-x="1335" d="M72 0zM950 346h-562l-120 -346h-196l496 1360h200l499 -1360h-196zM439 492h460l-230 658zM818 1618q14 0 31 5.5t33.5 17.5t31.5 30t26 43l104 -80q-16 -36 -39 -64t-49 -48t-54.5 -32t-55.5 -16q-11 -2 -21.5 -3t-20.5 -1q-54 0 -97.5 23t-81.5 51q-32 23 -59.5 34.5 t-44.5 9.5q-15 -1 -29 -4.5t-28.5 -13.5t-30.5 -28t-34 -46l-105 74q15 35 38.5 63t50.5 48t55.5 33t54.5 18q18 3 34 3q56 0 101.5 -23.5t85.5 -51.5q29 -24 57 -33t47 -9z" />
<glyph unicode="&#xc4;" horiz-adv-x="1335" d="M72 0zM950 346h-562l-120 -346h-196l496 1360h200l499 -1360h-196zM439 492h460l-230 658zM344 1648h216v-176h-216v176zM831 1648h218v-176h-218v176z" />
<glyph unicode="&#xc5;" horiz-adv-x="1335" d="M72 0zM950 346h-562l-120 -346h-196l496 1360h200l499 -1360h-196zM439 492h460l-230 658zM668 1860q44 0 82.5 -15.5t67.5 -42t45.5 -61.5t16.5 -75q0 -41 -16.5 -76t-45.5 -61.5t-67.5 -41.5t-82.5 -15t-82.5 15t-67 41.5t-45.5 61.5t-17 76q0 40 17 75t45.5 61.5 t67 42t82.5 15.5zM668 1588q37 0 61 23t24 55q0 33 -24 55.5t-61 22.5q-34 0 -59.5 -22.5t-25.5 -55.5q0 -32 25.5 -55t59.5 -23z" />
<glyph unicode="&#xc6;" horiz-adv-x="1951" d="M1041 346h-493l-222 -346h-218l882 1360h852v-146h-605v-444h540v-146h-540v-478h605v-146h-801v346zM1041 492v622l-400 -622h400z" />
<glyph unicode="&#xc7;" horiz-adv-x="1122" d="M121 0zM121 682q0 158 43.5 287t124.5 220.5t196.5 141t260.5 49.5q51 0 92.5 -5.5t76 -14.5t63.5 -21t55 -25l-55 -130q-49 23 -105.5 36.5t-126.5 13.5q-96 0 -175 -32t-135.5 -99.5t-87.5 -171.5t-31 -249t32.5 -250t91.5 -173t142 -100.5t185 -32.5q43 0 79.5 5.5 t67.5 14.5t57 19.5t48 20.5l42 -128q-53 -33 -128.5 -55.5t-187.5 -22.5q-145 0 -260.5 50.5t-196.5 142.5t-124.5 221.5t-43.5 287.5zM814 20q35 -66 35 -136q0 -53 -22 -101t-65.5 -84t-108.5 -57.5t-152 -21.5l-35 110q107 11 158.5 53t51.5 105q0 59 -44 132h182z" />
<glyph unicode="&#xc8;" horiz-adv-x="1074" d="M183 0zM183 0v1360h801v-146h-605v-444h540v-146h-540v-478h605v-146h-801zM676 1510l-142 -40l-286 248l213 60z" />
<glyph unicode="&#xc9;" horiz-adv-x="1074" d="M183 0zM183 0v1360h801v-146h-605v-444h540v-146h-540v-478h605v-146h-801zM709 1780l213 -60l-285 -248l-141 40z" />
<glyph unicode="&#xca;" horiz-adv-x="1074" d="M183 0zM183 0v1360h801v-146h-605v-444h540v-146h-540v-478h605v-146h-801zM455 1470h-208l298 232h123l295 -232h-205l-152 117z" />
<glyph unicode="&#xcb;" horiz-adv-x="1074" d="M183 0zM183 0v1360h801v-146h-605v-444h540v-146h-540v-478h605v-146h-801zM256 1646h216v-176h-216v176zM743 1646h218v-176h-218v176z" />
<glyph unicode="&#xcc;" horiz-adv-x="840" d="M88 0zM137 0v146h185v1068h-185v146h568v-146h-187v-1068h187v-146h-568zM516 1510l-142 -40l-286 248l213 60z" />
<glyph unicode="&#xcd;" horiz-adv-x="840" d="M137 0zM137 0v146h185v1068h-185v146h568v-146h-187v-1068h187v-146h-568zM549 1780l213 -60l-285 -248l-141 40z" />
<glyph unicode="&#xce;" horiz-adv-x="840" d="M88 0zM137 0v146h185v1068h-185v146h568v-146h-187v-1068h187v-146h-568zM296 1470h-208l298 232h123l295 -232h-205l-152 117z" />
<glyph unicode="&#xcf;" horiz-adv-x="840" d="M97 0zM137 0v146h185v1068h-185v146h568v-146h-187v-1068h187v-146h-568zM97 1646h216v-176h-216v176zM584 1646h218v-176h-218v176z" />
<glyph unicode="&#xd0;" horiz-adv-x="1421" d="M242 630h-134v146h134v584h420q149 0 269.5 -48.5t205 -137t130.5 -213.5t46 -279t-46 -279.5t-130.5 -215t-205 -138.5t-269.5 -49h-420v630zM438 630v-484h202q106 0 194 31.5t151 97t97.5 166.5t34.5 241q0 139 -34.5 240t-97.5 165.5t-151 95.5t-194 31h-202v-438 h281v-146h-281z" />
<glyph unicode="&#xd1;" horiz-adv-x="1455" d="M182 0zM182 1360h196v-1l1 1l701 -1056v1056h196v-1360h-196l-702 1058v-1058h-196v1360zM865 1616q14 0 31 5.5t33.5 17.5t31.5 30t26 43l104 -80q-16 -36 -39 -64t-49 -48t-54.5 -32t-55.5 -16q-11 -2 -21.5 -3t-20.5 -1q-54 0 -97.5 23t-81.5 51q-32 23 -59.5 34.5 t-44.5 9.5q-15 -1 -29 -4.5t-28.5 -13.5t-30.5 -28t-34 -46l-105 74q15 35 38.5 63t50.5 48t55.5 33t54.5 18q18 3 34 3q56 0 101.5 -23.5t85.5 -51.5q29 -24 57 -33t47 -9z" />
<glyph unicode="&#xd2;" horiz-adv-x="1408" d="M111 0zM111 680q0 161 43.5 290.5t121.5 220.5t187 140t240 49q130 0 239.5 -49t188 -140t122.5 -220.5t44 -290.5q0 -162 -44 -291.5t-122.5 -220.5t-188 -139.5t-239.5 -48.5q-131 0 -240 48.5t-187 139.5t-121.5 220.5t-43.5 291.5zM307 680q0 -139 29 -243t81.5 -173 t125.5 -103.5t160 -34.5q88 0 161.5 34.5t126 103.5t81.5 173t29 243t-29 243t-81.5 173t-126 103.5t-161.5 34.5q-87 0 -160 -34.5t-125.5 -103.5t-81.5 -173t-29 -243zM794 1528l-142 -40l-286 248l213 60z" />
<glyph unicode="&#xd3;" horiz-adv-x="1408" d="M111 0zM111 680q0 161 43.5 290.5t121.5 220.5t187 140t240 49q130 0 239.5 -49t188 -140t122.5 -220.5t44 -290.5q0 -162 -44 -291.5t-122.5 -220.5t-188 -139.5t-239.5 -48.5q-131 0 -240 48.5t-187 139.5t-121.5 220.5t-43.5 291.5zM307 680q0 -139 29 -243t81.5 -173 t125.5 -103.5t160 -34.5q88 0 161.5 34.5t126 103.5t81.5 173t29 243t-29 243t-81.5 173t-126 103.5t-161.5 34.5q-87 0 -160 -34.5t-125.5 -103.5t-81.5 -173t-29 -243zM827 1798l213 -60l-285 -248l-141 40z" />
<glyph unicode="&#xd4;" horiz-adv-x="1408" d="M111 0zM111 680q0 161 43.5 290.5t121.5 220.5t187 140t240 49q130 0 239.5 -49t188 -140t122.5 -220.5t44 -290.5q0 -162 -44 -291.5t-122.5 -220.5t-188 -139.5t-239.5 -48.5q-131 0 -240 48.5t-187 139.5t-121.5 220.5t-43.5 291.5zM307 680q0 -139 29 -243t81.5 -173 t125.5 -103.5t160 -34.5q88 0 161.5 34.5t126 103.5t81.5 173t29 243t-29 243t-81.5 173t-126 103.5t-161.5 34.5q-87 0 -160 -34.5t-125.5 -103.5t-81.5 -173t-29 -243zM573 1488h-208l298 232h123l295 -232h-205l-152 117z" />
<glyph unicode="&#xd5;" horiz-adv-x="1408" d="M111 0zM111 680q0 161 43.5 290.5t121.5 220.5t187 140t240 49q130 0 239.5 -49t188 -140t122.5 -220.5t44 -290.5q0 -162 -44 -291.5t-122.5 -220.5t-188 -139.5t-239.5 -48.5q-131 0 -240 48.5t-187 139.5t-121.5 220.5t-43.5 291.5zM307 680q0 -139 29 -243t81.5 -173 t125.5 -103.5t160 -34.5q88 0 161.5 34.5t126 103.5t81.5 173t29 243t-29 243t-81.5 173t-126 103.5t-161.5 34.5q-87 0 -160 -34.5t-125.5 -103.5t-81.5 -173t-29 -243zM848 1634q14 0 31 5.5t33.5 17.5t31.5 30t26 43l104 -80q-16 -36 -39 -64t-49 -48t-54.5 -32 t-55.5 -16q-11 -2 -21.5 -3t-20.5 -1q-54 0 -97.5 23t-81.5 51q-32 23 -59.5 34.5t-44.5 9.5q-15 -1 -29 -4.5t-28.5 -13.5t-30.5 -28t-34 -46l-105 74q15 35 38.5 63t50.5 48t55.5 33t54.5 18q18 3 34 3q56 0 101.5 -23.5t85.5 -51.5q29 -24 57 -33t47 -9z" />
<glyph unicode="&#xd6;" horiz-adv-x="1408" d="M111 0zM111 680q0 161 43.5 290.5t121.5 220.5t187 140t240 49q130 0 239.5 -49t188 -140t122.5 -220.5t44 -290.5q0 -162 -44 -291.5t-122.5 -220.5t-188 -139.5t-239.5 -48.5q-131 0 -240 48.5t-187 139.5t-121.5 220.5t-43.5 291.5zM307 680q0 -139 29 -243t81.5 -173 t125.5 -103.5t160 -34.5q88 0 161.5 34.5t126 103.5t81.5 173t29 243t-29 243t-81.5 173t-126 103.5t-161.5 34.5q-87 0 -160 -34.5t-125.5 -103.5t-81.5 -173t-29 -243zM374 1664h216v-176h-216v176zM861 1664h218v-176h-218v176z" />
<glyph unicode="&#xd7;" horiz-adv-x="1054" d="M222 1042l307 -281l306 281l113 -104l-306 -280l306 -280l-113 -104l-306 280l-307 -280l-114 102l308 282l-308 282z" />
<glyph unicode="&#xd8;" horiz-adv-x="1380" d="M98 680q0 161 43.5 290.5t121.5 220.5t187 140t240 49q97 0 182 -27t156 -79l60 86h166l-126 -182q74 -91 115 -216.5t41 -281.5q0 -162 -44 -291.5t-122.5 -220.5t-188 -139.5t-239.5 -48.5q-94 0 -176.5 25t-151.5 73l-55 -79h-164l118 171q-78 91 -120.5 219.5 t-42.5 290.5zM294 680q0 -112 19 -201t54 -156l569 818q-50 47 -112 70t-134 23q-87 0 -160 -34.5t-125.5 -103.5t-81.5 -173t-29 -243zM1088 680q0 107 -17.5 193t-49.5 152l-567 -815q48 -42 107.5 -63t128.5 -21q88 0 161.5 34.5t126 103.5t81.5 173t29 243z" />
<glyph unicode="&#xd9;" horiz-adv-x="1421" d="M183 0zM1047 1360h196v-948q0 -104 -38.5 -184t-108.5 -135.5t-168 -84t-217 -28.5q-118 0 -215 28.5t-166.5 84t-108 135.5t-38.5 184v948h196v-948q0 -69 24.5 -122.5t68.5 -89.5t105 -55t134 -19q75 0 137 19t106 55t68.5 89.5t24.5 122.5v948zM805 1510l-142 -40 l-286 248l213 60z" />
<glyph unicode="&#xda;" horiz-adv-x="1421" d="M183 0zM1047 1360h196v-948q0 -104 -38.5 -184t-108.5 -135.5t-168 -84t-217 -28.5q-118 0 -215 28.5t-166.5 84t-108 135.5t-38.5 184v948h196v-948q0 -69 24.5 -122.5t68.5 -89.5t105 -55t134 -19q75 0 137 19t106 55t68.5 89.5t24.5 122.5v948zM838 1780l213 -60 l-285 -248l-141 40z" />
<glyph unicode="&#xdb;" horiz-adv-x="1421" d="M183 0zM1047 1360h196v-948q0 -104 -38.5 -184t-108.5 -135.5t-168 -84t-217 -28.5q-118 0 -215 28.5t-166.5 84t-108 135.5t-38.5 184v948h196v-948q0 -69 24.5 -122.5t68.5 -89.5t105 -55t134 -19q75 0 137 19t106 55t68.5 89.5t24.5 122.5v948zM584 1470h-208l298 232 h123l295 -232h-205l-152 117z" />
<glyph unicode="&#xdc;" horiz-adv-x="1421" d="M183 0zM1047 1360h196v-948q0 -104 -38.5 -184t-108.5 -135.5t-168 -84t-217 -28.5q-118 0 -215 28.5t-166.5 84t-108 135.5t-38.5 184v948h196v-948q0 -69 24.5 -122.5t68.5 -89.5t105 -55t134 -19q75 0 137 19t106 55t68.5 89.5t24.5 122.5v948zM385 1646h216v-176 h-216v176zM872 1646h218v-176h-218v176z" />
<glyph unicode="&#xdd;" d="M72 0zM593 674l322 686h201l-427 -875v-485h-196v491l-421 869h201zM719 1780l213 -60l-285 -248l-141 40z" />
<glyph unicode="&#xde;" horiz-adv-x="1181" d="M175 1360h196v-300h269q115 0 204 -26.5t150 -76t92.5 -119.5t31.5 -156t-31.5 -156.5t-92.5 -120.5t-150 -77.5t-204 -27.5h-269v-300h-196v1360zM371 914v-468h246q142 0 220 57t78 179q0 121 -78 176.5t-220 55.5h-246z" />
<glyph unicode="&#xdf;" horiz-adv-x="1296" d="M164 -192v1170q0 89 32.5 166.5t93 134.5t146.5 90t192 33q102 0 177.5 -20t125 -57t74 -89.5t24.5 -117.5q0 -34 -6.5 -60.5t-17 -48.5t-24 -40.5t-28.5 -34.5q-15 -21 -27.5 -39.5t-21.5 -38t-14 -40.5t-5 -46q0 -26 10.5 -49t28.5 -43.5t41 -39.5t48 -38 q33 -25 64.5 -52t56 -60t40 -74t15.5 -94q0 -92 -38 -158.5t-101.5 -109t-145.5 -62.5t-169 -20q-81 0 -144 10.5t-99 19.5l27 146q32 -9 87 -19.5t131 -10.5q51 0 97.5 12t82 37.5t56 64.5t20.5 92q0 29 -12 54.5t-31 47.5t-41 40.5t-43 35.5q-35 27 -66.5 54.5t-56.5 59 t-39.5 69.5t-14.5 87q0 68 24 125.5t69 114.5q16 20 33.5 49.5t17.5 58.5q0 60 -50.5 99t-159.5 39q-59 0 -107 -22t-83 -59.5t-54 -88t-19 -108.5v-1170h-196z" />
<glyph unicode="&#xe0;" horiz-adv-x="1105" d="M104 0zM746 598v24q0 70 -12.5 116.5t-39 74t-68 38.5t-100.5 11q-39 0 -80.5 -5t-80 -14t-73 -20t-59.5 -23l-43 136q33 19 75.5 34.5t89 26.5t95 17t94.5 6q91 0 164.5 -18t125.5 -63t80 -122t28 -195v-622h-151l-27 108q-20 -17 -53 -38.5t-76.5 -41t-97.5 -33 t-117 -13.5q-78 0 -137.5 24t-99 65t-59.5 95t-20 114q0 64 32 121.5t88.5 101t134 69.5t169.5 26h218zM472 128q53 0 98 12t80 28.5t59.5 33.5t36.5 26v246h-194q-77 -1 -126 -24t-77 -55t-38.5 -65.5t-10.5 -55.5q0 -35 13 -62.5t36 -46t54.5 -28t68.5 -9.5zM659 1190 l-142 -40l-286 248l213 60z" />
<glyph unicode="&#xe1;" horiz-adv-x="1105" d="M104 0zM746 598v24q0 70 -12.5 116.5t-39 74t-68 38.5t-100.5 11q-39 0 -80.5 -5t-80 -14t-73 -20t-59.5 -23l-43 136q33 19 75.5 34.5t89 26.5t95 17t94.5 6q91 0 164.5 -18t125.5 -63t80 -122t28 -195v-622h-151l-27 108q-20 -17 -53 -38.5t-76.5 -41t-97.5 -33 t-117 -13.5q-78 0 -137.5 24t-99 65t-59.5 95t-20 114q0 64 32 121.5t88.5 101t134 69.5t169.5 26h218zM472 128q53 0 98 12t80 28.5t59.5 33.5t36.5 26v246h-194q-77 -1 -126 -24t-77 -55t-38.5 -65.5t-10.5 -55.5q0 -35 13 -62.5t36 -46t54.5 -28t68.5 -9.5zM692 1460 l213 -60l-285 -248l-141 40z" />
<glyph unicode="&#xe2;" horiz-adv-x="1105" d="M104 0zM746 598v24q0 70 -12.5 116.5t-39 74t-68 38.5t-100.5 11q-39 0 -80.5 -5t-80 -14t-73 -20t-59.5 -23l-43 136q33 19 75.5 34.5t89 26.5t95 17t94.5 6q91 0 164.5 -18t125.5 -63t80 -122t28 -195v-622h-151l-27 108q-20 -17 -53 -38.5t-76.5 -41t-97.5 -33 t-117 -13.5q-78 0 -137.5 24t-99 65t-59.5 95t-20 114q0 64 32 121.5t88.5 101t134 69.5t169.5 26h218zM472 128q53 0 98 12t80 28.5t59.5 33.5t36.5 26v246h-194q-77 -1 -126 -24t-77 -55t-38.5 -65.5t-10.5 -55.5q0 -35 13 -62.5t36 -46t54.5 -28t68.5 -9.5zM438 1150 h-208l298 232h123l295 -232h-205l-152 117z" />
<glyph unicode="&#xe3;" horiz-adv-x="1105" d="M104 0zM746 598v24q0 70 -12.5 116.5t-39 74t-68 38.5t-100.5 11q-39 0 -80.5 -5t-80 -14t-73 -20t-59.5 -23l-43 136q33 19 75.5 34.5t89 26.5t95 17t94.5 6q91 0 164.5 -18t125.5 -63t80 -122t28 -195v-622h-151l-27 108q-20 -17 -53 -38.5t-76.5 -41t-97.5 -33 t-117 -13.5q-78 0 -137.5 24t-99 65t-59.5 95t-20 114q0 64 32 121.5t88.5 101t134 69.5t169.5 26h218zM472 128q53 0 98 12t80 28.5t59.5 33.5t36.5 26v246h-194q-77 -1 -126 -24t-77 -55t-38.5 -65.5t-10.5 -55.5q0 -35 13 -62.5t36 -46t54.5 -28t68.5 -9.5zM713 1296 q14 0 31 5.5t33.5 17.5t31.5 30t26 43l104 -80q-16 -36 -39 -64t-49 -48t-54.5 -32t-55.5 -16q-11 -2 -21.5 -3t-20.5 -1q-54 0 -97.5 23t-81.5 51q-32 23 -59.5 34.5t-44.5 9.5q-15 -1 -29 -4.5t-28.5 -13.5t-30.5 -28t-34 -46l-105 74q15 35 38.5 63t50.5 48t55.5 33 t54.5 18q18 3 34 3q56 0 101.5 -23.5t85.5 -51.5q29 -24 57 -33t47 -9z" />
<glyph unicode="&#xe4;" horiz-adv-x="1105" d="M104 0zM746 598v24q0 70 -12.5 116.5t-39 74t-68 38.5t-100.5 11q-39 0 -80.5 -5t-80 -14t-73 -20t-59.5 -23l-43 136q33 19 75.5 34.5t89 26.5t95 17t94.5 6q91 0 164.5 -18t125.5 -63t80 -122t28 -195v-622h-151l-27 108q-20 -17 -53 -38.5t-76.5 -41t-97.5 -33 t-117 -13.5q-78 0 -137.5 24t-99 65t-59.5 95t-20 114q0 64 32 121.5t88.5 101t134 69.5t169.5 26h218zM472 128q53 0 98 12t80 28.5t59.5 33.5t36.5 26v246h-194q-77 -1 -126 -24t-77 -55t-38.5 -65.5t-10.5 -55.5q0 -35 13 -62.5t36 -46t54.5 -28t68.5 -9.5zM239 1327h216 v-176h-216v176zM726 1327h218v-176h-218v176z" />
<glyph unicode="&#xe5;" horiz-adv-x="1105" d="M104 0zM746 598v24q0 70 -12.5 116.5t-39 74t-68 38.5t-100.5 11q-39 0 -80.5 -5t-80 -14t-73 -20t-59.5 -23l-43 136q33 19 75.5 34.5t89 26.5t95 17t94.5 6q91 0 164.5 -18t125.5 -63t80 -122t28 -195v-622h-151l-27 108q-20 -17 -53 -38.5t-76.5 -41t-97.5 -33 t-117 -13.5q-78 0 -137.5 24t-99 65t-59.5 95t-20 114q0 64 32 121.5t88.5 101t134 69.5t169.5 26h218zM472 128q53 0 98 12t80 28.5t59.5 33.5t36.5 26v246h-194q-77 -1 -126 -24t-77 -55t-38.5 -65.5t-10.5 -55.5q0 -35 13 -62.5t36 -46t54.5 -28t68.5 -9.5zM563 1539 q44 0 82.5 -15.5t67.5 -42t45.5 -61.5t16.5 -75q0 -41 -16.5 -76t-45.5 -61.5t-67.5 -41.5t-82.5 -15t-82.5 15t-67 41.5t-45.5 61.5t-17 76q0 40 17 75t45.5 61.5t67 42t82.5 15.5zM563 1267q37 0 61 23t24 55q0 33 -24 55.5t-61 22.5q-34 0 -59.5 -22.5t-25.5 -55.5 q0 -32 25.5 -55t59.5 -23z" />
<glyph unicode="&#xe6;" horiz-adv-x="1759" d="M757 562v60q0 70 -12 116.5t-38.5 74t-68 38.5t-99.5 11q-39 0 -82 -6t-83.5 -16t-77 -22t-61.5 -24l-49 136q36 18 80.5 34.5t93 28.5t99 19.5t99.5 7.5q113 0 198 -29t135 -105q62 66 148 100t192 34q88 0 165 -27t134 -78t90 -125t33 -168v-146h-698 q4 -167 84.5 -258.5t232.5 -91.5q51 0 93.5 5.5t77.5 13.5t63 18t51 19l47 -128q-62 -35 -148 -54.5t-184 -19.5q-121 0 -214.5 33t-159.5 96q-31 -20 -75.5 -41.5t-102 -39.5t-129.5 -30t-159 -12q-78 0 -137.5 21t-100 58.5t-61 89t-20.5 111.5q0 64 31 118t86 93.5 t129 62t160 22.5h238zM486 132q95 0 165 14t106 28v264h-215q-67 0 -112 -14t-72 -38.5t-38 -57t-11 -68.5q0 -35 14 -59.5t38 -39.5t56 -22t69 -7zM1231 874q-54 0 -98.5 -12t-79 -41.5t-57.5 -78t-33 -120.5h494q0 69 -19 117t-50.5 78t-72 43.5t-84.5 13.5z" />
<glyph unicode="&#xe7;" horiz-adv-x="962" d="M115 0zM115 502q0 118 34 213.5t98 163t155.5 104.5t206.5 37q95 0 164.5 -14t116.5 -40l-55 -136q-18 8 -37.5 16t-43.5 14t-54.5 10t-69.5 4q-72 0 -130.5 -21.5t-100.5 -67t-65 -116t-23 -167.5q0 -98 23 -168.5t65 -117t100.5 -68.5t130.5 -22q84 0 141 14t101 34 l49 -128q-48 -30 -120.5 -48t-170.5 -18q-120 0 -215 37.5t-162 106t-102.5 164.5t-35.5 214zM695 20q35 -66 35 -136q0 -53 -22 -101t-65.5 -84t-108.5 -57.5t-152 -21.5l-35 110q107 11 158.5 53t51.5 105q0 59 -44 132h182z" />
<glyph unicode="&#xe8;" horiz-adv-x="1111" d="M113 0zM309 476q4 -167 84.5 -258.5t232.5 -91.5q51 0 93.5 5.5t77.5 13.5t63 18t51 19l47 -128q-62 -35 -148 -54.5t-184 -19.5q-122 0 -217.5 34.5t-161 100t-100 160.5t-34.5 217q0 125 33.5 223.5t95 166t148.5 103t195 35.5q88 0 165 -27t134 -78t90 -125t33 -168 v-146h-698zM585 874q-54 0 -98.5 -12t-79 -41.5t-57.5 -78t-33 -120.5h494q0 69 -19 117t-50.5 78t-72 43.5t-84.5 13.5zM650 1190l-142 -40l-286 248l213 60z" />
<glyph unicode="&#xe9;" horiz-adv-x="1111" d="M113 0zM309 476q4 -167 84.5 -258.5t232.5 -91.5q51 0 93.5 5.5t77.5 13.5t63 18t51 19l47 -128q-62 -35 -148 -54.5t-184 -19.5q-122 0 -217.5 34.5t-161 100t-100 160.5t-34.5 217q0 125 33.5 223.5t95 166t148.5 103t195 35.5q88 0 165 -27t134 -78t90 -125t33 -168 v-146h-698zM585 874q-54 0 -98.5 -12t-79 -41.5t-57.5 -78t-33 -120.5h494q0 69 -19 117t-50.5 78t-72 43.5t-84.5 13.5zM683 1460l213 -60l-285 -248l-141 40z" />
<glyph unicode="&#xea;" horiz-adv-x="1111" d="M113 0zM309 476q4 -167 84.5 -258.5t232.5 -91.5q51 0 93.5 5.5t77.5 13.5t63 18t51 19l47 -128q-62 -35 -148 -54.5t-184 -19.5q-122 0 -217.5 34.5t-161 100t-100 160.5t-34.5 217q0 125 33.5 223.5t95 166t148.5 103t195 35.5q88 0 165 -27t134 -78t90 -125t33 -168 v-146h-698zM585 874q-54 0 -98.5 -12t-79 -41.5t-57.5 -78t-33 -120.5h494q0 69 -19 117t-50.5 78t-72 43.5t-84.5 13.5zM429 1150h-208l298 232h123l295 -232h-205l-152 117z" />
<glyph unicode="&#xeb;" horiz-adv-x="1111" d="M113 0zM309 476q4 -167 84.5 -258.5t232.5 -91.5q51 0 93.5 5.5t77.5 13.5t63 18t51 19l47 -128q-62 -35 -148 -54.5t-184 -19.5q-122 0 -217.5 34.5t-161 100t-100 160.5t-34.5 217q0 125 33.5 223.5t95 166t148.5 103t195 35.5q88 0 165 -27t134 -78t90 -125t33 -168 v-146h-698zM585 874q-54 0 -98.5 -12t-79 -41.5t-57.5 -78t-33 -120.5h494q0 69 -19 117t-50.5 78t-72 43.5t-84.5 13.5zM230 1327h216v-176h-216v176zM717 1327h218v-176h-218v176z" />
<glyph unicode="&#xec;" horiz-adv-x="411" d="M0 0zM108 1000h196v-1000h-196v1000zM305 1185l-142 -40l-286 248l213 60z" />
<glyph unicode="&#xed;" horiz-adv-x="411" d="M108 0zM108 1000h196v-1000h-196v1000zM338 1455l213 -60l-285 -248l-141 40z" />
<glyph unicode="&#xee;" horiz-adv-x="411" d="M0 0zM108 1000h196v-1000h-196v1000zM84 1146h-208l298 232h123l295 -232h-205l-152 117z" />
<glyph unicode="&#xef;" horiz-adv-x="411" d="M0 0zM108 1000h196v-1000h-196v1000zM-115 1322h216v-176h-216v176zM372 1322h218v-176h-218v176z" />
<glyph unicode="&#xf0;" horiz-adv-x="1190" d="M490 1066l198 93q-108 75 -260 75l20 146q122 0 223.5 -37t181.5 -106l207 97l67 -108l-185 -84q75 -101 115.5 -237.5t40.5 -302.5q0 -140 -32.5 -254t-95.5 -195t-155.5 -125t-211.5 -44q-113 0 -200.5 35t-149 93.5t-96.5 134t-42 155.5q-1 13 -1.5 25.5t-0.5 24.5 q0 93 29.5 170t85 132t135 85.5t179.5 30.5q107 0 198.5 -43t151.5 -135q-8 124 -36.5 216.5t-76.5 158.5l-227 -103zM581 130q72 0 128 23.5t95 73t61.5 125.5t27.5 182q-33 54 -72 89.5t-81.5 56.5t-88 29.5t-91.5 8.5q-65 0 -109.5 -23.5t-73 -64.5t-41 -96.5 t-12.5 -119.5q0 -56 15.5 -107t47.5 -90.5t80.5 -63t113.5 -23.5z" />
<glyph unicode="&#xf1;" horiz-adv-x="1205" d="M175 0zM175 1000h173l16 -95q73 54 156.5 84.5t182.5 30.5q75 0 136 -16.5t104 -57t66.5 -109.5t23.5 -175v-662h-196v662q0 59 -10.5 99.5t-32 65.5t-55.5 36t-81 11q-85 0 -155.5 -32t-131.5 -80v-762h-196v1000zM751 1296q14 0 31 5.5t33.5 17.5t31.5 30t26 43 l104 -80q-16 -36 -39 -64t-49 -48t-54.5 -32t-55.5 -16q-11 -2 -21.5 -3t-20.5 -1q-54 0 -97.5 23t-81.5 51q-32 23 -59.5 34.5t-44.5 9.5q-15 -1 -29 -4.5t-28.5 -13.5t-30.5 -28t-34 -46l-105 74q15 35 38.5 63t50.5 48t55.5 33t54.5 18q18 3 34 3q56 0 101.5 -23.5 t85.5 -51.5q29 -24 57 -33t47 -9z" />
<glyph unicode="&#xf2;" horiz-adv-x="1190" d="M113 0zM113 500q0 121 35 217t98.5 163.5t152.5 103.5t198 36q108 0 198 -36t154 -103.5t99.5 -163.5t35.5 -217q0 -122 -35.5 -218t-99.5 -163.5t-154 -103t-198 -35.5q-109 0 -198 35.5t-152.5 103t-98.5 163.5t-35 218zM309 500q0 -98 21 -169t59 -116.5t91 -67 t117 -21.5t117.5 21.5t92 67t60 116.5t21.5 169t-21.5 169t-60 116.5t-92 67t-117.5 21.5t-117 -21.5t-91 -67t-59 -116.5t-21 -169zM688 1188l-142 -40l-286 248l213 60z" />
<glyph unicode="&#xf3;" horiz-adv-x="1190" d="M113 0zM113 500q0 121 35 217t98.5 163.5t152.5 103.5t198 36q108 0 198 -36t154 -103.5t99.5 -163.5t35.5 -217q0 -122 -35.5 -218t-99.5 -163.5t-154 -103t-198 -35.5q-109 0 -198 35.5t-152.5 103t-98.5 163.5t-35 218zM309 500q0 -98 21 -169t59 -116.5t91 -67 t117 -21.5t117.5 21.5t92 67t60 116.5t21.5 169t-21.5 169t-60 116.5t-92 67t-117.5 21.5t-117 -21.5t-91 -67t-59 -116.5t-21 -169zM721 1458l213 -60l-285 -248l-141 40z" />
<glyph unicode="&#xf4;" horiz-adv-x="1190" d="M113 0zM113 500q0 121 35 217t98.5 163.5t152.5 103.5t198 36q108 0 198 -36t154 -103.5t99.5 -163.5t35.5 -217q0 -122 -35.5 -218t-99.5 -163.5t-154 -103t-198 -35.5q-109 0 -198 35.5t-152.5 103t-98.5 163.5t-35 218zM309 500q0 -98 21 -169t59 -116.5t91 -67 t117 -21.5t117.5 21.5t92 67t60 116.5t21.5 169t-21.5 169t-60 116.5t-92 67t-117.5 21.5t-117 -21.5t-91 -67t-59 -116.5t-21 -169zM467 1148h-208l298 232h123l295 -232h-205l-152 117z" />
<glyph unicode="&#xf5;" horiz-adv-x="1190" d="M113 0zM113 500q0 121 35 217t98.5 163.5t152.5 103.5t198 36q108 0 198 -36t154 -103.5t99.5 -163.5t35.5 -217q0 -122 -35.5 -218t-99.5 -163.5t-154 -103t-198 -35.5q-109 0 -198 35.5t-152.5 103t-98.5 163.5t-35 218zM309 500q0 -98 21 -169t59 -116.5t91 -67 t117 -21.5t117.5 21.5t92 67t60 116.5t21.5 169t-21.5 169t-60 116.5t-92 67t-117.5 21.5t-117 -21.5t-91 -67t-59 -116.5t-21 -169zM742 1294q14 0 31 5.5t33.5 17.5t31.5 30t26 43l104 -80q-16 -36 -39 -64t-49 -48t-54.5 -32t-55.5 -16q-11 -2 -21.5 -3t-20.5 -1 q-54 0 -97.5 23t-81.5 51q-32 23 -59.5 34.5t-44.5 9.5q-15 -1 -29 -4.5t-28.5 -13.5t-30.5 -28t-34 -46l-105 74q15 35 38.5 63t50.5 48t55.5 33t54.5 18q18 3 34 3q56 0 101.5 -23.5t85.5 -51.5q29 -24 57 -33t47 -9z" />
<glyph unicode="&#xf6;" horiz-adv-x="1190" d="M113 0zM113 500q0 121 35 217t98.5 163.5t152.5 103.5t198 36q108 0 198 -36t154 -103.5t99.5 -163.5t35.5 -217q0 -122 -35.5 -218t-99.5 -163.5t-154 -103t-198 -35.5q-109 0 -198 35.5t-152.5 103t-98.5 163.5t-35 218zM309 500q0 -98 21 -169t59 -116.5t91 -67 t117 -21.5t117.5 21.5t92 67t60 116.5t21.5 169t-21.5 169t-60 116.5t-92 67t-117.5 21.5t-117 -21.5t-91 -67t-59 -116.5t-21 -169zM268 1325h216v-176h-216v176zM755 1325h218v-176h-218v176z" />
<glyph unicode="&#xf7;" horiz-adv-x="1066" d="M108 526v146h852v-146h-852zM432 978h196v-178h-196v178zM432 378h196v-178h-196v178z" />
<glyph unicode="&#xf8;" horiz-adv-x="1216" d="M113 500q0 121 35 217t98.5 163.5t152.5 103.5t198 36q87 0 161 -23t134 -67l59 70h171l-138 -162q48 -65 74 -150t26 -188q0 -122 -35.5 -218t-99.5 -163.5t-154 -103t-198 -35.5q-81 0 -151.5 20t-128.5 58l-49 -58h-170l124 146q-53 66 -81 155t-28 199zM309 500 q0 -127 35 -211l442 517q-38 35 -85.5 51.5t-103.5 16.5q-64 0 -117 -21.5t-91 -67t-59 -116.5t-21 -169zM888 500q0 57 -7.5 105t-21.5 87l-436 -511q35 -29 79 -42t95 -13q64 0 117.5 21.5t92 67t60 116.5t21.5 169z" />
<glyph unicode="&#xf9;" horiz-adv-x="1205" d="M175 0zM1033 0h-173l-17 127q-72 -69 -155.5 -108t-180.5 -39q-76 0 -137 18t-104.5 63t-67 122t-23.5 195v622h196v-622q0 -71 10.5 -119t32.5 -77.5t55.5 -42.5t80.5 -13q85 0 156 31.5t131 81.5v761h196v-1000zM697 1170l-142 -40l-286 248l213 60z" />
<glyph unicode="&#xfa;" horiz-adv-x="1205" d="M175 0zM1033 0h-173l-17 127q-72 -69 -155.5 -108t-180.5 -39q-76 0 -137 18t-104.5 63t-67 122t-23.5 195v622h196v-622q0 -71 10.5 -119t32.5 -77.5t55.5 -42.5t80.5 -13q85 0 156 31.5t131 81.5v761h196v-1000zM730 1440l213 -60l-285 -248l-141 40z" />
<glyph unicode="&#xfb;" horiz-adv-x="1205" d="M175 0zM1033 0h-173l-17 127q-72 -69 -155.5 -108t-180.5 -39q-76 0 -137 18t-104.5 63t-67 122t-23.5 195v622h196v-622q0 -71 10.5 -119t32.5 -77.5t55.5 -42.5t80.5 -13q85 0 156 31.5t131 81.5v761h196v-1000zM476 1131h-208l298 232h123l295 -232h-205l-152 117z " />
<glyph unicode="&#xfc;" horiz-adv-x="1205" d="M175 0zM1033 0h-173l-17 127q-72 -69 -155.5 -108t-180.5 -39q-76 0 -137 18t-104.5 63t-67 122t-23.5 195v622h196v-622q0 -71 10.5 -119t32.5 -77.5t55.5 -42.5t80.5 -13q85 0 156 31.5t131 81.5v761h196v-1000zM277 1307h216v-176h-216v176zM764 1307h218v-176h-218 v176z" />
<glyph unicode="&#xfd;" horiz-adv-x="1052" d="M64 0zM788 1000h202l-384 -1066q-33 -101 -66.5 -167.5t-73.5 -106.5t-88.5 -56t-111.5 -16q-33 0 -65 5t-58 13l19 136q17 0 39 -4t46 -4q33 0 57 9t44.5 32.5t41 64.5t45.5 105l-371 1055h202l256 -799zM654 1440l213 -60l-285 -248l-141 40z" />
<glyph unicode="&#xfe;" horiz-adv-x="1123" d="M108 1400h197v-490q28 26 57 46.5t63.5 34.5t77 21.5t98.5 7.5q94 0 171.5 -37t132 -104.5t84.5 -163t30 -213.5t-30 -214t-84.5 -164.5t-132 -106t-171.5 -37.5q-53 0 -95.5 7.5t-77.5 21.5t-65 34.5t-58 46.5v-490h-197v1800zM817 502q0 91 -16 160.5t-50 116.5t-88 71 t-129 24q-69 0 -126.5 -22.5t-102.5 -57.5v-588q45 -35 102.5 -57.5t126.5 -22.5q75 0 129 24.5t88 72.5t50 118t16 161z" />
<glyph unicode="&#xff;" horiz-adv-x="1052" d="M64 0zM788 1000h202l-384 -1066q-33 -101 -66.5 -167.5t-73.5 -106.5t-88.5 -56t-111.5 -16q-33 0 -65 5t-58 13l19 136q17 0 39 -4t46 -4q33 0 57 9t44.5 32.5t41 64.5t45.5 105l-371 1055h202l256 -799zM201 1307h216v-176h-216v176zM688 1307h218v-176h-218v176z" />
<glyph unicode="&#x100;" horiz-adv-x="1335" d="M72 0zM950 346h-562l-120 -346h-196l496 1360h200l499 -1360h-196zM439 492h460l-230 658zM280 1618h772v-146h-772v146z" />
<glyph unicode="&#x101;" horiz-adv-x="1105" d="M104 0zM746 598v24q0 70 -12.5 116.5t-39 74t-68 38.5t-100.5 11q-39 0 -80.5 -5t-80 -14t-73 -20t-59.5 -23l-43 136q33 19 75.5 34.5t89 26.5t95 17t94.5 6q91 0 164.5 -18t125.5 -63t80 -122t28 -195v-622h-151l-27 108q-20 -17 -53 -38.5t-76.5 -41t-97.5 -33 t-117 -13.5q-78 0 -137.5 24t-99 65t-59.5 95t-20 114q0 64 32 121.5t88.5 101t134 69.5t169.5 26h218zM472 128q53 0 98 12t80 28.5t59.5 33.5t36.5 26v246h-194q-77 -1 -126 -24t-77 -55t-38.5 -65.5t-10.5 -55.5q0 -35 13 -62.5t36 -46t54.5 -28t68.5 -9.5zM175 1297h772 v-146h-772v146z" />
<glyph unicode="&#x102;" horiz-adv-x="1335" d="M72 0zM950 346h-562l-120 -346h-196l496 1360h200l499 -1360h-196zM439 492h460l-230 658zM669 1468q-76 -1 -139 14.5t-108.5 46t-70.5 76t-25 105.5h154q0 -62 48 -99t141 -37q97 0 144.5 37t47.5 99h153q0 -60 -25 -105.5t-71 -76t-109.5 -46t-139.5 -14.5z" />
<glyph unicode="&#x103;" horiz-adv-x="1105" d="M104 0zM746 598v24q0 70 -12.5 116.5t-39 74t-68 38.5t-100.5 11q-39 0 -80.5 -5t-80 -14t-73 -20t-59.5 -23l-43 136q33 19 75.5 34.5t89 26.5t95 17t94.5 6q91 0 164.5 -18t125.5 -63t80 -122t28 -195v-622h-151l-27 108q-20 -17 -53 -38.5t-76.5 -41t-97.5 -33 t-117 -13.5q-78 0 -137.5 24t-99 65t-59.5 95t-20 114q0 64 32 121.5t88.5 101t134 69.5t169.5 26h218zM472 128q53 0 98 12t80 28.5t59.5 33.5t36.5 26v246h-194q-77 -1 -126 -24t-77 -55t-38.5 -65.5t-10.5 -55.5q0 -35 13 -62.5t36 -46t54.5 -28t68.5 -9.5zM564 1146 q-76 -1 -139 14.5t-108.5 46t-70.5 76t-25 105.5h154q0 -62 48 -99t141 -37q97 0 144.5 37t47.5 99h153q0 -60 -25 -105.5t-71 -76t-109.5 -46t-139.5 -14.5z" />
<glyph unicode="&#x104;" horiz-adv-x="1335" d="M72 0zM950 346h-562l-120 -346h-196l496 1360h200l499 -1360h-196zM439 492h460l-230 658zM1272 0q-84 -33 -128 -81.5t-44 -114.5q0 -17 6.5 -30t17 -22.5t23 -14.5t25.5 -5q16 0 26 0.5t18 2t15.5 3.5t18.5 6l22 -112q-6 -4 -19.5 -8t-31 -7t-38 -5t-39.5 -2 q-99 0 -154 47.5t-55 132.5q0 49 16.5 90.5t44.5 74t66 55.5t80 34l130 -40v-4z" />
<glyph unicode="&#x105;" horiz-adv-x="1105" d="M104 0zM746 598v24q0 70 -12.5 116.5t-39 74t-68 38.5t-100.5 11q-39 0 -80.5 -5t-80 -14t-73 -20t-59.5 -23l-43 136q33 19 75.5 34.5t89 26.5t95 17t94.5 6q91 0 164.5 -18t125.5 -63t80 -122t28 -195v-622h-151l-27 108q-20 -17 -53 -38.5t-76.5 -41t-97.5 -33 t-117 -13.5q-78 0 -137.5 24t-99 65t-59.5 95t-20 114q0 64 32 121.5t88.5 101t134 69.5t169.5 26h218zM472 128q53 0 98 12t80 28.5t59.5 33.5t36.5 26v246h-194q-77 -1 -126 -24t-77 -55t-38.5 -65.5t-10.5 -55.5q0 -35 13 -62.5t36 -46t54.5 -28t68.5 -9.5zM949 0 q-84 -33 -128 -81.5t-44 -114.5q0 -17 6.5 -30t17 -22.5t23 -14.5t25.5 -5q16 0 26 0.5t18 2t15.5 3.5t18.5 6l22 -112q-6 -4 -19.5 -8t-31 -7t-38 -5t-39.5 -2q-99 0 -154 47.5t-55 132.5q0 49 16.5 90.5t44.5 74t66 55.5t80 34l130 -40v-4z" />
<glyph unicode="&#x106;" horiz-adv-x="1122" d="M121 0zM121 682q0 158 43.5 287t124.5 220.5t196.5 141t260.5 49.5q51 0 92.5 -5.5t76 -14.5t63.5 -21t55 -25l-55 -130q-49 23 -105.5 36.5t-126.5 13.5q-96 0 -175 -32t-135.5 -99.5t-87.5 -171.5t-31 -249t32.5 -250t91.5 -173t142 -100.5t185 -32.5q43 0 79.5 5.5 t67.5 14.5t57 19.5t48 20.5l42 -128q-53 -33 -128.5 -55.5t-187.5 -22.5q-145 0 -260.5 50.5t-196.5 142.5t-124.5 221.5t-43.5 287.5zM862 1800l213 -60l-285 -248l-141 40z" />
<glyph unicode="&#x107;" horiz-adv-x="962" d="M115 0zM115 502q0 118 34 213.5t98 163t155.5 104.5t206.5 37q95 0 164.5 -14t116.5 -40l-55 -136q-18 8 -37.5 16t-43.5 14t-54.5 10t-69.5 4q-72 0 -130.5 -21.5t-100.5 -67t-65 -116t-23 -167.5q0 -98 23 -168.5t65 -117t100.5 -68.5t130.5 -22q84 0 141 14t101 34 l49 -128q-48 -30 -120.5 -48t-170.5 -18q-120 0 -215 37.5t-162 106t-102.5 164.5t-35.5 214zM711 1460l213 -60l-285 -248l-141 40z" />
<glyph unicode="&#x108;" horiz-adv-x="1122" d="M121 0zM121 682q0 158 43.5 287t124.5 220.5t196.5 141t260.5 49.5q51 0 92.5 -5.5t76 -14.5t63.5 -21t55 -25l-55 -130q-49 23 -105.5 36.5t-126.5 13.5q-96 0 -175 -32t-135.5 -99.5t-87.5 -171.5t-31 -249t32.5 -250t91.5 -173t142 -100.5t185 -32.5q43 0 79.5 5.5 t67.5 14.5t57 19.5t48 20.5l42 -128q-53 -33 -128.5 -55.5t-187.5 -22.5q-145 0 -260.5 50.5t-196.5 142.5t-124.5 221.5t-43.5 287.5zM608 1490h-208l298 232h123l295 -232h-205l-152 117z" />
<glyph unicode="&#x109;" horiz-adv-x="962" d="M115 0zM115 502q0 118 34 213.5t98 163t155.5 104.5t206.5 37q95 0 164.5 -14t116.5 -40l-55 -136q-18 8 -37.5 16t-43.5 14t-54.5 10t-69.5 4q-72 0 -130.5 -21.5t-100.5 -67t-65 -116t-23 -167.5q0 -98 23 -168.5t65 -117t100.5 -68.5t130.5 -22q84 0 141 14t101 34 l49 -128q-48 -30 -120.5 -48t-170.5 -18q-120 0 -215 37.5t-162 106t-102.5 164.5t-35.5 214zM457 1150h-208l298 232h123l295 -232h-205l-152 117z" />
<glyph unicode="&#x10a;" horiz-adv-x="1122" d="M121 0zM121 682q0 158 43.5 287t124.5 220.5t196.5 141t260.5 49.5q51 0 92.5 -5.5t76 -14.5t63.5 -21t55 -25l-55 -130q-49 23 -105.5 36.5t-126.5 13.5q-96 0 -175 -32t-135.5 -99.5t-87.5 -171.5t-31 -249t32.5 -250t91.5 -173t142 -100.5t185 -32.5q43 0 79.5 5.5 t67.5 14.5t57 19.5t48 20.5l42 -128q-53 -33 -128.5 -55.5t-187.5 -22.5q-145 0 -260.5 50.5t-196.5 142.5t-124.5 221.5t-43.5 287.5zM625 1666h218v-176h-218v176z" />
<glyph unicode="&#x10b;" horiz-adv-x="962" d="M115 0zM115 502q0 118 34 213.5t98 163t155.5 104.5t206.5 37q95 0 164.5 -14t116.5 -40l-55 -136q-18 8 -37.5 16t-43.5 14t-54.5 10t-69.5 4q-72 0 -130.5 -21.5t-100.5 -67t-65 -116t-23 -167.5q0 -98 23 -168.5t65 -117t100.5 -68.5t130.5 -22q84 0 141 14t101 34 l49 -128q-48 -30 -120.5 -48t-170.5 -18q-120 0 -215 37.5t-162 106t-102.5 164.5t-35.5 214zM474 1327h218v-176h-218v176z" />
<glyph unicode="&#x10c;" horiz-adv-x="1122" d="M121 0zM121 682q0 158 43.5 287t124.5 220.5t196.5 141t260.5 49.5q51 0 92.5 -5.5t76 -14.5t63.5 -21t55 -25l-55 -130q-49 23 -105.5 36.5t-126.5 13.5q-96 0 -175 -32t-135.5 -99.5t-87.5 -171.5t-31 -249t32.5 -250t91.5 -173t142 -100.5t185 -32.5q43 0 79.5 5.5 t67.5 14.5t57 19.5t48 20.5l42 -128q-53 -33 -128.5 -55.5t-187.5 -22.5q-145 0 -260.5 50.5t-196.5 142.5t-124.5 221.5t-43.5 287.5zM899 1724h205l-295 -232h-123l-298 232h208l151 -129z" />
<glyph unicode="&#x10d;" horiz-adv-x="962" d="M115 0zM115 502q0 118 34 213.5t98 163t155.5 104.5t206.5 37q95 0 164.5 -14t116.5 -40l-55 -136q-18 8 -37.5 16t-43.5 14t-54.5 10t-69.5 4q-72 0 -130.5 -21.5t-100.5 -67t-65 -116t-23 -167.5q0 -98 23 -168.5t65 -117t100.5 -68.5t130.5 -22q84 0 141 14t101 34 l49 -128q-48 -30 -120.5 -48t-170.5 -18q-120 0 -215 37.5t-162 106t-102.5 164.5t-35.5 214zM748 1384h205l-295 -232h-123l-298 232h208l151 -129z" />
<glyph unicode="&#x10e;" horiz-adv-x="1388" d="M183 0zM183 1360h420q149 0 269.5 -48.5t205 -137t130.5 -213.5t46 -279t-46 -279.5t-130.5 -215t-205 -138.5t-269.5 -49h-420v1360zM379 1214v-1068h202q106 0 194 31.5t151 97t97.5 166.5t34.5 241q0 139 -34.5 240t-97.5 165.5t-151 95.5t-194 31h-202zM726 1704h205 l-295 -232h-123l-298 232h208l151 -129z" />
<glyph unicode="&#x10f;" horiz-adv-x="1354" d="M137 0zM840 87q-27 -26 -55.5 -45.5t-62.5 -33.5t-76 -21t-96 -7q-95 0 -171.5 37.5t-130 106t-82.5 164.5t-29 214t29 213.5t82.5 163t130 104.5t171.5 37q50 0 90 -7t74 -19.5t62.5 -31.5t55.5 -43v481h196v-1400h-173zM333 502q0 -91 15.5 -161t49 -118t87 -72.5 t129.5 -24.5q65 0 119 20t99 52v604q-45 32 -99 52t-119 20q-76 0 -129.5 -24t-87 -71t-49 -116.5t-15.5 -160.5zM1205 1401h223l-177 -468l-140 20z" />
<glyph unicode="&#x110;" horiz-adv-x="1421" d="M242 630h-134v146h134v584h420q149 0 269.5 -48.5t205 -137t130.5 -213.5t46 -279t-46 -279.5t-130.5 -215t-205 -138.5t-269.5 -49h-420v630zM438 630v-484h202q106 0 194 31.5t151 97t97.5 166.5t34.5 241q0 139 -34.5 240t-97.5 165.5t-151 95.5t-194 31h-202v-438 h281v-146h-281z" />
<glyph unicode="&#x111;" horiz-adv-x="1187" d="M124 0zM827 87q-27 -26 -55.5 -45.5t-62.5 -33.5t-76 -21t-96 -7q-95 0 -171.5 37.5t-130 106t-82.5 164.5t-29 214t29 213.5t82.5 163t130 104.5t171.5 37q50 0 90 -7t74 -19.5t62.5 -31.5t55.5 -43v481h196v-1400h-173zM320 502q0 -91 15.5 -161t49 -118t87 -72.5 t129.5 -24.5q65 0 119 20t99 52v604q-45 32 -99 52t-119 20q-76 0 -129.5 -24t-87 -71t-49 -116.5t-15.5 -160.5zM426 1269h772v-146h-772v146z" />
<glyph unicode="&#x112;" horiz-adv-x="1074" d="M183 0zM183 0v1360h801v-146h-605v-444h540v-146h-540v-478h605v-146h-801zM192 1616h772v-146h-772v146z" />
<glyph unicode="&#x113;" horiz-adv-x="1111" d="M113 0zM309 476q4 -167 84.5 -258.5t232.5 -91.5q51 0 93.5 5.5t77.5 13.5t63 18t51 19l47 -128q-62 -35 -148 -54.5t-184 -19.5q-122 0 -217.5 34.5t-161 100t-100 160.5t-34.5 217q0 125 33.5 223.5t95 166t148.5 103t195 35.5q88 0 165 -27t134 -78t90 -125t33 -168 v-146h-698zM585 874q-54 0 -98.5 -12t-79 -41.5t-57.5 -78t-33 -120.5h494q0 69 -19 117t-50.5 78t-72 43.5t-84.5 13.5zM166 1297h772v-146h-772v146z" />
<glyph unicode="&#x116;" horiz-adv-x="1074" d="M183 0zM183 0v1360h801v-146h-605v-444h540v-146h-540v-478h605v-146h-801zM472 1646h218v-176h-218v176z" />
<glyph unicode="&#x117;" horiz-adv-x="1111" d="M113 0zM309 476q4 -167 84.5 -258.5t232.5 -91.5q51 0 93.5 5.5t77.5 13.5t63 18t51 19l47 -128q-62 -35 -148 -54.5t-184 -19.5q-122 0 -217.5 34.5t-161 100t-100 160.5t-34.5 217q0 125 33.5 223.5t95 166t148.5 103t195 35.5q88 0 165 -27t134 -78t90 -125t33 -168 v-146h-698zM585 874q-54 0 -98.5 -12t-79 -41.5t-57.5 -78t-33 -120.5h494q0 69 -19 117t-50.5 78t-72 43.5t-84.5 13.5zM446 1327h218v-176h-218v176z" />
<glyph unicode="&#x118;" horiz-adv-x="1074" d="M183 0zM183 0v1360h801v-146h-605v-444h540v-146h-540v-478h605v-146h-801zM985 0q-84 -33 -128 -81.5t-44 -114.5q0 -17 6.5 -30t17 -22.5t23 -14.5t25.5 -5q16 0 26 0.5t18 2t15.5 3.5t18.5 6l22 -112q-6 -4 -19.5 -8t-31 -7t-38 -5t-39.5 -2q-99 0 -154 47.5 t-55 132.5q0 49 16.5 90.5t44.5 74t66 55.5t80 34l130 -40v-4z" />
<glyph unicode="&#x119;" horiz-adv-x="1111" d="M113 0zM309 476q4 -167 84.5 -258.5t232.5 -91.5q51 0 93.5 5.5t77.5 13.5t63 18t51 19l47 -128q-62 -35 -148 -54.5t-184 -19.5q-122 0 -217.5 34.5t-161 100t-100 160.5t-34.5 217q0 125 33.5 223.5t95 166t148.5 103t195 35.5q88 0 165 -27t134 -78t90 -125t33 -168 v-146h-698zM585 874q-54 0 -98.5 -12t-79 -41.5t-57.5 -78t-33 -120.5h494q0 69 -19 117t-50.5 78t-72 43.5t-84.5 13.5zM818 0q-84 -33 -128 -81.5t-44 -114.5q0 -17 6.5 -30t17 -22.5t23 -14.5t25.5 -5q16 0 26 0.5t18 2t15.5 3.5t18.5 6l22 -112q-6 -4 -19.5 -8t-31 -7 t-38 -5t-39.5 -2q-99 0 -154 47.5t-55 132.5q0 49 16.5 90.5t44.5 74t66 55.5t80 34l130 -40v-4z" />
<glyph unicode="&#x11a;" horiz-adv-x="1074" d="M183 0zM183 0v1360h801v-146h-605v-444h540v-146h-540v-478h605v-146h-801zM746 1704h205l-295 -232h-123l-298 232h208l151 -129z" />
<glyph unicode="&#x11b;" horiz-adv-x="1111" d="M113 0zM309 476q4 -167 84.5 -258.5t232.5 -91.5q51 0 93.5 5.5t77.5 13.5t63 18t51 19l47 -128q-62 -35 -148 -54.5t-184 -19.5q-122 0 -217.5 34.5t-161 100t-100 160.5t-34.5 217q0 125 33.5 223.5t95 166t148.5 103t195 35.5q88 0 165 -27t134 -78t90 -125t33 -168 v-146h-698zM585 874q-54 0 -98.5 -12t-79 -41.5t-57.5 -78t-33 -120.5h494q0 69 -19 117t-50.5 78t-72 43.5t-84.5 13.5zM720 1384h205l-295 -232h-123l-298 232h208l151 -129z" />
<glyph unicode="&#x11c;" horiz-adv-x="1369" d="M130 0zM723 690h492v-622q-98 -41 -202 -64.5t-227 -23.5q-155 0 -276.5 56t-206 152t-129 223t-44.5 269q0 161 48.5 290.5t139 220.5t221 140t294.5 49q52 0 96 -5t80.5 -13t65.5 -18t52 -20l-41 -138q-46 17 -109 32.5t-144 15.5q-120 0 -214 -35.5t-159.5 -105 t-99.5 -173.5t-34 -240q0 -107 30.5 -207t89 -177t144.5 -123.5t196 -46.5q65 0 122 7t111 27v384h-296v146zM655 1488h-208l298 232h123l295 -232h-205l-152 117z" />
<glyph unicode="&#x11d;" horiz-adv-x="1190" d="M86 0zM141 656q0 89 32.5 157t91 114t140 69.5t180.5 23.5q90 0 167 -20h370l-15 -128h-146q33 -43 50.5 -96.5t17.5 -119.5q0 -86 -32.5 -153.5t-91 -114t-140 -71.5t-180.5 -25q-95 0 -176 23q-17 -18 -26 -41.5t-9 -55.5q0 -9 3 -22t8 -26t11.5 -25t12.5 -19h296 q96 0 169 -22.5t121.5 -62t72 -93t21.5 -114.5q-6 -68 -45 -126t-105.5 -100t-158 -66t-203.5 -24q-57 0 -115.5 5.5t-113 18.5t-102.5 34t-83.5 52.5t-56 73.5t-20.5 98q0 76 41 138t133 108q-24 26 -42 60t-18 76q0 60 27 103t73 78q-75 47 -117 120.5t-42 172.5zM337 656 q0 -102 62 -160t186 -58t186 58t62 160q0 55 -18.5 96t-51.5 68t-78.5 40.5t-99.5 13.5t-99.5 -13.5t-78.5 -40.5t-51.5 -68t-18.5 -96zM386 -20q-26 -17 -45 -33.5t-32.5 -37t-20 -46t-6.5 -59.5q0 -30 15.5 -52t41 -37.5t57.5 -25.5t65 -15.5t64.5 -7.5t55.5 -2 q71 0 128.5 12.5t98.5 35t63 53t22 65.5q0 32 -9 59.5t-33.5 47.5t-68 31.5t-112.5 11.5h-284zM461 1148h-208l298 232h123l295 -232h-205l-152 117z" />
<glyph unicode="&#x11e;" horiz-adv-x="1369" d="M130 0zM723 690h492v-622q-98 -41 -202 -64.5t-227 -23.5q-155 0 -276.5 56t-206 152t-129 223t-44.5 269q0 161 48.5 290.5t139 220.5t221 140t294.5 49q52 0 96 -5t80.5 -13t65.5 -18t52 -20l-41 -138q-46 17 -109 32.5t-144 15.5q-120 0 -214 -35.5t-159.5 -105 t-99.5 -173.5t-34 -240q0 -107 30.5 -207t89 -177t144.5 -123.5t196 -46.5q65 0 122 7t111 27v384h-296v146zM781 1484q-76 -1 -139 14.5t-108.5 46t-70.5 76t-25 105.5h154q0 -62 48 -99t141 -37q97 0 144.5 37t47.5 99h153q0 -60 -25 -105.5t-71 -76t-109.5 -46 t-139.5 -14.5z" />
<glyph unicode="&#x11f;" horiz-adv-x="1190" d="M86 0zM141 656q0 89 32.5 157t91 114t140 69.5t180.5 23.5q90 0 167 -20h370l-15 -128h-146q33 -43 50.5 -96.5t17.5 -119.5q0 -86 -32.5 -153.5t-91 -114t-140 -71.5t-180.5 -25q-95 0 -176 23q-17 -18 -26 -41.5t-9 -55.5q0 -9 3 -22t8 -26t11.5 -25t12.5 -19h296 q96 0 169 -22.5t121.5 -62t72 -93t21.5 -114.5q-6 -68 -45 -126t-105.5 -100t-158 -66t-203.5 -24q-57 0 -115.5 5.5t-113 18.5t-102.5 34t-83.5 52.5t-56 73.5t-20.5 98q0 76 41 138t133 108q-24 26 -42 60t-18 76q0 60 27 103t73 78q-75 47 -117 120.5t-42 172.5zM337 656 q0 -102 62 -160t186 -58t186 58t62 160q0 55 -18.5 96t-51.5 68t-78.5 40.5t-99.5 13.5t-99.5 -13.5t-78.5 -40.5t-51.5 -68t-18.5 -96zM386 -20q-26 -17 -45 -33.5t-32.5 -37t-20 -46t-6.5 -59.5q0 -30 15.5 -52t41 -37.5t57.5 -25.5t65 -15.5t64.5 -7.5t55.5 -2 q71 0 128.5 12.5t98.5 35t63 53t22 65.5q0 32 -9 59.5t-33.5 47.5t-68 31.5t-112.5 11.5h-284zM587 1144q-76 -1 -139 14.5t-108.5 46t-70.5 76t-25 105.5h154q0 -62 48 -99t141 -37q97 0 144.5 37t47.5 99h153q0 -60 -25 -105.5t-71 -76t-109.5 -46t-139.5 -14.5z" />
<glyph unicode="&#x120;" horiz-adv-x="1369" d="M130 0zM723 690h492v-622q-98 -41 -202 -64.5t-227 -23.5q-155 0 -276.5 56t-206 152t-129 223t-44.5 269q0 161 48.5 290.5t139 220.5t221 140t294.5 49q52 0 96 -5t80.5 -13t65.5 -18t52 -20l-41 -138q-46 17 -109 32.5t-144 15.5q-120 0 -214 -35.5t-159.5 -105 t-99.5 -173.5t-34 -240q0 -107 30.5 -207t89 -177t144.5 -123.5t196 -46.5q65 0 122 7t111 27v384h-296v146zM672 1664h218v-176h-218v176z" />
<glyph unicode="&#x121;" horiz-adv-x="1190" d="M86 0zM141 656q0 89 32.5 157t91 114t140 69.5t180.5 23.5q90 0 167 -20h370l-15 -128h-146q33 -43 50.5 -96.5t17.5 -119.5q0 -86 -32.5 -153.5t-91 -114t-140 -71.5t-180.5 -25q-95 0 -176 23q-17 -18 -26 -41.5t-9 -55.5q0 -9 3 -22t8 -26t11.5 -25t12.5 -19h296 q96 0 169 -22.5t121.5 -62t72 -93t21.5 -114.5q-6 -68 -45 -126t-105.5 -100t-158 -66t-203.5 -24q-57 0 -115.5 5.5t-113 18.5t-102.5 34t-83.5 52.5t-56 73.5t-20.5 98q0 76 41 138t133 108q-24 26 -42 60t-18 76q0 60 27 103t73 78q-75 47 -117 120.5t-42 172.5zM337 656 q0 -102 62 -160t186 -58t186 58t62 160q0 55 -18.5 96t-51.5 68t-78.5 40.5t-99.5 13.5t-99.5 -13.5t-78.5 -40.5t-51.5 -68t-18.5 -96zM386 -20q-26 -17 -45 -33.5t-32.5 -37t-20 -46t-6.5 -59.5q0 -30 15.5 -52t41 -37.5t57.5 -25.5t65 -15.5t64.5 -7.5t55.5 -2 q71 0 128.5 12.5t98.5 35t63 53t22 65.5q0 32 -9 59.5t-33.5 47.5t-68 31.5t-112.5 11.5h-284zM478 1325h218v-176h-218v176z" />
<glyph unicode="&#x122;" horiz-adv-x="1369" d="M130 0zM723 690h492v-622q-98 -41 -202 -64.5t-227 -23.5q-155 0 -276.5 56t-206 152t-129 223t-44.5 269q0 161 48.5 290.5t139 220.5t221 140t294.5 49q52 0 96 -5t80.5 -13t65.5 -18t52 -20l-41 -138q-46 17 -109 32.5t-144 15.5q-120 0 -214 -35.5t-159.5 -105 t-99.5 -173.5t-34 -240q0 -107 30.5 -207t89 -177t144.5 -123.5t196 -46.5q65 0 122 7t111 27v384h-296v146zM682 -102h223l-149 -398l-141 20z" />
<glyph unicode="&#x123;" horiz-adv-x="1190" d="M86 0zM141 656q0 89 32.5 157t91 114t140 69.5t180.5 23.5q90 0 167 -20h370l-15 -128h-146q33 -43 50.5 -96.5t17.5 -119.5q0 -86 -32.5 -153.5t-91 -114t-140 -71.5t-180.5 -25q-95 0 -176 23q-17 -18 -26 -41.5t-9 -55.5q0 -9 3 -22t8 -26t11.5 -25t12.5 -19h296 q96 0 169 -22.5t121.5 -62t72 -93t21.5 -114.5q-6 -68 -45 -126t-105.5 -100t-158 -66t-203.5 -24q-57 0 -115.5 5.5t-113 18.5t-102.5 34t-83.5 52.5t-56 73.5t-20.5 98q0 76 41 138t133 108q-24 26 -42 60t-18 76q0 60 27 103t73 78q-75 47 -117 120.5t-42 172.5zM337 656 q0 -102 62 -160t186 -58t186 58t62 160q0 55 -18.5 96t-51.5 68t-78.5 40.5t-99.5 13.5t-99.5 -13.5t-78.5 -40.5t-51.5 -68t-18.5 -96zM386 -20q-26 -17 -45 -33.5t-32.5 -37t-20 -46t-6.5 -59.5q0 -30 15.5 -52t41 -37.5t57.5 -25.5t65 -15.5t64.5 -7.5t55.5 -2 q71 0 128.5 12.5t98.5 35t63 53t22 65.5q0 32 -9 59.5t-33.5 47.5t-68 31.5t-112.5 11.5h-284zM693 1148h-223l176 468l141 -20z" />
<glyph unicode="&#x124;" horiz-adv-x="1410" d="M182 0zM182 1360h196v-608h659v608h196v-1360h-196v606h-659v-606h-196v1360zM582 1468h-208l298 232h123l295 -232h-205l-152 117z" />
<glyph unicode="&#x125;" horiz-adv-x="1205" d="M0 0zM175 1400h196v-491q72 53 153.5 82t178.5 29q75 0 136 -18t104 -60.5t66.5 -113t23.5 -176.5v-652h-196v652q0 119 -42 170.5t-137 51.5q-85 0 -155.5 -31t-131.5 -81v-762h-196v1400zM154 1500h-208l298 232h123l295 -232h-205l-152 117z" />
<glyph unicode="&#x126;" horiz-adv-x="1418" d="M13 1126h169v234h196v-234h659v234h196v-234h170v-146h-170v-980h-196v606h-659v-606h-196v980h-169v146zM378 752h659v228h-659v-228z" />
<glyph unicode="&#x127;" horiz-adv-x="1211" d="M-30 1256h205v144h196v-144h371v-146h-371v-201q72 53 153.5 82t178.5 29q75 0 136 -18t104 -60.5t66.5 -113t23.5 -176.5v-652h-196v652q0 119 -42 170.5t-137 51.5q-85 0 -155.5 -31t-131.5 -81v-762h-196v1110h-205v146z" />
<glyph unicode="&#x128;" horiz-adv-x="840" d="M47 0zM137 0v146h185v1068h-185v146h568v-146h-187v-1068h187v-146h-568zM571 1616q14 0 31 5.5t33.5 17.5t31.5 30t26 43l104 -80q-16 -36 -39 -64t-49 -48t-54.5 -32t-55.5 -16q-11 -2 -21.5 -3t-20.5 -1q-54 0 -97.5 23t-81.5 51q-32 23 -59.5 34.5t-44.5 9.5 q-15 -1 -29 -4.5t-28.5 -13.5t-30.5 -28t-34 -46l-105 74q15 35 38.5 63t50.5 48t55.5 33t54.5 18q18 3 34 3q56 0 101.5 -23.5t85.5 -51.5q29 -24 57 -33t47 -9z" />
<glyph unicode="&#x129;" horiz-adv-x="411" d="M0 0zM108 1000h196v-1000h-196v1000zM359 1291q14 0 31 5.5t33.5 17.5t31.5 30t26 43l104 -80q-16 -36 -39 -64t-49 -48t-54.5 -32t-55.5 -16q-11 -2 -21.5 -3t-20.5 -1q-54 0 -97.5 23t-81.5 51q-32 23 -59.5 34.5t-44.5 9.5q-15 -1 -29 -4.5t-28.5 -13.5t-30.5 -28 t-34 -46l-105 74q15 35 38.5 63t50.5 48t55.5 33t54.5 18q18 3 34 3q56 0 101.5 -23.5t85.5 -51.5q29 -24 57 -33t47 -9z" />
<glyph unicode="&#x12a;" horiz-adv-x="840" d="M33 0zM137 0v146h185v1068h-185v146h568v-146h-187v-1068h187v-146h-568zM33 1616h772v-146h-772v146z" />
<glyph unicode="&#x12b;" horiz-adv-x="411" d="M0 0zM108 1000h196v-1000h-196v1000zM-179 1292h772v-146h-772v146z" />
<glyph unicode="&#x12e;" horiz-adv-x="840" d="M137 0zM137 0v146h185v1068h-185v146h568v-146h-187v-1068h187v-146h-568zM709 0q-84 -33 -128 -81.5t-44 -114.5q0 -17 6.5 -30t17 -22.5t23 -14.5t25.5 -5q16 0 26 0.5t18 2t15.5 3.5t18.5 6l22 -112q-6 -4 -19.5 -8t-31 -7t-38 -5t-39.5 -2q-99 0 -154 47.5t-55 132.5 q0 49 16.5 90.5t44.5 74t66 55.5t80 34l130 -40v-4z" />
<glyph unicode="&#x12f;" horiz-adv-x="585" d="M58 0zM196 1000h196v-1000h-196v1000zM186 1402h215v-176h-215v176zM395 0q-84 -33 -128 -81.5t-44 -114.5q0 -17 6.5 -30t17 -22.5t23 -14.5t25.5 -5q16 0 26 0.5t18 2t15.5 3.5t18.5 6l22 -112q-6 -4 -19.5 -8t-31 -7t-38 -5t-39.5 -2q-99 0 -154 47.5t-55 132.5 q0 49 16.5 90.5t44.5 74t66 55.5t80 34l130 -40v-4z" />
<glyph unicode="&#x130;" horiz-adv-x="840" d="M137 0zM137 0v146h185v1068h-185v146h568v-146h-187v-1068h187v-146h-568zM312 1646h218v-176h-218v176z" />
<glyph unicode="&#x131;" horiz-adv-x="411" d="M108 1000h196v-1000h-196v1000z" />
<glyph unicode="&#x134;" horiz-adv-x="954" d="M85 0zM130 178q20 -10 49.5 -19t61 -16.5t62.5 -12t55 -4.5q59 0 101.5 14t69.5 45.5t39.5 80.5t12.5 120v974h196v-974q0 -118 -28.5 -196t-80.5 -124.5t-125 -66t-162 -19.5q-97 0 -171.5 18.5t-124.5 43.5zM559 1468h-208l298 232h123l295 -232h-205l-152 117z" />
<glyph unicode="&#x135;" horiz-adv-x="561" d="M0 0zM-122 -280q14 -3 33.5 -6t41 -6t43.5 -4.5t42 -1.5q41 0 70.5 11.5t48 38t27.5 70t9 108.5v1070h196v-1070q0 -112 -24 -184.5t-67.5 -114.5t-105 -58.5t-136.5 -16.5q-25 0 -52.5 1.5t-53.5 4.5t-50 8t-42 12zM177 1182h-208l298 232h123l295 -232h-205l-152 117z " />
<glyph unicode="&#x136;" horiz-adv-x="1275" d="M178 0zM581 602h-207v-602h-196v1360h196v-612h201l374 612h215l-418 -674h-2l492 -686h-225zM529 -102h223l-149 -398l-141 20z" />
<glyph unicode="&#x137;" horiz-adv-x="1074" d="M175 0zM509 442h-138v-442h-196v1400h196v-812h135l280 412h219l-335 -474h-2l369 -526h-226zM449 -102h223l-149 -398l-141 20z" />
<glyph unicode="&#x138;" horiz-adv-x="1101" d="M597 442h-226v-442h-196v1000h196v-404h228l273 404h218l-333 -474h-1l369 -526h-226z" />
<glyph unicode="&#x139;" horiz-adv-x="1036" d="M182 0zM182 1360h196v-1214h614v-146h-810v1360zM415 1780l213 -60l-285 -248l-141 40z" />
<glyph unicode="&#x13a;" horiz-adv-x="586" d="M196 0zM196 1400h196v-1400h-196v1400zM419 1840l213 -60l-285 -248l-141 40z" />
<glyph unicode="&#x13b;" horiz-adv-x="1036" d="M182 0zM182 1360h196v-1214h614v-146h-810v1360zM484 -102h223l-149 -398l-141 20z" />
<glyph unicode="&#x13c;" horiz-adv-x="586" d="M125 0zM196 1400h196v-1400h-196v1400zM192 -102h223l-149 -398l-141 20z" />
<glyph unicode="&#x13d;" horiz-adv-x="1036" d="M182 0zM182 1360h196v-1214h614v-146h-810v1360zM633 1349h223l-177 -468l-140 20z" />
<glyph unicode="&#x13e;" horiz-adv-x="586" d="M196 0zM196 1400h196v-1400h-196v1400zM637 1408h223l-177 -468l-140 20z" />
<glyph unicode="&#x141;" horiz-adv-x="1165" d="M248 540l-140 -54v170l140 54v650h196v-574l230 90v-170l-230 -90v-470h614v-146h-810v540z" />
<glyph unicode="&#x142;" horiz-adv-x="780" d="M289 556l-181 -70v170l181 70v674h196v-598l189 74v-170l-189 -74v-632h-196v556z" />
<glyph unicode="&#x143;" horiz-adv-x="1455" d="M182 0zM182 1360h196v-1l1 1l701 -1056v1056h196v-1360h-196l-702 1058v-1058h-196v1360zM844 1780l213 -60l-285 -248l-141 40z" />
<glyph unicode="&#x144;" horiz-adv-x="1205" d="M175 0zM175 1000h173l16 -95q73 54 156.5 84.5t182.5 30.5q75 0 136 -16.5t104 -57t66.5 -109.5t23.5 -175v-662h-196v662q0 59 -10.5 99.5t-32 65.5t-55.5 36t-81 11q-85 0 -155.5 -32t-131.5 -80v-762h-196v1000zM730 1460l213 -60l-285 -248l-141 40z" />
<glyph unicode="&#x145;" horiz-adv-x="1455" d="M182 0zM182 1360h196v-1l1 1l701 -1056v1056h196v-1360h-196l-702 1058v-1058h-196v1360zM605 -102h223l-149 -398l-141 20z" />
<glyph unicode="&#x146;" horiz-adv-x="1205" d="M175 0zM175 1000h173l16 -95q73 54 156.5 84.5t182.5 30.5q75 0 136 -16.5t104 -57t66.5 -109.5t23.5 -175v-662h-196v662q0 59 -10.5 99.5t-32 65.5t-55.5 36t-81 11q-85 0 -155.5 -32t-131.5 -80v-762h-196v1000zM503 -102h223l-149 -398l-141 20z" />
<glyph unicode="&#x147;" horiz-adv-x="1455" d="M182 0zM182 1360h196v-1l1 1l701 -1056v1056h196v-1360h-196l-702 1058v-1058h-196v1360zM881 1704h205l-295 -232h-123l-298 232h208l151 -129z" />
<glyph unicode="&#x148;" horiz-adv-x="1205" d="M175 0zM175 1000h173l16 -95q73 54 156.5 84.5t182.5 30.5q75 0 136 -16.5t104 -57t66.5 -109.5t23.5 -175v-662h-196v662q0 59 -10.5 99.5t-32 65.5t-55.5 36t-81 11q-85 0 -155.5 -32t-131.5 -80v-762h-196v1000zM767 1384h205l-295 -232h-123l-298 232h208l151 -129z " />
<glyph unicode="&#x14a;" horiz-adv-x="1445" d="M182 1360h196v-1l1 1l701 -1056v1056h196v-1374q0 -118 -28.5 -196t-80.5 -124.5t-125 -66t-162 -19.5q-97 0 -171.5 18.5t-124.5 43.5l45 136q20 -10 49.5 -19t61 -16.5t62.5 -12t55 -4.5q59 0 101.5 14t69.5 45.5t39.5 80.5t12.5 120v14l-702 1058v-1058h-196v1360z " />
<glyph unicode="&#x14b;" horiz-adv-x="1190" d="M175 1000h173l16 -95q73 54 156.5 84.5t182.5 30.5q75 0 136 -16.5t104 -57t66.5 -109.5t23.5 -175v-676q0 -118 -28.5 -195.5t-80 -123.5t-124.5 -64.5t-162 -18.5q-100 0 -177 16.5t-131 45.5l58 136q20 -10 49 -19t60.5 -16.5t63 -12t56.5 -4.5q58 0 99.5 13.5 t68.5 44t39.5 79t12.5 119.5v676q0 59 -10.5 99.5t-32 65.5t-55.5 36t-81 11q-85 0 -155.5 -32t-131.5 -80v-762h-196v1000z" />
<glyph unicode="&#x14c;" horiz-adv-x="1408" d="M111 0zM111 680q0 161 43.5 290.5t121.5 220.5t187 140t240 49q130 0 239.5 -49t188 -140t122.5 -220.5t44 -290.5q0 -162 -44 -291.5t-122.5 -220.5t-188 -139.5t-239.5 -48.5q-131 0 -240 48.5t-187 139.5t-121.5 220.5t-43.5 291.5zM307 680q0 -139 29 -243t81.5 -173 t125.5 -103.5t160 -34.5q88 0 161.5 34.5t126 103.5t81.5 173t29 243t-29 243t-81.5 173t-126 103.5t-161.5 34.5q-87 0 -160 -34.5t-125.5 -103.5t-81.5 -173t-29 -243zM310 1634h772v-146h-772v146z" />
<glyph unicode="&#x14d;" horiz-adv-x="1190" d="M113 0zM113 500q0 121 35 217t98.5 163.5t152.5 103.5t198 36q108 0 198 -36t154 -103.5t99.5 -163.5t35.5 -217q0 -122 -35.5 -218t-99.5 -163.5t-154 -103t-198 -35.5q-109 0 -198 35.5t-152.5 103t-98.5 163.5t-35 218zM309 500q0 -98 21 -169t59 -116.5t91 -67 t117 -21.5t117.5 21.5t92 67t60 116.5t21.5 169t-21.5 169t-60 116.5t-92 67t-117.5 21.5t-117 -21.5t-91 -67t-59 -116.5t-21 -169zM204 1295h772v-146h-772v146z" />
<glyph unicode="&#x150;" horiz-adv-x="1408" d="M111 0zM111 680q0 161 43.5 290.5t121.5 220.5t187 140t240 49q130 0 239.5 -49t188 -140t122.5 -220.5t44 -290.5q0 -162 -44 -291.5t-122.5 -220.5t-188 -139.5t-239.5 -48.5q-131 0 -240 48.5t-187 139.5t-121.5 220.5t-43.5 291.5zM307 680q0 -139 29 -243t81.5 -173 t125.5 -103.5t160 -34.5q88 0 161.5 34.5t126 103.5t81.5 173t29 243t-29 243t-81.5 173t-126 103.5t-161.5 34.5q-87 0 -160 -34.5t-125.5 -103.5t-81.5 -173t-29 -243zM666 1818l195 -60l-308 -268l-126 40zM1083 1818l214 -60l-373 -268l-143 40z" />
<glyph unicode="&#x151;" horiz-adv-x="1190" d="M113 0zM113 500q0 121 35 217t98.5 163.5t152.5 103.5t198 36q108 0 198 -36t154 -103.5t99.5 -163.5t35.5 -217q0 -122 -35.5 -218t-99.5 -163.5t-154 -103t-198 -35.5q-109 0 -198 35.5t-152.5 103t-98.5 163.5t-35 218zM309 500q0 -98 21 -169t59 -116.5t91 -67 t117 -21.5t117.5 21.5t92 67t60 116.5t21.5 169t-21.5 169t-60 116.5t-92 67t-117.5 21.5t-117 -21.5t-91 -67t-59 -116.5t-21 -169zM560 1478l195 -60l-308 -268l-126 40zM977 1478l214 -60l-373 -268l-143 40z" />
<glyph unicode="&#x152;" horiz-adv-x="1769" d="M872 0q-14 -2 -33.5 -3t-45.5 -1q-160 0 -287 48t-215.5 136.5t-135.5 215t-47 284.5q0 157 47 283t135.5 214.5t215.5 136.5t287 48h32.5t32.5 -2h801v-146h-605v-444h540v-146h-540v-478h605v-146h-787zM793 142q34 0 65 7v1060q-16 3 -31.5 5t-33.5 2 q-115 0 -206 -37.5t-154 -107.5t-96 -169t-33 -222t33 -222.5t96 -169.5t154 -108t206 -38z" />
<glyph unicode="&#x153;" horiz-adv-x="1895" d="M121 500q0 121 35 217t98.5 163.5t152.5 103.5t198 36q125 0 224 -47t163 -135q62 89 157.5 135.5t220.5 46.5q88 0 165 -27t134 -78t90 -125t33 -168v-146h-698q4 -167 84.5 -258.5t232.5 -91.5q51 0 93.5 5.5t77.5 13.5t63 18t51 19l47 -128q-62 -35 -148 -54.5 t-184 -19.5q-143 0 -248.5 46.5t-170.5 134.5q-64 -88 -163 -134.5t-224 -46.5q-109 0 -198 35.5t-152.5 103t-98.5 163.5t-35 218zM317 500q0 -98 21 -169t59 -116.5t91 -67t117 -21.5t117.5 21.5t92 67t60 116.5t21.5 169t-21.5 169t-60 116.5t-92 67t-117.5 21.5 t-117 -21.5t-91 -67t-59 -116.5t-21 -169zM1370 874q-54 0 -98.5 -12t-79 -41.5t-57.5 -78t-33 -120.5h494q0 69 -19 117t-50.5 78t-72 43.5t-84.5 13.5z" />
<glyph unicode="&#x154;" horiz-adv-x="1258" d="M183 0zM183 1360h440q115 0 204 -26.5t150.5 -76t93.5 -121t32 -162.5q0 -56 -18 -107t-48 -96t-70 -82.5t-84 -64.5l288 -624h-205l-266 584h-321v-584h-196v1360zM379 1214v-484h407q22 18 43.5 39t38.5 49.5t28 66.5t11 89q0 66 -20.5 111.5t-59.5 74t-95.5 41.5 t-128.5 13h-224zM746 1780l213 -60l-285 -248l-141 40z" />
<glyph unicode="&#x155;" horiz-adv-x="762" d="M175 0zM175 1000h173l16 -140q60 88 128 124t146 36q20 0 42.5 -1t42.5 -3l-18 -170q-26 5 -52 6.5t-58 1.5q-67 0 -122 -40t-102 -103v-711h-196v1000zM505 1460l213 -60l-285 -248l-141 40z" />
<glyph unicode="&#x156;" horiz-adv-x="1258" d="M183 0zM183 1360h440q115 0 204 -26.5t150.5 -76t93.5 -121t32 -162.5q0 -56 -18 -107t-48 -96t-70 -82.5t-84 -64.5l288 -624h-205l-266 584h-321v-584h-196v1360zM379 1214v-484h407q22 18 43.5 39t38.5 49.5t28 66.5t11 89q0 66 -20.5 111.5t-59.5 74t-95.5 41.5 t-128.5 13h-224zM543 -102h223l-149 -398l-141 20z" />
<glyph unicode="&#x157;" horiz-adv-x="762" d="M98 0zM175 1000h173l16 -140q60 88 128 124t146 36q20 0 42.5 -1t42.5 -3l-18 -170q-26 5 -52 6.5t-58 1.5q-67 0 -122 -40t-102 -103v-711h-196v1000zM165 -98h223l-149 -398l-141 20z" />
<glyph unicode="&#x158;" horiz-adv-x="1258" d="M183 0zM183 1360h440q115 0 204 -26.5t150.5 -76t93.5 -121t32 -162.5q0 -56 -18 -107t-48 -96t-70 -82.5t-84 -64.5l288 -624h-205l-266 584h-321v-584h-196v1360zM379 1214v-484h407q22 18 43.5 39t38.5 49.5t28 66.5t11 89q0 66 -20.5 111.5t-59.5 74t-95.5 41.5 t-128.5 13h-224zM783 1704h205l-295 -232h-123l-298 232h208l151 -129z" />
<glyph unicode="&#x159;" horiz-adv-x="762" d="M32 0zM175 1000h173l16 -140q60 88 128 124t146 36q20 0 42.5 -1t42.5 -3l-18 -170q-26 5 -52 6.5t-58 1.5q-67 0 -122 -40t-102 -103v-711h-196v1000zM543 1384h205l-295 -232h-123l-298 232h208l151 -129z" />
<glyph unicode="&#x15a;" horiz-adv-x="1105" d="M111 0zM1002 358q0 -86 -32.5 -155.5t-92.5 -119t-145 -76.5t-190 -27q-59 0 -119.5 5.5t-117 15.5t-106 24.5t-84.5 32.5l49 144q42 -15 85 -29t88.5 -24.5t95.5 -16.5t107 -6q62 0 111 15.5t83.5 45t53 71t18.5 94.5q0 49 -22 87t-63 68.5t-99 55t-129 45.5 q-80 24 -150 60t-121.5 85t-81 110.5t-29.5 136.5q0 86 32.5 156.5t91.5 120t143 76.5t188 27q63 0 121 -8t108 -20t91 -26t70 -26l-43 -150q-41 15 -79 30t-78.5 27t-85.5 19.5t-100 7.5q-65 0 -114.5 -16.5t-82.5 -46.5t-49.5 -71t-16.5 -90q0 -83 66 -144.5t215 -107.5 q103 -33 181 -72t129.5 -87.5t77.5 -108t26 -132.5zM692 1796l213 -60l-285 -248l-141 40z" />
<glyph unicode="&#x15b;" horiz-adv-x="972" d="M108 0zM864 278q0 -68 -26.5 -123t-76 -94t-120.5 -60t-160 -21q-53 0 -106 5.5t-101.5 15.5t-91 24.5t-74.5 32.5l37 140q40 -15 76.5 -28t75.5 -23t83 -15.5t99 -5.5q100 0 144.5 38.5t44.5 107.5q0 31 -16 55.5t-45.5 44.5t-71.5 36t-94 30q-69 18 -128 45t-102 63 t-67.5 82t-24.5 102q0 68 26.5 122t77 91.5t122.5 57t162 19.5q109 0 193 -20t133 -44l-36 -137q-36 11 -67 21t-63.5 17.5t-70 12t-85.5 4.5q-100 0 -148 -36t-48 -98q0 -30 10.5 -54t34 -44t62 -36.5t95.5 -31.5q89 -23 154.5 -52t108 -65t63.5 -80t21 -99zM613 1460 l213 -60l-285 -248l-141 40z" />
<glyph unicode="&#x15c;" horiz-adv-x="1105" d="M111 0zM1002 358q0 -86 -32.5 -155.5t-92.5 -119t-145 -76.5t-190 -27q-59 0 -119.5 5.5t-117 15.5t-106 24.5t-84.5 32.5l49 144q42 -15 85 -29t88.5 -24.5t95.5 -16.5t107 -6q62 0 111 15.5t83.5 45t53 71t18.5 94.5q0 49 -22 87t-63 68.5t-99 55t-129 45.5 q-80 24 -150 60t-121.5 85t-81 110.5t-29.5 136.5q0 86 32.5 156.5t91.5 120t143 76.5t188 27q63 0 121 -8t108 -20t91 -26t70 -26l-43 -150q-41 15 -79 30t-78.5 27t-85.5 19.5t-100 7.5q-65 0 -114.5 -16.5t-82.5 -46.5t-49.5 -71t-16.5 -90q0 -83 66 -144.5t215 -107.5 q103 -33 181 -72t129.5 -87.5t77.5 -108t26 -132.5zM438 1486h-208l298 232h123l295 -232h-205l-152 117z" />
<glyph unicode="&#x15d;" horiz-adv-x="972" d="M108 0zM864 278q0 -68 -26.5 -123t-76 -94t-120.5 -60t-160 -21q-53 0 -106 5.5t-101.5 15.5t-91 24.5t-74.5 32.5l37 140q40 -15 76.5 -28t75.5 -23t83 -15.5t99 -5.5q100 0 144.5 38.5t44.5 107.5q0 31 -16 55.5t-45.5 44.5t-71.5 36t-94 30q-69 18 -128 45t-102 63 t-67.5 82t-24.5 102q0 68 26.5 122t77 91.5t122.5 57t162 19.5q109 0 193 -20t133 -44l-36 -137q-36 11 -67 21t-63.5 17.5t-70 12t-85.5 4.5q-100 0 -148 -36t-48 -98q0 -30 10.5 -54t34 -44t62 -36.5t95.5 -31.5q89 -23 154.5 -52t108 -65t63.5 -80t21 -99zM359 1150h-208 l298 232h123l295 -232h-205l-152 117z" />
<glyph unicode="&#x15e;" horiz-adv-x="1105" d="M111 0zM1002 358q0 -86 -32.5 -155.5t-92.5 -119t-145 -76.5t-190 -27q-59 0 -119.5 5.5t-117 15.5t-106 24.5t-84.5 32.5l49 144q42 -15 85 -29t88.5 -24.5t95.5 -16.5t107 -6q62 0 111 15.5t83.5 45t53 71t18.5 94.5q0 49 -22 87t-63 68.5t-99 55t-129 45.5 q-80 24 -150 60t-121.5 85t-81 110.5t-29.5 136.5q0 86 32.5 156.5t91.5 120t143 76.5t188 27q63 0 121 -8t108 -20t91 -26t70 -26l-43 -150q-41 15 -79 30t-78.5 27t-85.5 19.5t-100 7.5q-65 0 -114.5 -16.5t-82.5 -46.5t-49.5 -71t-16.5 -90q0 -83 66 -144.5t215 -107.5 q103 -33 181 -72t129.5 -87.5t77.5 -108t26 -132.5zM674 1q35 -66 35 -136q0 -53 -22 -101t-65.5 -84t-108.5 -57.5t-152 -21.5l-35 110q107 11 158.5 53t51.5 105q0 59 -44 132h182z" />
<glyph unicode="&#x15f;" horiz-adv-x="972" d="M108 0zM864 278q0 -68 -26.5 -123t-76 -94t-120.5 -60t-160 -21q-53 0 -106 5.5t-101.5 15.5t-91 24.5t-74.5 32.5l37 140q40 -15 76.5 -28t75.5 -23t83 -15.5t99 -5.5q100 0 144.5 38.5t44.5 107.5q0 31 -16 55.5t-45.5 44.5t-71.5 36t-94 30q-69 18 -128 45t-102 63 t-67.5 82t-24.5 102q0 68 26.5 122t77 91.5t122.5 57t162 19.5q109 0 193 -20t133 -44l-36 -137q-36 11 -67 21t-63.5 17.5t-70 12t-85.5 4.5q-100 0 -148 -36t-48 -98q0 -30 10.5 -54t34 -44t62 -36.5t95.5 -31.5q89 -23 154.5 -52t108 -65t63.5 -80t21 -99zM595 20 q35 -66 35 -136q0 -53 -22 -101t-65.5 -84t-108.5 -57.5t-152 -21.5l-35 110q107 11 158.5 53t51.5 105q0 59 -44 132h182z" />
<glyph unicode="&#x160;" horiz-adv-x="1105" d="M111 0zM1002 358q0 -86 -32.5 -155.5t-92.5 -119t-145 -76.5t-190 -27q-59 0 -119.5 5.5t-117 15.5t-106 24.5t-84.5 32.5l49 144q42 -15 85 -29t88.5 -24.5t95.5 -16.5t107 -6q62 0 111 15.5t83.5 45t53 71t18.5 94.5q0 49 -22 87t-63 68.5t-99 55t-129 45.5 q-80 24 -150 60t-121.5 85t-81 110.5t-29.5 136.5q0 86 32.5 156.5t91.5 120t143 76.5t188 27q63 0 121 -8t108 -20t91 -26t70 -26l-43 -150q-41 15 -79 30t-78.5 27t-85.5 19.5t-100 7.5q-65 0 -114.5 -16.5t-82.5 -46.5t-49.5 -71t-16.5 -90q0 -83 66 -144.5t215 -107.5 q103 -33 181 -72t129.5 -87.5t77.5 -108t26 -132.5zM729 1720h205l-295 -232h-123l-298 232h208l151 -129z" />
<glyph unicode="&#x161;" horiz-adv-x="972" d="M108 0zM864 278q0 -68 -26.5 -123t-76 -94t-120.5 -60t-160 -21q-53 0 -106 5.5t-101.5 15.5t-91 24.5t-74.5 32.5l37 140q40 -15 76.5 -28t75.5 -23t83 -15.5t99 -5.5q100 0 144.5 38.5t44.5 107.5q0 31 -16 55.5t-45.5 44.5t-71.5 36t-94 30q-69 18 -128 45t-102 63 t-67.5 82t-24.5 102q0 68 26.5 122t77 91.5t122.5 57t162 19.5q109 0 193 -20t133 -44l-36 -137q-36 11 -67 21t-63.5 17.5t-70 12t-85.5 4.5q-100 0 -148 -36t-48 -98q0 -30 10.5 -54t34 -44t62 -36.5t95.5 -31.5q89 -23 154.5 -52t108 -65t63.5 -80t21 -99zM650 1384h205 l-295 -232h-123l-298 232h208l151 -129z" />
<glyph unicode="&#x162;" horiz-adv-x="1188" d="M72 0zM693 1214v-1214h-196v1214h-425v146h1048v-146h-427zM494 -102h223l-149 -398l-141 20z" />
<glyph unicode="&#x163;" horiz-adv-x="813" d="M57 0zM81 1000h143v260l196 20v-280h295v-146h-295v-534q0 -50 8 -85t25.5 -56.5t45 -31t65.5 -9.5q24 0 49.5 2t50 5t46 6.5t36.5 6.5l6 -136q-19 -6 -43.5 -11.5t-52 -9.5t-56.5 -6.5t-56 -2.5q-75 0 -134 14t-100.5 50.5t-63.5 100t-22 163.5v534h-167zM433 -102h223 l-149 -398l-141 20z" />
<glyph unicode="&#x164;" horiz-adv-x="1188" d="M72 0zM693 1214v-1214h-196v1214h-425v146h1048v-146h-427zM758 1704h205l-295 -232h-123l-298 232h208l151 -129z" />
<glyph unicode="&#x165;" horiz-adv-x="813" d="M57 0zM81 1000h143v260l196 20v-280h295v-146h-295v-534q0 -50 8 -85t25.5 -56.5t45 -31t65.5 -9.5q24 0 49.5 2t50 5t46 6.5t36.5 6.5l6 -136q-19 -6 -43.5 -11.5t-52 -9.5t-56.5 -6.5t-56 -2.5q-75 0 -134 14t-100.5 50.5t-63.5 100t-22 163.5v534h-167zM901 1307h223 l-177 -468l-140 20z" />
<glyph unicode="&#x166;" horiz-adv-x="1190" d="M693 1214v-213h438v-146h-438v-855h-196v855h-447v146h447v213h-425v146h1048v-146h-427z" />
<glyph unicode="&#x167;" horiz-adv-x="848" d="M81 1000h143v260l196 20v-280h295v-146h-295v-148h292v-146h-292v-240q0 -50 8 -85t25.5 -56.5t45 -31t65.5 -9.5q24 0 49.5 2t50 5t46 6.5t36.5 6.5l6 -136q-19 -6 -43.5 -11.5t-52 -9.5t-56.5 -6.5t-56 -2.5q-75 0 -134 14t-100.5 50.5t-63.5 100t-22 163.5v240h-168 v146h168v148h-167z" />
<glyph unicode="&#x168;" horiz-adv-x="1421" d="M183 0zM1047 1360h196v-948q0 -104 -38.5 -184t-108.5 -135.5t-168 -84t-217 -28.5q-118 0 -215 28.5t-166.5 84t-108 135.5t-38.5 184v948h196v-948q0 -69 24.5 -122.5t68.5 -89.5t105 -55t134 -19q75 0 137 19t106 55t68.5 89.5t24.5 122.5v948zM859 1616q14 0 31 5.5 t33.5 17.5t31.5 30t26 43l104 -80q-16 -36 -39 -64t-49 -48t-54.5 -32t-55.5 -16q-11 -2 -21.5 -3t-20.5 -1q-54 0 -97.5 23t-81.5 51q-32 23 -59.5 34.5t-44.5 9.5q-15 -1 -29 -4.5t-28.5 -13.5t-30.5 -28t-34 -46l-105 74q15 35 38.5 63t50.5 48t55.5 33t54.5 18 q18 3 34 3q56 0 101.5 -23.5t85.5 -51.5q29 -24 57 -33t47 -9z" />
<glyph unicode="&#x169;" horiz-adv-x="1205" d="M175 0zM1033 0h-173l-17 127q-72 -69 -155.5 -108t-180.5 -39q-76 0 -137 18t-104.5 63t-67 122t-23.5 195v622h196v-622q0 -71 10.5 -119t32.5 -77.5t55.5 -42.5t80.5 -13q85 0 156 31.5t131 81.5v761h196v-1000zM751 1276q14 0 31 5.5t33.5 17.5t31.5 30t26 43l104 -80 q-16 -36 -39 -64t-49 -48t-54.5 -32t-55.5 -16q-11 -2 -21.5 -3t-20.5 -1q-54 0 -97.5 23t-81.5 51q-32 23 -59.5 34.5t-44.5 9.5q-15 -1 -29 -4.5t-28.5 -13.5t-30.5 -28t-34 -46l-105 74q15 35 38.5 63t50.5 48t55.5 33t54.5 18q18 3 34 3q56 0 101.5 -23.5t85.5 -51.5 q29 -24 57 -33t47 -9z" />
<glyph unicode="&#x16a;" horiz-adv-x="1421" d="M183 0zM1047 1360h196v-948q0 -104 -38.5 -184t-108.5 -135.5t-168 -84t-217 -28.5q-118 0 -215 28.5t-166.5 84t-108 135.5t-38.5 184v948h196v-948q0 -69 24.5 -122.5t68.5 -89.5t105 -55t134 -19q75 0 137 19t106 55t68.5 89.5t24.5 122.5v948zM321 1616h772v-146 h-772v146z" />
<glyph unicode="&#x16b;" horiz-adv-x="1205" d="M175 0zM1033 0h-173l-17 127q-72 -69 -155.5 -108t-180.5 -39q-76 0 -137 18t-104.5 63t-67 122t-23.5 195v622h196v-622q0 -71 10.5 -119t32.5 -77.5t55.5 -42.5t80.5 -13q85 0 156 31.5t131 81.5v761h196v-1000zM213 1277h772v-146h-772v146z" />
<glyph unicode="&#x16c;" horiz-adv-x="1421" d="M183 0zM1047 1360h196v-948q0 -104 -38.5 -184t-108.5 -135.5t-168 -84t-217 -28.5q-118 0 -215 28.5t-166.5 84t-108 135.5t-38.5 184v948h196v-948q0 -69 24.5 -122.5t68.5 -89.5t105 -55t134 -19q75 0 137 19t106 55t68.5 89.5t24.5 122.5v948zM710 1466 q-76 -1 -139 14.5t-108.5 46t-70.5 76t-25 105.5h154q0 -62 48 -99t141 -37q97 0 144.5 37t47.5 99h153q0 -60 -25 -105.5t-71 -76t-109.5 -46t-139.5 -14.5z" />
<glyph unicode="&#x16d;" horiz-adv-x="1205" d="M175 0zM1033 0h-173l-17 127q-72 -69 -155.5 -108t-180.5 -39q-76 0 -137 18t-104.5 63t-67 122t-23.5 195v622h196v-622q0 -71 10.5 -119t32.5 -77.5t55.5 -42.5t80.5 -13q85 0 156 31.5t131 81.5v761h196v-1000zM602 1127q-76 -1 -139 14.5t-108.5 46t-70.5 76 t-25 105.5h154q0 -62 48 -99t141 -37q97 0 144.5 37t47.5 99h153q0 -60 -25 -105.5t-71 -76t-109.5 -46t-139.5 -14.5z" />
<glyph unicode="&#x16e;" horiz-adv-x="1421" d="M183 0zM1047 1360h196v-948q0 -104 -38.5 -184t-108.5 -135.5t-168 -84t-217 -28.5q-118 0 -215 28.5t-166.5 84t-108 135.5t-38.5 184v948h196v-948q0 -69 24.5 -122.5t68.5 -89.5t105 -55t134 -19q75 0 137 19t106 55t68.5 89.5t24.5 122.5v948zM709 1858 q44 0 82.5 -15.5t67.5 -42t45.5 -61.5t16.5 -75q0 -41 -16.5 -76t-45.5 -61.5t-67.5 -41.5t-82.5 -15t-82.5 15t-67 41.5t-45.5 61.5t-17 76q0 40 17 75t45.5 61.5t67 42t82.5 15.5zM709 1586q37 0 61 23t24 55q0 33 -24 55.5t-61 22.5q-34 0 -59.5 -22.5t-25.5 -55.5 q0 -32 25.5 -55t59.5 -23z" />
<glyph unicode="&#x16f;" horiz-adv-x="1205" d="M175 0zM1033 0h-173l-17 127q-72 -69 -155.5 -108t-180.5 -39q-76 0 -137 18t-104.5 63t-67 122t-23.5 195v622h196v-622q0 -71 10.5 -119t32.5 -77.5t55.5 -42.5t80.5 -13q85 0 156 31.5t131 81.5v761h196v-1000zM601 1519q44 0 82.5 -15.5t67.5 -42t45.5 -61.5 t16.5 -75q0 -41 -16.5 -76t-45.5 -61.5t-67.5 -41.5t-82.5 -15t-82.5 15t-67 41.5t-45.5 61.5t-17 76q0 40 17 75t45.5 61.5t67 42t82.5 15.5zM601 1247q37 0 61 23t24 55q0 33 -24 55.5t-61 22.5q-34 0 -59.5 -22.5t-25.5 -55.5q0 -32 25.5 -55t59.5 -23z" />
<glyph unicode="&#x170;" horiz-adv-x="1421" d="M183 0zM1047 1360h196v-948q0 -104 -38.5 -184t-108.5 -135.5t-168 -84t-217 -28.5q-118 0 -215 28.5t-166.5 84t-108 135.5t-38.5 184v948h196v-948q0 -69 24.5 -122.5t68.5 -89.5t105 -55t134 -19q75 0 137 19t106 55t68.5 89.5t24.5 122.5v948zM677 1800l195 -60 l-308 -268l-126 40zM1094 1800l214 -60l-373 -268l-143 40z" />
<glyph unicode="&#x171;" horiz-adv-x="1205" d="M175 0zM1033 0h-173l-17 127q-72 -69 -155.5 -108t-180.5 -39q-76 0 -137 18t-104.5 63t-67 122t-23.5 195v622h196v-622q0 -71 10.5 -119t32.5 -77.5t55.5 -42.5t80.5 -13q85 0 156 31.5t131 81.5v761h196v-1000zM569 1460l195 -60l-308 -268l-126 40zM986 1460l214 -60 l-373 -268l-143 40z" />
<glyph unicode="&#x172;" horiz-adv-x="1421" d="M183 0zM1047 1360h196v-948q0 -104 -38.5 -184t-108.5 -135.5t-168 -84t-217 -28.5q-118 0 -215 28.5t-166.5 84t-108 135.5t-38.5 184v948h196v-948q0 -69 24.5 -122.5t68.5 -89.5t105 -55t134 -19q75 0 137 19t106 55t68.5 89.5t24.5 122.5v948zM902 0 q-84 -33 -128 -81.5t-44 -114.5q0 -17 6.5 -30t17 -22.5t23 -14.5t25.5 -5q16 0 26 0.5t18 2t15.5 3.5t18.5 6l22 -112q-6 -4 -19.5 -8t-31 -7t-38 -5t-39.5 -2q-99 0 -154 47.5t-55 132.5q0 49 16.5 90.5t44.5 74t66 55.5t80 34l130 -40v-4z" />
<glyph unicode="&#x173;" horiz-adv-x="1205" d="M175 0zM1033 0h-173l-17 127q-72 -69 -155.5 -108t-180.5 -39q-76 0 -137 18t-104.5 63t-67 122t-23.5 195v622h196v-622q0 -71 10.5 -119t32.5 -77.5t55.5 -42.5t80.5 -13q85 0 156 31.5t131 81.5v761h196v-1000zM1037 0q-84 -33 -128 -81.5t-44 -114.5q0 -17 6.5 -30 t17 -22.5t23 -14.5t25.5 -5q16 0 26 0.5t18 2t15.5 3.5t18.5 6l22 -112q-6 -4 -19.5 -8t-31 -7t-38 -5t-39.5 -2q-99 0 -154 47.5t-55 132.5q0 49 16.5 90.5t44.5 74t66 55.5t80 34l130 -40v-4z" />
<glyph unicode="&#x178;" d="M72 0zM593 674l322 686h201l-427 -875v-485h-196v491l-421 869h201zM266 1646h216v-176h-216v176zM753 1646h218v-176h-218v176z" />
<glyph unicode="&#x179;" horiz-adv-x="1243" d="M137 0zM143 1360h943v-110l-726 -1104h794l-43 -146h-974v126l703 1088h-697v146zM719 1780l213 -60l-285 -248l-141 40z" />
<glyph unicode="&#x17a;" horiz-adv-x="1036" d="M108 0zM117 1000h782v-120l-565 -734h619l-42 -146h-803v136l542 718h-533v146zM658 1440l213 -60l-285 -248l-141 40z" />
<glyph unicode="&#x17b;" horiz-adv-x="1243" d="M137 0zM143 1360h943v-110l-726 -1104h794l-43 -146h-974v126l703 1088h-697v146zM482 1646h218v-176h-218v176z" />
<glyph unicode="&#x17c;" horiz-adv-x="1036" d="M108 0zM117 1000h782v-120l-565 -734h619l-42 -146h-803v136l542 718h-533v146zM421 1307h218v-176h-218v176z" />
<glyph unicode="&#x17d;" horiz-adv-x="1243" d="M137 0zM143 1360h943v-110l-726 -1104h794l-43 -146h-974v126l703 1088h-697v146zM756 1704h205l-295 -232h-123l-298 232h208l151 -129z" />
<glyph unicode="&#x17e;" horiz-adv-x="1036" d="M108 0zM117 1000h782v-120l-565 -734h619l-42 -146h-803v136l542 718h-533v146zM695 1365h205l-295 -232h-123l-298 232h208l151 -129z" />
<glyph unicode="&#x192;" horiz-adv-x="773" d="M94 1000h134v62q0 106 24 175t69.5 109.5t111 57t148.5 16.5q25 0 52 -2.5t53 -6.5t50 -9.5t43 -11.5l-7 -136q-15 4 -35.5 7.5t-43 6.5t-46.5 4.5t-46 1.5q-47 0 -80 -11t-55 -36.5t-32 -66t-10 -98.5v-62h291v-134h-291v-988q0 -82 -22 -138.5t-63 -91.5t-99 -50.5 t-129 -15.5q-50 0 -95.5 8t-83.5 22l21 136q28 -8 65.5 -14t79.5 -6q71 0 100.5 31.5t29.5 108.5v998h-153z" />
<glyph unicode="&#x237;" horiz-adv-x="561" d="M-122 -280q14 -3 33.5 -6t41 -6t43.5 -4.5t42 -1.5q41 0 70.5 11.5t48 38t27.5 70t9 108.5v1070h196v-1070q0 -112 -24 -184.5t-67.5 -114.5t-105 -58.5t-136.5 -16.5q-25 0 -52.5 1.5t-53.5 4.5t-50 8t-42 12z" />
<glyph unicode="&#x2c6;" horiz-adv-x="846" d="M296 1148h-208l298 232h123l295 -232h-205l-152 117z" />
<glyph unicode="&#x2c7;" horiz-adv-x="846" d="M599 1380h205l-295 -232h-123l-298 232h208l151 -129z" />
<glyph unicode="&#x2d8;" horiz-adv-x="800" d="M411 1138q-76 -1 -139 14.5t-108.5 46t-70.5 76t-25 105.5h154q0 -62 48 -99t141 -37q97 0 144.5 37t47.5 99h153q0 -60 -25 -105.5t-71 -76t-109.5 -46t-139.5 -14.5z" />
<glyph unicode="&#x2d9;" horiz-adv-x="432" d="M108 1402h218v-176h-218v176z" />
<glyph unicode="&#x2da;" horiz-adv-x="638" d="M320 1616q44 0 82.5 -15.5t67.5 -42t45.5 -61.5t16.5 -75q0 -41 -16.5 -76t-45.5 -61.5t-67.5 -41.5t-82.5 -15t-82.5 15t-67 41.5t-45.5 61.5t-17 76q0 40 17 75t45.5 61.5t67 42t82.5 15.5zM320 1344q37 0 61 23t24 55q0 33 -24 55.5t-61 22.5q-34 0 -59.5 -22.5 t-25.5 -55.5q0 -32 25.5 -55t59.5 -23z" />
<glyph unicode="&#x2db;" horiz-adv-x="536" d="M437 0q-84 -33 -128 -81.5t-44 -114.5q0 -17 6.5 -30t17 -22.5t23 -14.5t25.5 -5q16 0 26 0.5t18 2t15.5 3.5t18.5 6l22 -112q-6 -4 -19.5 -8t-31 -7t-38 -5t-39.5 -2q-99 0 -154 47.5t-55 132.5q0 49 16.5 90.5t44.5 74t66 55.5t80 34l130 -40v-4z" />
<glyph unicode="&#x2dc;" horiz-adv-x="964" d="M632 1272q14 0 31 5.5t33.5 17.5t31.5 30t26 43l104 -80q-16 -36 -39 -64t-49 -48t-54.5 -32t-55.5 -16q-11 -2 -21.5 -3t-20.5 -1q-54 0 -97.5 23t-81.5 51q-32 23 -59.5 34.5t-44.5 9.5q-15 -1 -29 -4.5t-28.5 -13.5t-30.5 -28t-34 -46l-105 74q15 35 38.5 63t50.5 48 t55.5 33t54.5 18q18 3 34 3q56 0 101.5 -23.5t85.5 -51.5q29 -24 57 -33t47 -9z" />
<glyph unicode="&#x2dd;" horiz-adv-x="1121" d="M386 1440l195 -60l-308 -268l-126 40zM803 1440l214 -60l-373 -268l-143 40z" />
<glyph unicode="&#x3bc;" horiz-adv-x="1209" d="M379 298q1 -48 14 -81t38.5 -53t64.5 -29t92 -9q73 0 136 28t120 75v771h196v-1000h-176l-13 108q-63 -60 -135.5 -94t-153.5 -34q-54 0 -100 8t-83 26v-414h-196v1400h196v-702z" />
<glyph unicode="&#x3c0;" horiz-adv-x="1318" d="M1031 856v-540q0 -42 11 -77t34 -60t58.5 -38.5t85.5 -12.5l-8 -146q-8 -1 -16.5 -1h-16.5q-169 0 -256.5 85t-87.5 246v544h-326v-856h-196v856h-239v146h1182v-146h-225z" />
<glyph unicode="&#x2000;" horiz-adv-x="930" />
<glyph unicode="&#x2001;" horiz-adv-x="1860" />
<glyph unicode="&#x2002;" horiz-adv-x="930" />
<glyph unicode="&#x2003;" horiz-adv-x="1860" />
<glyph unicode="&#x2004;" horiz-adv-x="620" />
<glyph unicode="&#x2005;" horiz-adv-x="465" />
<glyph unicode="&#x2006;" horiz-adv-x="310" />
<glyph unicode="&#x2007;" horiz-adv-x="310" />
<glyph unicode="&#x2008;" horiz-adv-x="232" />
<glyph unicode="&#x2009;" horiz-adv-x="372" />
<glyph unicode="&#x200a;" horiz-adv-x="103" />
<glyph unicode="&#x2010;" horiz-adv-x="780" d="M108 606v166h566v-166h-566z" />
<glyph unicode="&#x2011;" horiz-adv-x="780" d="M108 606v166h566v-166h-566z" />
<glyph unicode="&#x2012;" horiz-adv-x="780" d="M108 606v166h566v-166h-566z" />
<glyph unicode="&#x2013;" horiz-adv-x="1042" d="M34 586v146h981v-146h-981z" />
<glyph unicode="&#x2014;" horiz-adv-x="1762" d="M88 586v146h1595v-146h-1595z" />
<glyph unicode="&#x2018;" horiz-adv-x="489" d="M311 934h-223l176 468l141 -20z" />
<glyph unicode="&#x2019;" horiz-adv-x="489" d="M182 1402h223l-177 -468l-140 20z" />
<glyph unicode="&#x201a;" horiz-adv-x="585" d="M124 0zM196 176h225l-155 -468l-142 20z" />
<glyph unicode="&#x201c;" horiz-adv-x="807" d="M84 934zM307.011 934.086h-222.986l176.989 467.971l139.992 -19.998zM625.011 934.086h-222.986l176.989 467.971l139.992 -19.998z" />
<glyph unicode="&#x201d;" horiz-adv-x="807" d="M88 934zM182 1402h223l-177 -468l-140 20zM499 1402h223l-177 -468l-140 20z" />
<glyph unicode="&#x201e;" horiz-adv-x="876" d="M124 0zM196 176h225l-155 -468l-142 20zM528 176h225l-155 -468l-142 20z" />
<glyph unicode="&#x2020;" horiz-adv-x="1109" d="M642 854v-854h-196v854h-338v146h338v360h196v-360h361v-146h-361z" />
<glyph unicode="&#x2021;" horiz-adv-x="1109" d="M644 0v-400h-198v400h-338v150h338v700h-338v150h338v360h198v-360h361v-150h-361v-700h361v-150h-361z" />
<glyph unicode="&#x2022;" horiz-adv-x="706" d="M352 876q48 0 86.5 -16.5t66.5 -44.5t43 -65.5t15 -79.5t-15 -79.5t-43 -65t-66.5 -43.5t-86.5 -16q-47 0 -85 16t-65 43.5t-41.5 65t-14.5 79.5t14.5 79.5t41.5 65.5t65 44.5t85 16.5z" />
<glyph unicode="&#x2026;" horiz-adv-x="1545" d="M167 0zM167 196h226v-196h-226v196zM643 196h226v-196h-226v196zM1130 196h226v-196h-226v196z" />
<glyph unicode="&#x202f;" horiz-adv-x="372" />
<glyph unicode="&#x2030;" horiz-adv-x="1956" d="M779 290q0 71 23 127.5t63.5 95.5t97 60t123.5 21q72 0 130 -22.5t99 -65.5q42 43 99.5 65.5t129.5 22.5q69 0 126 -21t98 -60t63.5 -95.5t22.5 -127.5q0 -72 -22.5 -128.5t-63.5 -95.5t-98 -59.5t-126 -20.5q-145 0 -229 86q-41 -42 -99 -64t-130 -22q-67 0 -123.5 20.5 t-97 59.5t-63.5 95.5t-23 128.5zM108 1076q0 71 22.5 127.5t63.5 95.5t98 60t126 21t126 -21t98 -60t63.5 -95.5t22.5 -127.5q0 -72 -22.5 -128.5t-63.5 -95.5t-98 -59.5t-126 -20.5t-126 20.5t-98 59.5t-63.5 95.5t-22.5 128.5zM1395 290q0 -88 41.5 -136t107.5 -48 q67 0 108.5 48t41.5 136t-41.5 135t-108.5 47q-65 0 -106 -45t-43 -129v-8zM937 290q0 -88 42 -136t107 -48q68 0 109 48t41 136v8q-2 84 -43 129t-107 45q-65 0 -107 -47t-42 -135zM268 1076q0 -87 42 -135.5t108 -48.5q67 0 107.5 48t40.5 136t-40.5 135t-107.5 47 q-66 0 -108 -47t-42 -135zM1122 1360h157l-916 -1360h-159z" />
<glyph unicode="&#x2039;" horiz-adv-x="651" d="M566 152l-110 -110l-348 386v84l348 406l110 -110l-249 -336z" />
<glyph unicode="&#x203a;" horiz-adv-x="651" d="M88 808l108 110l348 -386v-84l-348 -406l-108 110l248 336z" />
<glyph unicode="&#x2044;" horiz-adv-x="1113" d="M939 1360h157l-916 -1360h-159z" />
<glyph unicode="&#x205f;" horiz-adv-x="465" />
<glyph unicode="&#x2074;" horiz-adv-x="722" d="M579 816v-146h-133v146h-405v76l396 486h142v-464h95v-98h-95zM446 914v318l-258 -318h258z" />
<glyph unicode="&#x20ac;" d="M69 878h211q20 116 64 209t109.5 158t151 100t188.5 35q51 0 92.5 -5.5t76 -14.5t63.5 -21t55 -25l-55 -130q-49 23 -105.5 36.5t-126.5 13.5q-61 0 -113 -21t-93 -64.5t-69.5 -111t-43.5 -159.5h536v-146h-549q-1 -12 -1 -24.5v-25.5q0 -23 0.5 -43.5t1.5 -40.5h548 v-146h-529q18 -84 49 -145.5t73.5 -101.5t96 -59.5t115.5 -19.5q43 0 79.5 5.5t67.5 14.5t57.5 19.5t48.5 20.5l41 -128q-53 -33 -128.5 -55.5t-187.5 -22.5q-99 0 -182 33t-147.5 94t-109.5 148.5t-68 196.5h-217v146h198q-3 40 -3 84v25t1 25h-196v146z" />
<glyph unicode="&#x2122;" horiz-adv-x="1408" d="M998 1115l154 245h139v-494h-113v361l-134 -217l1 -2h-94v2l-136 223v-367h-116v494h149zM386 1272v-406h-113v406h-203v88h515v-88h-199z" />
<glyph unicode="&#x2212;" horiz-adv-x="1066" d="M108 586v146h852v-146h-852z" />
<glyph unicode="&#x2264;" horiz-adv-x="1060" d="M105 24zM964 340.396v-161.46l-852 305.37v140.4l852 305.371v-161.46l-638 -214.111zM105 24.6396v139.433h852v-139.433h-852z" />
<glyph unicode="&#x2265;" horiz-adv-x="1062" d="M105 24zM110 768.617v161.46l852 -305.371v-140.4l-852 -305.37v161.46l637 214.11zM105 24.6396v139.433h852v-139.433h-852z" />
<glyph unicode="&#xe000;" horiz-adv-x="1000" d="M0 1000h1000v-1000h-1000v1000z" />
<glyph horiz-adv-x="432" d="M137 -102h223l-149 -398l-141 20z" />
<glyph horiz-adv-x="1187" d="M275 -260q25 -6 61.5 -13.5t77.5 -14.5t83 -11.5t80 -4.5q63 0 109 14t75.5 45.5t43.5 83.5t14 129v156q-72 -68 -155 -106t-178 -38q-76 0 -137.5 18t-105.5 63t-68 122t-24 195v622h196v-622q0 -71 10.5 -119t33 -77.5t56.5 -42.5t81 -13q87 0 158.5 32t132.5 83v759 h196v-1032q0 -124 -30 -204.5t-85 -128t-132 -66.5t-171 -19q-51 0 -102.5 5t-98 13t-86 17.5t-65.5 18.5z" />
<glyph horiz-adv-x="1196" d="M288 -262q24 -6 60 -13.5t76.5 -14.5t83 -11.5t80.5 -4.5q63 0 108.5 12t75 39.5t43.5 71.5t14 109v154q-26 -23 -53.5 -41t-60.5 -30t-73 -18.5t-92 -6.5q-95 0 -172 37t-131.5 104.5t-84.5 163t-30 213.5t30 213.5t84.5 163t131.5 104.5t172 37q51 0 92 -7t75.5 -20.5 t63.5 -33t56 -43.5l13 84h175v-1074q0 -112 -29.5 -185t-84.5 -116t-132 -60t-172 -17q-50 0 -101 5t-98 13t-87 17.5t-67 18.5zM328 502q0 -91 16.5 -160.5t51.5 -116.5t89 -71t130 -24q62 0 115.5 19t98.5 49v607q-45 30 -98.5 49.5t-115.5 19.5q-76 0 -130 -24t-89 -71 t-51.5 -116.5t-16.5 -160.5z" />
<glyph horiz-adv-x="1146" d="M793 133q-28 -36 -59.5 -64.5t-69 -48t-81.5 -30t-98 -10.5q-179 0 -268 110.5t-89 319.5q0 132 35 244t96.5 193t145.5 127t182 46q76 0 132.5 -24t96.5 -54l25 58h145v-1000h-171zM324 410q0 -71 18 -124t48.5 -88.5t69.5 -53.5t81 -18q36 0 70 9.5t65 26t59.5 38.5 t54.5 47v592q-35 13 -78.5 24t-88.5 11q-65 0 -120 -33t-94.5 -93.5t-62 -146t-22.5 -191.5z" />
<glyph horiz-adv-x="805" d="M705 846q-26 5 -52 6.5t-58 1.5q-67 0 -122 -40t-102 -103v-565h150v-146h-346v1000h173l16 -140q60 88 128 124t146 36q20 0 42.5 -1t42.5 -3z" />
<glyph horiz-adv-x="1320" d="M155 500q0 121 34 217t99 163.5t158.5 103.5t213.5 36q121 0 215.5 -36t159.5 -103.5t98.5 -163.5t33.5 -217q0 -122 -33.5 -218t-98.5 -163.5t-159.5 -103t-215.5 -35.5q-120 0 -213.5 35.5t-158.5 103t-99 163.5t-34 218zM351 500q0 -87 19.5 -156.5t58.5 -117.5 t96.5 -74t134.5 -26q78 0 136.5 26t97 74t58 117.5t19.5 156.5t-19.5 156.5t-58 117.5t-97 74t-136.5 26q-77 0 -134.5 -26t-96.5 -74t-58.5 -117.5t-19.5 -156.5z" />
<glyph horiz-adv-x="883" d="M121 0v146h229v660l-242 -74v156l315 112h123v-854h231v-146h-656z" />
<glyph horiz-adv-x="1113" d="M956 146v-146h-835l-2 86q0 136 100.5 245.5t312.5 204.5q52 24 90 45.5t62 45t35.5 49t11.5 56.5t-16 57t-47 45t-75 29.5t-100 10.5q-52 0 -94.5 -7t-80 -19.5t-73 -29t-72.5 -34.5l-60 126q30 19 69 38.5t87 35.5t105 26t123 10q95 0 174 -19.5t136 -57t88.5 -91.5 t31.5 -122q0 -64 -25.5 -114.5t-69 -91.5t-100.5 -74.5t-119 -61.5q-66 -30 -116.5 -54.5t-86.5 -51t-58.5 -58.5t-31.5 -78h636z" />
<glyph horiz-adv-x="1164" d="M991 680q0 -102 -58 -176t-166 -112q129 -40 199.5 -126t70.5 -204q0 -100 -41.5 -180.5t-118.5 -137.5t-186 -87.5t-243 -30.5q-41 0 -83.5 2.5t-83 8t-76.5 13t-64 18.5l39 130q54 -9 112 -17.5t136 -8.5q91 0 166.5 16.5t130.5 52t85.5 90t30.5 131.5q0 66 -24 114 t-67 79.5t-102.5 47t-131.5 15.5h-177v40l-24 110h201q63 0 114 12.5t88 38t57 65.5t20 96q0 50 -22.5 86.5t-62.5 60.5t-95.5 35.5t-121.5 11.5q-45 0 -83.5 -5.5t-73.5 -14.5t-68 -22t-66 -28l-55 124q32 20 75 37t91.5 29t100 19t102.5 7q109 0 196.5 -24t149.5 -68.5 t95.5 -107.5t33.5 -140z" />
<glyph horiz-adv-x="1203" d="M942 0v-360h-196v360h-697v110l670 890h223v-854h198v-146h-198zM746 146v635l-480 -635h480z" />
<glyph horiz-adv-x="1083" d="M976 124q0 -113 -40 -205.5t-113.5 -158.5t-178 -102t-233.5 -36q-34 0 -71 3t-73 8t-68 12t-56 15l43 130q35 -9 81.5 -15.5t94.5 -6.5q117 0 197 21t129 64.5t70.5 111t21.5 159.5q0 55 -20.5 96.5t-58 69t-89 41t-113.5 13.5q-57 0 -107.5 -12.5t-90.5 -35.5l-169 40 l99 664h671v-146h-508l-66 -393q42 14 93.5 21.5t120.5 7.5q101 0 181.5 -26.5t136.5 -74.5t86 -115.5t30 -149.5z" />
<glyph horiz-adv-x="1228" d="M121 0zM691 864q103 0 179 -31.5t126.5 -89t75 -138.5t24.5 -181q0 -86 -31 -166t-91 -141.5t-147.5 -99t-200.5 -37.5q-125 0 -219.5 47t-158 133.5t-95.5 208.5t-32 273q0 167 39.5 303.5t113.5 233t181 149t242 52.5q57 0 101 -4.5t80 -12.5t65 -19t55 -24l-40 -130 q-51 21 -108.5 32.5t-126.5 11.5q-87 0 -158.5 -30.5t-124 -94.5t-84.5 -163.5t-38 -236.5q69 77 165 116t208 39zM664 718q-47 0 -93.5 -7t-90.5 -23.5t-85 -45.5t-76 -72q10 -230 93 -337t234 -107q63 0 111 24t79.5 64.5t47.5 92t16 107.5q0 64 -13 119.5t-41.5 96.5 t-73.5 64.5t-108 23.5z" />
<glyph horiz-adv-x="987" d="M109 0zM1073 1001v-120l-541 -1240h-204l534 1214h-753v146h964z" />
<glyph horiz-adv-x="1279" d="M109 0zM109 374q0 113 67 197t187 127q-100 41 -155.5 117t-55.5 185q0 89 32 159.5t90.5 119.5t140.5 75t183 26q102 0 186.5 -26t145 -75t94 -119.5t33.5 -159.5q0 -109 -58 -185t-161 -117q61 -21 109.5 -53.5t82.5 -73.5t52 -91t18 -106q0 -95 -36.5 -168 t-102.5 -123.5t-158.5 -76.5t-204.5 -26q-111 0 -201 26t-154 76.5t-99 123.5t-35 168zM305 374q0 -60 21.5 -106.5t60.5 -78t93 -47.5t118 -16q66 0 122 16t97 47.5t64 78t23 106.5q0 55 -23 101.5t-64 80t-97 52t-122 18.5q-64 0 -118 -18.5t-93 -52t-60.5 -80 t-21.5 -101.5zM348 1000q0 -56 18.5 -99t52 -72.5t79.5 -45t100 -15.5q55 0 103.5 15.5t83.5 45t55.5 72.5t20.5 99t-20.5 99.5t-55.5 73.5t-83.5 45.5t-103.5 15.5q-54 0 -100 -15.5t-79.5 -45.5t-52 -73.5t-18.5 -99.5z" />
<glyph horiz-adv-x="1226" d="M105 0zM512 145q-95 0 -170.5 32.5t-128 90t-80.5 136.5t-28 171q0 86 31 166.5t91 142.5t148 99.5t201 37.5q244 0 362.5 -170.5t118.5 -527.5q0 -158 -36.5 -287.5t-104.5 -221.5t-165.5 -142.5t-219.5 -50.5q-60 0 -106.5 4.5t-84 12.5t-68 19t-58.5 24l34 136 q55 -24 119 -37t139 -13q76 0 140 30t110.5 93t73.5 160.5t30 232.5q-67 -69 -157.5 -103.5t-190.5 -34.5zM538 291q42 0 85 6.5t84 23t79.5 45t71.5 72.5q-8 132 -32 217t-64 134t-93.5 67.5t-119.5 18.5q-62 0 -108.5 -24.5t-77.5 -66.5t-46.5 -96.5t-15.5 -114.5 q0 -59 12.5 -110.5t40.5 -89.5t73 -60t111 -22z" />
<glyph horiz-adv-x="1335" d="M937 342h-534l-139 -342h-192l496 1160h200l499 -1160h-191zM462 488h416l-208 514z" />
<glyph horiz-adv-x="1244" d="M182 1160h399q105 0 185 -22t134.5 -62.5t82.5 -98.5t28 -131q0 -47 -15.5 -84.5t-39.5 -66t-53 -49.5t-56 -36q131 -25 201.5 -94.5t70.5 -181.5q0 -77 -32.5 -139t-94 -105.5t-149 -66.5t-197.5 -23h-464v1160zM378 532v-386h245q68 0 123.5 10.5t94.5 33t60.5 58.5 t21.5 86q0 51 -19.5 88.5t-55 61.5t-86 36t-112.5 12h-272zM378 1014v-336h354q13 13 27.5 26t27 31.5t20.5 45t8 65.5q0 91 -66.5 129.5t-190.5 38.5h-180z" />
<glyph horiz-adv-x="1143" d="M121 586q0 131 43.5 240.5t124.5 188t196.5 122t260.5 43.5q51 0 92.5 -5.5t76 -14.5t63.5 -21t55 -25l-55 -130q-49 23 -105.5 36.5t-126.5 13.5q-96 0 -175 -27.5t-135.5 -83t-87.5 -140t-31 -197.5q0 -124 31 -211t88 -142.5t138.5 -81t183.5 -25.5q43 0 81 5.5 t71 14.5t60.5 19.5t49.5 20.5l42 -128q-53 -33 -133.5 -55.5t-192.5 -22.5q-145 0 -259 42t-193 120.5t-121 191t-42 252.5z" />
<glyph horiz-adv-x="1388" d="M183 1160h420q149 0 268 -42.5t202.5 -119t128.5 -182t45 -232.5q0 -136 -45 -244t-128.5 -183.5t-202.5 -116t-268 -40.5h-420v1160zM379 1014v-868h202q106 0 193 24t148.5 76.5t95 135.5t33.5 202q0 108 -33.5 188.5t-95 134.5t-148.5 80.5t-193 26.5h-202z" />
<glyph horiz-adv-x="1074" d="M182 0v1160h802v-146h-606v-328h541v-146h-541v-394h606v-146h-802z" />
<glyph horiz-adv-x="987" d="M378 522v-522h-196v1160h759v-146h-563v-346h496v-146h-496z" />
<glyph horiz-adv-x="1384" d="M735 590h494v-522q-97 -41 -202 -64.5t-228 -23.5q-154 0 -275.5 46.5t-205.5 126t-128.5 185t-44.5 222.5q0 143 46.5 258t134 195.5t214 123.5t286.5 43q113 0 189 -18t124 -38l-39 -138q-50 18 -118.5 33t-155.5 15q-115 0 -205 -30t-152.5 -90t-95 -148.5 t-32.5 -205.5q0 -85 30 -163.5t88.5 -138.5t144 -96t195.5 -36q66 0 122.5 7t111.5 27v284h-298v146z" />
<glyph horiz-adv-x="1410" d="M183 1160h196v-508h658v508h196v-1160h-196v506h-658v-506h-196v1160z" />
<glyph horiz-adv-x="840" d="M137 0v126h185v908h-185v126h568v-126h-187v-908h187v-126h-568z" />
<glyph horiz-adv-x="954" d="M130 178q20 -10 49.5 -19t61 -16.5t62.5 -12t55 -4.5q59 0 101.5 14t69.5 45.5t39.5 80.5t12.5 120v774h196v-774q0 -118 -28.5 -196t-80.5 -124.5t-125 -66t-162 -19.5q-101 0 -178 18.5t-131 47.5z" />
<glyph horiz-adv-x="1279" d="M594 522h-215v-522h-196v1160h196v-484h213l361 484h214l-417 -554h-2l492 -606h-225z" />
<glyph horiz-adv-x="1036" d="M183 1160h196v-1014h613v-146h-809v1160z" />
<glyph horiz-adv-x="1693" d="M851 544l407 616h258v-1160h-196v608l14 360l-406 -624l1 -2h-157v2l-410 632l16 -356v-620h-196v1160h262z" />
<glyph horiz-adv-x="1455" d="M183 1160h196l701 -891v891h196v-1160h-196l-701 891v-891h-196v1160z" />
<glyph horiz-adv-x="1333" d="M115 584q0 134 37.5 244t108.5 188t173 121t232 43q132 0 235 -43t174.5 -121t109 -188t37.5 -244q0 -144 -37.5 -256.5t-109 -189.5t-174.5 -117.5t-235 -40.5q-130 0 -232 40.5t-173 117.5t-108.5 189.5t-37.5 256.5zM311 584q0 -119 23.5 -205.5t69 -142.5t111.5 -83 t151 -27q90 0 157.5 27t112.5 83t67.5 142.5t22.5 205.5q0 222 -89 336t-271 114q-171 0 -263 -115t-92 -335z" />
<glyph horiz-adv-x="1212" d="M183 1160h420q124 0 219.5 -26.5t161 -76t99.5 -119.5t34 -156t-34 -156.5t-99.5 -120.5t-161 -77.5t-219.5 -27.5h-224v-400h-196v1160zM379 1014v-468h202q163 0 251.5 57t88.5 179q0 61 -22.5 104.5t-66 72t-106.5 42t-145 13.5h-202z" />
<glyph horiz-adv-x="1333" d="M115 584q0 134 37.5 244t108.5 188t173 121t232 43q132 0 235 -43t174.5 -121t109 -188t37.5 -244q0 -158 -44 -275.5t-128 -195.5l228 -259h-216l-149 171q-108 -45 -247 -45q-130 0 -232 40.5t-173 117.5t-108.5 189.5t-37.5 256.5zM311 584q0 -119 23.5 -205.5 t69 -142.5t111.5 -83t151 -27q90 0 157.5 27t112.5 83t67.5 142.5t22.5 205.5q0 222 -89 336t-271 114q-171 0 -263 -115t-92 -335z" />
<glyph horiz-adv-x="1258" d="M183 1160h440q115 0 203 -23.5t148 -68.5t91 -109t31 -145q0 -50 -17 -95.5t-46 -85t-67.5 -71.5t-81.5 -56l287 -506h-205l-264 470h-323v-470h-196v1160zM379 1014v-398h407q22 15 42.5 32t36.5 40t25.5 53.5t9.5 72.5q0 108 -76.5 154t-220.5 46h-224z" />
<glyph horiz-adv-x="1105" d="M997 308q0 -77 -32 -137.5t-91 -103t-144 -65t-190 -22.5q-59 0 -119.5 5.5t-116.5 15.5t-105 24.5t-84 32.5l49 138q42 -15 84.5 -28t88 -22t95.5 -14.5t107 -5.5q124 0 193 45t69 131q0 41 -21.5 71.5t-61.5 54t-97 42.5t-128 38q-80 21 -150 52t-121.5 73t-81 95.5 t-29.5 121.5q0 77 32.5 138.5t91.5 104t143 65t188 22.5q63 0 120.5 -8t107.5 -20.5t90.5 -27t69.5 -26.5l-41 -142q-41 16 -79 30.5t-78.5 25t-85.5 16.5t-100 6q-131 0 -197 -47t-66 -127q0 -35 15 -64.5t48 -55t85 -47.5t126 -41q104 -27 182 -59.5t130 -73.5t78 -93 t26 -118z" />
<glyph horiz-adv-x="1188" d="M693 1014v-1014h-196v1014h-425v146h1048v-146h-427z" />
<glyph horiz-adv-x="1421" d="M1047 1160h196v-748q0 -104 -38.5 -184t-108.5 -135.5t-168 -84t-217 -28.5q-118 0 -215 28.5t-166.5 84t-108 135.5t-38.5 184v748h196v-748q0 -69 24.5 -122.5t68.5 -89.5t105 -55t134 -19q75 0 137 19t106 55t68.5 89.5t24.5 122.5v748z" />
<glyph horiz-adv-x="1314" d="M537 482l123 -302l120 298l265 682h201l-490 -1160h-196l-488 1160h201z" />
<glyph horiz-adv-x="1842" d="M1555 1160h197l-305 -1160h-209l-312 932l-319 -932h-206l-307 1160h202l218 -938l319 938h182l317 -942z" />
<glyph d="M593 706l311 454h218l-402 -569l402 -591h-220l-309 469l-305 -469h-224l401 591l-401 569h220z" />
<glyph d="M593 572l322 588h201l-429 -764h4v-396h-198v396h5l-426 764h201z" />
<glyph horiz-adv-x="1243" d="M143 1160h943v-110l-708 -904h776l-43 -146h-974v126l685 888h-679v146z" />
<glyph d="M111 672q0 161 31 292t91.5 223.5t150 142.5t207.5 50q120 0 212 -50t154.5 -142.5t94.5 -223.5t32 -292q0 -162 -32 -290.5t-94.5 -217.5t-154.5 -136.5t-212 -47.5q-118 0 -207.5 47.5t-150 136.5t-91.5 217.5t-31 290.5zM307 672q0 -128 18 -229t53.5 -171.5 t88.5 -108t124 -37.5q72 0 127 37.5t93 108t57.5 171.5t19.5 229q0 129 -19.5 233t-57.5 177t-93 112.5t-127 39.5q-71 0 -124 -39.5t-88.5 -112.5t-53.5 -177t-18 -233z" />
<glyph d="M245 0v146h313v1044l-325 -80v138l388 112h133v-1214h306v-146h-815z" />
<glyph d="M1060 146v-146h-902v66q0 126 27 219.5t82.5 168t140 135.5t199.5 123q63 34 107 68.5t72.5 71.5t41.5 76t13 82q0 49 -19.5 90t-54.5 71t-84 46.5t-109 16.5q-55 0 -104 -10t-94 -26.5t-87 -37t-82 -42.5l-56 126q32 22 78.5 46t103.5 44t121.5 33t133.5 13 q101 0 184 -26t142 -74t91 -117t32 -155q0 -79 -27.5 -140.5t-75 -111.5t-110 -91.5t-131.5 -80.5q-71 -42 -131.5 -84.5t-105.5 -93.5t-71.5 -114t-30.5 -146h706z" />
<glyph d="M994 1004q0 -109 -58.5 -188t-167.5 -119q130 -40 200.5 -126t70.5 -205q0 -86 -35.5 -157t-102 -122t-162.5 -79t-216 -28q-55 0 -112 6.5t-110 18.5t-99.5 29.5t-80.5 39.5l61 122q69 -30 145.5 -50t175.5 -20q76 0 140.5 15t111 45.5t72.5 76t26 107.5q0 66 -25 113.5 t-69.5 78.5t-105.5 45.5t-132 14.5h-182v146h182q61 0 113.5 14t91 43t60.5 73.5t22 105.5t-23.5 105t-65 71.5t-98 40.5t-122.5 13q-46 0 -85.5 -5.5t-75 -14.5t-68.5 -22t-66 -28l-65 118q32 22 76.5 40t96 31t106 20t105.5 7q109 0 196.5 -26.5t148.5 -75.5t93.5 -118.5 t32.5 -155.5z" />
<glyph d="M931 292v-292h-196v292h-671v110l631 958h236v-922h196v-146h-196zM735 438v703l-460 -703h460z" />
<glyph d="M1068 426q0 -100 -33.5 -182t-99 -140.5t-163 -91t-224.5 -32.5q-59 0 -116.5 6.5t-110 17.5t-97 26t-75.5 32l45 134q32 -16 66 -29t73.5 -22t85.5 -14t102 -5q169 0 260 73.5t91 226.5q0 71 -24 123t-66.5 85.5t-100.5 49.5t-125 16t-133 -10.5t-114 -33.5l-158 40 l101 664h736v-146h-584l-68 -400q54 14 122 23t155 9q105 0 189 -30t143.5 -85t91 -132.5t31.5 -172.5z" />
<glyph d="M691 864q103 0 179 -31.5t126.5 -89t75 -138.5t24.5 -181q0 -86 -31 -166t-91 -141.5t-147.5 -99t-200.5 -37.5q-125 0 -219.5 47t-158 133.5t-95.5 208.5t-32 273q0 167 39.5 303.5t113.5 233t181 149t242 52.5q57 0 101 -4.5t80 -12.5t65 -19t55 -24l-40 -130 q-51 21 -108.5 32.5t-126.5 11.5q-87 0 -158.5 -30.5t-124 -94.5t-84.5 -163.5t-38 -236.5q69 77 165 116t208 39zM664 718q-47 0 -93.5 -7t-90.5 -23.5t-85 -45.5t-76 -72q10 -230 93 -337t234 -107q63 0 111 24t79.5 64.5t47.5 92t16 107.5q0 64 -13 119.5t-41.5 96.5 t-73.5 64.5t-108 23.5z" />
<glyph d="M1073 1360v-120l-541 -1240h-204l534 1214h-753v146h964z" />
<glyph d="M100 374q0 113 67 197t187 127q-100 41 -155.5 117t-55.5 185q0 89 32 159.5t90.5 119.5t140.5 75t183 26q102 0 186.5 -26t145 -75t94 -119.5t33.5 -159.5q0 -109 -58 -185t-161 -117q61 -21 109.5 -53.5t82.5 -73.5t52 -91t18 -106q0 -95 -36.5 -168t-102.5 -123.5 t-158.5 -76.5t-204.5 -26q-111 0 -201 26t-154 76.5t-99 123.5t-35 168zM296 374q0 -60 21.5 -106.5t60.5 -78t93 -47.5t118 -16q66 0 122 16t97 47.5t64 78t23 106.5q0 55 -23 101.5t-64 80t-97 52t-122 18.5q-64 0 -118 -18.5t-93 -52t-60.5 -80t-21.5 -101.5zM339 1000 q0 -56 18.5 -99t52 -72.5t79.5 -45t100 -15.5q55 0 103.5 15.5t83.5 45t55.5 72.5t20.5 99t-20.5 99.5t-55.5 73.5t-83.5 45.5t-103.5 15.5q-54 0 -100 -15.5t-79.5 -45.5t-52 -73.5t-18.5 -99.5z" />
<glyph d="M513 504q-95 0 -170.5 32.5t-128 90t-80.5 136.5t-28 171q0 86 31 166.5t91 142.5t148 99.5t201 37.5q244 0 362.5 -170.5t118.5 -527.5q0 -158 -36.5 -287.5t-104.5 -221.5t-165.5 -142.5t-219.5 -50.5q-60 0 -106.5 4.5t-84 12.5t-68 19t-58.5 24l34 136 q55 -24 119 -37t139 -13q76 0 140 30t110.5 93t73.5 160.5t30 232.5q-67 -69 -157.5 -103.5t-190.5 -34.5zM539 650q42 0 85 6.5t84 23t79.5 45t71.5 72.5q-8 132 -32 217t-64 134t-93.5 67.5t-119.5 18.5q-62 0 -108.5 -24.5t-77.5 -66.5t-46.5 -96.5t-15.5 -114.5 q0 -59 12.5 -110.5t40.5 -89.5t73 -60t111 -22z" />
<glyph horiz-adv-x="1320" d="M160 680q0 161 33.5 290.5t97 220.5t156.5 140t213 49q121 0 216.5 -49t160.5 -140t99.5 -220.5t34.5 -290.5q0 -162 -34.5 -291.5t-99.5 -219.5t-160.5 -138.5t-216.5 -48.5q-120 0 -213 48.5t-156.5 138.5t-97 219.5t-33.5 291.5zM356 680q0 -128 19 -230t56.5 -173.5 t94.5 -110t134 -38.5q78 0 137 38.5t98.5 110t59.5 173.5t20 230q0 127 -20 229.5t-59.5 174.5t-98.5 111t-137 39q-77 0 -134 -39t-94.5 -111t-56.5 -174.5t-19 -229.5z" />
<glyph horiz-adv-x="883" d="M121 0v146h229v1020l-242 -74v156l315 112h123v-1214h231v-146h-656z" />
<glyph horiz-adv-x="1113" d="M1020 146v-146h-899l-6 66q0 126 28.5 217t85 164t141 135.5t196.5 131.5q122 66 179 138t57 158q0 49 -18.5 90t-53 71t-83.5 46.5t-110 16.5q-54 0 -101.5 -10t-91 -26.5t-84 -37t-80.5 -42.5l-67 136q31 22 76 44.5t100 40.5t118.5 29.5t132.5 11.5q100 0 184 -26 t145 -74t95 -117t34 -155q0 -79 -29.5 -142t-77.5 -114t-109.5 -92t-125.5 -76q-72 -44 -133.5 -87t-107 -93t-73 -112.5t-31.5 -145.5h709z" />
<glyph horiz-adv-x="1169" d="M980 1004q0 -109 -61.5 -188t-173.5 -119q129 -41 199.5 -126.5t70.5 -204.5q0 -86 -35.5 -157t-102 -122t-162 -79t-214.5 -28q-54 0 -110 7t-109 20t-99.5 31t-80.5 40l62 118q35 -15 70.5 -28t74 -22t80.5 -14.5t90 -5.5q77 0 139.5 14.5t107 44.5t69 75t24.5 106 q0 66 -22.5 114t-64.5 79.5t-100.5 47t-130.5 15.5h-177v146h177q63 0 115 14t89.5 43t58 73.5t20.5 105.5t-22 104.5t-62.5 71.5t-96.5 41t-124 13q-89 0 -157.5 -20t-133.5 -50l-67 118q32 22 76.5 40t95 31t104 20t104.5 7q110 0 198.5 -26.5t151 -75.5t96 -118.5 t33.5 -155.5z" />
<glyph horiz-adv-x="1216" d="M956 292v-292h-196v292h-696v110l671 958h221v-922h200v-146h-200zM760 438v686l-481 -686h481z" />
<glyph horiz-adv-x="1083" d="M969 426q0 -100 -32 -182t-93 -140.5t-148 -91t-196 -32.5q-48 0 -98 5.5t-97.5 16t-89 25t-71.5 31.5l43 138q32 -15 64.5 -28t67.5 -22t73.5 -14.5t83.5 -5.5q68 0 123 18t93.5 55.5t59.5 93.5t21 133q0 71 -19.5 123t-55 86t-86 50.5t-112.5 16.5q-119 0 -200 -44 l-169 40l98 662h669v-146h-505l-66 -393q42 13 94.5 20t121.5 7q100 0 179 -30t134 -85.5t84 -133.5t29 -173z" />
<glyph horiz-adv-x="1228" d="M694 870q105 0 184.5 -31t133 -88.5t80 -140.5t26.5 -186q0 -80 -34 -159.5t-97.5 -142.5t-154 -102.5t-202.5 -39.5q-120 0 -211 47.5t-152.5 134.5t-92.5 209t-31 271q0 167 38 303.5t109 233t174 149t233 52.5q55 0 99 -4.5t80 -12.5t66.5 -19t57.5 -24l-42 -132 q-51 23 -110 34.5t-131 11.5q-83 0 -150.5 -31.5t-116.5 -98t-77.5 -169t-32.5 -244.5q30 46 69 79.5t84.5 55.5t96 33t104.5 11zM670 724q-44 0 -88.5 -9.5t-87 -31.5t-81 -58t-71.5 -89q15 -213 92.5 -311.5t217.5 -98.5q65 0 115.5 24t85 64.5t52 92t17.5 107.5 q0 64 -14.5 120.5t-45.5 98.5t-78.5 66.5t-113.5 24.5z" />
<glyph horiz-adv-x="987" d="M925 1360v-124l-446 -1236h-204l448 1214h-680v146h882z" />
<glyph horiz-adv-x="1279" d="M132 374q0 57 19 106.5t54 91t85 73t113 52.5q-107 39 -167.5 115.5t-60.5 187.5q0 89 33.5 159.5t94.5 119.5t147 75t190 26t190 -26t147.5 -75t95.5 -119.5t34 -159.5q0 -111 -61.5 -187.5t-168.5 -115.5q63 -21 113.5 -52.5t85.5 -72.5t54 -91t19 -107q0 -95 -37 -168 t-103.5 -123.5t-160.5 -76.5t-208 -26q-113 0 -206.5 26t-160.5 76.5t-104 123.5t-37 168zM328 374q0 -60 22.5 -106.5t63.5 -78t98.5 -47.5t127.5 -16t127.5 16t98.5 47.5t64 78t23 106.5q0 55 -23 101t-64 78.5t-98.5 50.5t-127.5 18t-127.5 -18t-98.5 -50.5t-63.5 -78.5 t-22.5 -101zM371 1000q0 -56 20 -98.5t55.5 -72t85 -44.5t108.5 -15q60 0 109.5 15t85.5 44.5t56 72t20 98.5q0 55 -20 98.5t-56 73.5t-85.5 46t-109.5 16q-59 0 -108.5 -16t-85 -46t-55.5 -73.5t-20 -98.5z" />
<glyph horiz-adv-x="1228" d="M540 500q-87 0 -164 30t-135 83.5t-91.5 125.5t-33.5 156q0 23 3 47q5 84 39 163t95 140t148 98t200 37q119 0 210.5 -42t153 -128.5t93 -218t31.5 -309.5q0 -158 -36.5 -287.5t-105.5 -221.5t-168 -142.5t-223 -50.5q-60 0 -106.5 4.5t-85 12.5t-70 19t-59.5 24l38 136 q56 -23 120 -36.5t141 -13.5q80 0 145.5 31.5t112 96.5t72.5 166t28 240q-29 -42 -67.5 -72.5t-84 -50t-96 -28.5t-104.5 -9zM558 646q46 0 91 8.5t87 29t80.5 55.5t71.5 88q-9 120 -33 198.5t-63 125t-92.5 65t-120.5 18.5q-65 0 -114.5 -25.5t-82.5 -67.5t-50 -97 t-17 -114t14 -111t43 -90.5t75 -60.5t111 -22z" />
<glyph d="M1036 1170l67 -81l-845 -834l-67 75zM1147 97v-96h-498v42q0 54 13.5 96.5t42 76.5t75 62t112.5 56q35 15 58 29.5t36.5 29.5t19 31t5.5 34q0 41 -32.5 63t-95.5 22q-30 0 -56.5 -4.5t-51 -12t-48.5 -17.5t-49 -22l-34 85q20 11 46 23t57 22.5t67 17.5t76 7 q118 0 181 -47.5t63 -134.5q0 -37 -15.5 -67t-41 -54.5t-60 -44.5t-73.5 -37q-36 -17 -65 -34t-50.5 -35.5t-35 -41t-17.5 -49.5h371zM148 718v87h107v437l-117 -32v90l161 55h77v-550h102v-87h-330z" />
<glyph d="M1036 1170l67 -81l-845 -834l-67 75zM976 133v-131h-120v131h-364v69l356 437h128v-417h86v-89h-86zM856 222v286l-232 -286h232zM148 718v87h107v437l-117 -32v90l161 55h77v-550h102v-87h-330z" />
<glyph d="M1036 1170l67 -81l-845 -834l-67 75zM593 1198q0 -102 -106 -140q61 -19 92.5 -57t31.5 -93q0 -83 -67.5 -134t-203.5 -51q-59 0 -118.5 11t-105.5 36l28 81q46 -16 89 -26t96 -10q73 0 117.5 23.5t44.5 73.5q0 51 -40 75t-111 24h-131v94h131q61 0 94.5 21t33.5 69 q0 50 -37 70.5t-102 20.5q-51 0 -90.5 -9.5t-83.5 -26.5l-30 80q20 11 47.5 20.5t57 16.5t57.5 10t51 3q128 0 191.5 -48.5t63.5 -133.5zM976 133v-131h-120v131h-364v69l356 437h128v-417h86v-89h-86zM856 222v286l-232 -286h232z" />
<glyph horiz-adv-x="460" d="M217 291l-21 -7v-2q5 1 13.5 2t14.5 1h100v-30h-195v33l105 34l21 7v2q-5 -1 -13.5 -2t-13.5 -1h-99v30h195v-33zM252 32h72v-32h-195v54q0 23 12 35t32 12h34q20 0 32.5 -12.5t12.5 -35.5v-21zM129 585v33h195v-33h-77q-3 0 -7 0.5t-6 1.5l-1 -1q1 -2 1 -6v-6v-13v-8 t-1 -6h1q2 0 6 0.5t7 0.5h77v-32h-195v32h67q2 0 5.5 -0.5t5.5 -0.5h2q-2 2 -2 6v8v13v6t2 6l-2 1q-4 -2 -11 -2h-67zM327 826q0 -51 -47 -51h-152v32h158q2 0 6.5 -0.5t6.5 -1.5l1 1q-2 2 -2 6v7v14v7t2 6l-1 1q-2 -2 -6.5 -2h-6.5h-158v31h152q47 0 47 -50zM327 175 q0 -50 -47 -50h-152v31h158h6.5t6.5 -1l1 1q-2 2 -2 6v6v14v7.5t2 5.5l-1 2q-2 -2 -6.5 -2h-6.5h-158v31h152q47 0 47 -51zM281 681q9 0 15.5 4.5t6.5 14.5t-6.5 14.5t-14.5 4.5h-16v31h12q23 0 36 -11.5t13 -37.5q0 -53 -49 -53h-105q-48 0 -48 52q0 27 12.5 38.5 t35.5 11.5h11v-31h-14q-8 0 -14.5 -4.5t-6.5 -14.5t6 -14.5t15 -4.5h111zM281 418q9 0 15.5 5t6.5 15t-6.5 14.5t-14.5 4.5h-16v31h12q23 0 36 -11.5t13 -38.5q0 -52 -49 -52h-105q-24 0 -36 12t-12 39t12.5 38.5t35.5 11.5h11v-31h-14q-8 0 -14.5 -4.5t-6.5 -14.5t6 -14.5 t15 -4.5h111zM324 966v-32h-158h-6t-6 1l-1 -1q1 -1 1 -5v-7v-24h-25v103h25v-24v-6t-1 -6l1 -1q2 1 6 1.5t6 0.5h158zM216 32h7t5 -1l1 1q-1 2 -1 5.5v7.5v6q0 8 -5.5 13t-16.5 5h-29q-11 0 -17 -5t-6 -13v-6v-7.5t-1 -5.5l1 -1q2 1 6 1h6h50zM455 -556h4v-4h-4v4z" />
<glyph d="M1036 1170l67 -81l-845 -834l-67 75zM93 1080q0 70 19 125.5t55.5 94t88.5 59.5t116 21q65 0 118.5 -21t91 -59.5t58.5 -94t21 -125.5t-21 -125.5t-58.5 -94t-91 -59t-118.5 -20.5q-64 0 -116 20.5t-88.5 59t-55.5 94t-19 125.5zM229 1080q0 -51 11 -88.5t30 -61.5 t45 -35.5t57 -11.5q34 0 62 11.5t48 35.5t31 61.5t11 88.5q0 52 -11 90t-31 62t-48 35.5t-62 11.5q-31 0 -57 -11.5t-45 -35.5t-30 -62t-11 -90zM549 279q0 70 19 125.5t55.5 94t88.5 59.5t116 21q65 0 118.5 -21t91 -59.5t58.5 -94t21 -125.5t-21 -125.5t-58.5 -94t-91 -59 t-118.5 -20.5q-64 0 -116 20.5t-88.5 59t-55.5 94t-19 125.5zM685 279q0 -51 11 -88.5t30 -61.5t45 -35.5t57 -11.5q34 0 62 11.5t48 35.5t31 61.5t11 88.5q0 52 -11 90t-31 62t-48 35.5t-62 11.5q-31 0 -57 -11.5t-45 -35.5t-30 -62t-11 -90z" />
<glyph horiz-adv-x="771" d="M94 1000h134v34q0 104 30.5 179t87.5 123t138 71t182 23q81 0 160.5 -9t139.5 -21v-136q-27 4 -61 7.5t-72.5 6.5t-79 4.5t-79.5 1.5q-66 0 -113 -14t-77.5 -44t-45 -77.5t-14.5 -114.5v-34h295v-134h-295v-866h-196v866h-153z" />
<glyph horiz-adv-x="1324" d="M75 0zM94 1000h134v34q0 104 30.5 179t87.5 123t138 71t182 23q81 0 160.5 -9t139.5 -21v-136q-27 4 -61 7.5t-72.5 6.5t-79 4.5t-79.5 1.5q-66 0 -113 -14t-77.5 -44t-45 -77.5t-14.5 -114.5v-34h295v-134h-295v-866h-196v866h-153zM625 -280q14 -3 33.5 -6t41 -6 t43.5 -4.5t42 -1.5q41 0 70.5 11.5t48 38t27.5 70t9 108.5v1070h196v-1070q0 -112 -24 -184.5t-67.5 -114.5t-105 -58.5t-136.5 -16.5q-25 0 -52.5 1.5t-53.5 4.5t-50 8t-42 12z" />
<glyph horiz-adv-x="1324" d="M0 0z" />
</font>
</defs>
</svg>
