<svg version="1.1" xmlns="http://www.w3.org/2000/svg" xmlns:xlink="http://www.w3.org/1999/xlink" x="0px" y="0px"
   width="270.79px" height="206.133px" viewBox="0 0 270.79 206.133" enable-background="new 0 0 270.79 206.133"
   xml:space="preserve">
<g id="Layer_1">
  <path fill="#A5E587" d="M64.504,116l2.558-32.03c0,0-16.77,4.673-26.502,15.876S29.79,113.77,29.79,113.77s-1.205,0.753-3.183,2.23
    H64.504z"/>
  <path fill="#A5E587" d="M238.154,116c-1.978-1.478-3.183-2.23-3.183-2.23s-1.037-2.721-10.77-13.924S197.7,83.97,197.7,83.97
    l2.558,32.03H238.154z"/>
  <g>
    <path fill="#A5E587" d="M183.881,48.654c0,0-2.946-7.154,4.419-9.26c7.367-2.104,11.156,2.105,12.206-3.788
      c1.053-5.894-5.261-19.571-5.261-19.571s36.288,20.656,21.676,49.877c-9.469,18.94-23.991,9.049-23.991,9.049L183.881,48.654z"/>
  </g>
  <g>
    <path fill="#A5E587" d="M80.909,48.654c0,0,2.946-7.154-4.42-9.26c-7.365-2.104-11.154,2.105-12.207-3.788
      c-1.052-5.894,5.263-19.571,5.263-19.571S33.257,36.691,47.867,65.912c9.472,18.94,23.991,9.049,23.991,9.049L80.909,48.654z"/>
  </g>
  <g>
    <path fill="#606060" d="M63.687,79c-0.001,0-0.001,0-0.002,0c-4.922,0-11.902-1.851-17.217-12.477
      C31.094,35.777,68.652,14.132,69.034,13.914l6.011-3.326l-2.897,6.33c-2.328,5.047-5.768,14.487-5.092,18.274
      c0.206,1.154,0.465,1.411,0.468,1.413s0.152,0.094,0.786,0.094c0.441,0,0.928-0.033,1.462-0.07
      c0.743-0.051,1.587-0.107,2.537-0.107c1.884,0,3.643,0.242,5.377,0.737c2.794,0.798,4.743,2.306,5.795,4.478
      c1.642,3.392,0.36,7.02,0.097,7.691l-9.271,26.953l-0.609,0.033C73.519,76.535,69.276,79,63.687,79z M65.286,22.065
      c-2.971,2.304-6.607,5.51-9.83,9.448c-8.944,10.936-10.632,22.174-5.016,33.405c3.451,6.903,7.907,10.403,13.245,10.403
      c0,0,0,0,0.001,0c3.141,0,5.794-1.234,6.924-1.853l8.832-25.661c0.254-0.641,0.768-2.664,0.032-4.156
      c-0.486-0.989-1.471-1.684-3.009-2.123c-1.351-0.386-2.672-0.566-4.157-0.566c-0.798,0-1.526,0.051-2.231,0.1
      c-0.619,0.043-1.203,0.083-1.768,0.083c-3.211,0-4.999-1.636-5.625-5.149C62.038,32.379,63.646,26.636,65.286,22.065z"/>
  </g>
  <path fill="#81AA6B" d="M213.052,114c-13.812-34.991-46.941-61.789-80.52-62.381v-0.018c0,0-0.308,0.007-0.5,0.009
    c-0.192-0.002-0.5-0.009-0.5-0.009v0.018C97.954,52.211,64.824,79.009,51.014,114H213.052z"/>
  <g>
    <path fill="#606060" d="M201.69,79.763c-5.591,0-9.832-2.847-10.01-2.968l-0.61-0.414L181.8,49.428
      c-0.265-0.672-1.547-4.301,0.096-7.691c1.051-2.172,3-3.678,5.793-4.477c1.736-0.496,3.496-0.736,5.379-0.736
      c0.951,0,1.794,0.058,2.538,0.109c0.534,0.037,1.021,0.072,1.461,0.072c0.634,0,0.783-0.086,0.789-0.09
      c0,0,0.26-0.244,0.465-1.398c0.678-3.793-2.763-13.208-5.091-18.252l-2.899-6.283l6.013,3.424
      c0.382,0.217,37.939,22.053,22.564,52.799C213.594,77.531,206.612,79.763,201.69,79.763z M194.765,73.471
      c1.131,0.617,3.779,1.852,6.926,1.852c5.337,0,9.794-3.5,13.244-10.403c5.617-11.231,3.93-22.47-5.015-33.405
      c-3.222-3.938-6.858-7.146-9.829-9.449c1.641,4.571,3.248,10.314,2.601,13.932c-0.626,3.514-2.413,5.149-5.625,5.149
      c-0.563,0-1.147-0.04-1.768-0.083c-0.705-0.049-1.434-0.1-2.231-0.1c-1.485,0-2.807,0.181-4.158,0.566
      c-1.537,0.439-2.521,1.134-3.008,2.123c-0.734,1.492-0.222,3.516,0.037,4.169l0.042,0.11L194.765,73.471z"/>
  </g>
  <path fill="#606060" d="M53.839,114c13.577-33.349,45.152-59.573,78.086-60.16l0.321-0.009l0.487,0.009
    c20.73,0.361,42.113,10.975,58.668,29.119c8.416,9.226,15.027,19.83,19.529,31.041h4.594c-4.732-12.313-11.89-23.967-21.074-34.033
    c-16.799-18.412-37.918-29.438-59.918-30.494v-0.158l-2.475,0.076l-2.525-0.057v0.141C95.284,51.199,62.662,79.061,49.026,114
    H53.839z"/>
  <path fill="#A5E587" d="M183.939,114c7.462-9.959,11.939-22.009,11.939-34.83c0-28.896-29.347-60.706-63.347-61.023v-0.008
    c0,0-0.411,0.004-0.5,0.004c-0.088,0-0.5-0.004-0.5-0.004v0.008c-35,0.317-63.347,32.127-63.347,61.023
    c0,12.821,4.325,24.871,11.661,34.83H183.939z"/>
  <g>
    <path fill="none" stroke="#000000" stroke-width="4" stroke-miterlimit="10" d="M190.825,88.43"/>
  </g>
  <g>
    <path fill="#606060" d="M59.762,69.988l-1.601-6.931l1.227-0.858c0.022-0.018,3.361-2.461,3.69-6.566
      c0.298-3.723-3.858-6.058-3.9-6.081l-1.72-0.947l1.143-2.88c0.482-1.205,1.664-3.004,1.896-3.352l3.695,2.462
      c-0.349,0.522-0.857,1.345-1.193,1.97c1.963,1.556,4.867,4.653,4.506,9.183c-0.352,4.369-2.846,7.382-4.377,8.843l0.959,4.16
      L59.762,69.988z"/>
  </g>
  <g>
    <path fill="#606060" d="M117.418,93.461c-0.682,0-1.344-0.079-1.973-0.258c-1.794-0.511-3.14-1.736-3.892-3.544
      c-1.577-3.79-1.457-6.893,0.354-9.223c3.734-4.803,13.166-3.579,14.229-3.423l-0.642,4.393l0.321-2.196l-0.318,2.197
      c-2.561-0.369-8.396-0.423-10.086,1.757c-0.756,0.976-0.674,2.587,0.241,4.789c0.287,0.69,0.654,0.879,1.008,0.979
      c2.416,0.687,7.49-2.155,9.565-3.642l2.586,3.609C128.085,89.421,122.288,93.461,117.418,93.461z"/>
  </g>
  <g>
    <path fill="none" stroke="#000000" stroke-width="4" stroke-miterlimit="10" d="M74.55,88.43"/>
  </g>
  <g>
    <path fill="#606060" d="M113.532,67.279c0-4.01-3.51-7.26-7.52-7.26s-7.48,3.25-7.48,7.26c0,1.523,0,1.634,0,3.158
      c0,4.009,3.491,7.26,7.5,7.26c4.011,0,7.5-3.251,7.5-7.26C113.532,68.913,113.532,68.803,113.532,67.279z"/>
  </g>
  <g>
    <path fill="#606060" d="M98.591,13.942c1.878-0.804,11,6.707,13.146,9.657c2.146,2.951-7.779,12.609-12.072,7.244
      C95.807,26.021,96.713,14.748,98.591,13.942z"/>
  </g>
  <g>
    <circle fill="#FFFFFF" cx="106.223" cy="66.438" r="2.48"/>
  </g>
  <g>
    <path fill="#606060" d="M205.616,69.988l-4.327-0.998l0.96-4.16c-1.531-1.461-4.027-4.474-4.376-8.844
      c-0.362-4.529,2.541-7.626,4.505-9.182c-0.336-0.627-0.846-1.447-1.193-1.969l3.695-2.463c0.232,0.348,1.414,2.146,1.896,3.354
      l1.157,2.891l-1.745,0.939c-0.032,0.019-4.188,2.354-3.889,6.076c0.327,4.105,3.666,6.549,3.699,6.573l1.199,0.862l-0.32,1.448
      L205.616,69.988z"/>
  </g>
  <g>
    <path fill="#606060" d="M150.483,93.461c-4.869,0-10.666-4.04-11.393-4.561l2.586-3.609c2.645,1.889,7.361,4.271,9.565,3.641
      c0.354-0.101,0.72-0.289,1.008-0.979c0.916-2.202,0.997-3.813,0.24-4.789c-1.69-2.18-7.526-2.125-10.087-1.757l-0.639-4.394
      c1.062-0.156,10.496-1.379,14.229,3.424c1.812,2.33,1.931,5.432,0.355,9.221c-0.753,1.809-2.099,3.034-3.894,3.545
      C151.829,93.382,151.165,93.461,150.483,93.461z"/>
  </g>
  <g>
    <path fill="#606060" d="M132.635,45.745c-7.44,0-11.646-2.317-11.821-2.415l2.177-3.871c0.021,0.012,3.46,1.846,9.645,1.846
      c6.205,0,9.749-1.846,9.785-1.864l2.12,3.901C144.36,43.44,140.062,45.745,132.635,45.745z"/>
  </g>
  <g>
    <rect x="107.532" y="49" fill="#606060" width="50" height="5"/>
  </g>
  <g>
    <path fill="#606060" d="M150.532,67.279c0-4.01,3.984-7.26,7.994-7.26s7.626,3.25,7.626,7.26c0,1.523,0.164,1.634,0.164,3.158
      c0,4.009-3.882,7.26-7.892,7.26c-4.011,0-7.893-3.251-7.893-7.26C150.532,68.913,150.532,68.803,150.532,67.279z"/>
  </g>
  <polygon fill="#FFFFFF" points="158.78,104.314 162.157,95.25 168.282,103.25 163.657,105.75  "/>
  <polygon fill="#FFFFFF" points="106.282,104.314 102.905,95.25 96.78,103.25 101.405,105.75   "/>
  <polygon fill="#FFFFFF" points="122.282,106.314 117.282,100.625 112.78,105.25 117.405,107.75  "/>
  <polygon fill="#FFFFFF" points="153.282,106.314 148.282,100.625 143.78,105.25 148.405,107.75  "/>
  <g>
    <path fill="#606060" d="M166.786,13.942c-1.879-0.804-11,6.707-13.146,9.657c-2.145,2.951,7.781,12.609,12.072,7.244
      C169.569,26.021,168.663,14.748,166.786,13.942z"/>
  </g>
  <g>
    <path fill="#A5E587" d="M145.068,78.417c2.78,3.238,0.728,8.411-0.687,9.327c-2.931,1.896-5.433,4.158-10.326,4.158
      c-4.893,0-7.605-2.263-10.533-4.158c-1.416-0.916-3.471-6.078-0.689-9.315c2.975-3.464,6.804-4.142,10.855-4.142
      C137.738,74.287,142.093,74.953,145.068,78.417z"/>
    <path fill="#606060" d="M134.056,94.123c-4.976,0-8.022-2.037-10.711-3.834c-0.342-0.229-0.684-0.458-1.029-0.682
      c-1.636-1.057-2.672-3.631-2.973-5.713c-0.383-2.654,0.258-5.109,1.806-6.912c3.741-4.356,8.667-4.915,12.54-4.915
      c3.799,0,9.288,0.509,13.064,4.902c1.549,1.805,2.189,4.263,1.805,6.922c-0.301,2.083-1.336,4.659-2.97,5.716
      c-0.41,0.266-0.812,0.539-1.212,0.811C141.819,92.154,138.924,94.123,134.056,94.123z M133.688,76.508
      c-4.46,0-7.117,0.976-9.172,3.367c-1.744,2.031-0.358,5.474,0.277,6.054c0.298,0.187,0.658,0.427,1.02,0.669
      c2.476,1.655,4.614,3.085,8.242,3.085c3.502,0,5.505-1.36,7.824-2.937c0.428-0.291,0.857-0.582,1.295-0.866
      c0.569-0.532,1.955-3.983,0.209-6.017C141.391,77.543,138.399,76.508,133.688,76.508z"/>
  </g>
  <g>
    <rect x="124.532" y="62" fill="#606060" width="17" height="5"/>
  </g>
  <g>
    <circle fill="#FFFFFF" cx="159.154" cy="66.438" r="2.479"/>
  </g>
  <g>
    <path fill="#606060" d="M159.324,107.569l-3.288-1.345c0.014-0.035,1.415-3.461,2.18-5.607c0.234-0.654,0.4-1.496,0.561-2.312
      c0.404-2.054,0.822-4.177,2.736-4.653c2.51-0.634,5.879,2.85,10.031,10.332l-3.105,1.723c-2.014-3.627-4.504-7.098-5.845-8.235
      c-0.124,0.464-0.242,1.063-0.332,1.521c-0.186,0.943-0.378,1.918-0.701,2.82C160.769,104.033,159.382,107.426,159.324,107.569z"/>
  </g>
  <g>
    <path fill="#606060" d="M91.189,95.687c-0.362,0.02-1.282,0.22-1.663,0.708c-0.329,0.421-0.274,1.15-0.17,1.689l0.08,0.413
      l-0.016,0.024c0.404,1.409,4.087,4.835,17.175,5.793c19.264,1.41,32.918,1.41,52.185,0c14.897-1.09,16.959-5.212,17.182-5.826
      l-0.061-0.32l0.119-0.059c0.15-0.783,0.094-1.354-0.172-1.693c-0.414-0.532-1.385-0.7-1.691-0.717l0.167-4.438
      c0.324,0.011,3.224,0.166,4.986,2.375c0.752,0.941,1.542,2.588,1.103,5.128c-0.111,1.942-1.936,8.561-21.309,9.979
      c-9.752,0.714-18.084,1.07-26.416,1.07s-16.664-0.356-26.417-1.07c-19.375-1.418-21.198-8.06-21.309-10.005
      c-0.44-2.541,0.351-4.188,1.104-5.128c1.765-2.204,4.666-2.353,4.991-2.362L91.189,95.687"/>
  </g>
  <g>
    <path fill="#606060" d="M106.054,107.57c-0.059-0.144-1.447-3.537-2.24-5.76c-0.322-0.902-0.514-1.877-0.7-2.82
      c-0.089-0.457-0.208-1.055-0.331-1.518c-1.342,1.137-3.83,4.607-5.844,8.234l-3.106-1.723c4.151-7.483,7.534-10.951,10.034-10.332
      c1.911,0.478,2.328,2.6,2.732,4.65c0.16,0.816,0.327,1.66,0.561,2.314c0.766,2.146,2.168,5.572,2.182,5.605L106.054,107.57z"/>
  </g>
  <g>
    <path fill="#606060" d="M119.994,107.796c-0.707-2.288-1.936-4.731-2.637-5.29c-0.693,0.414-2.006,2.373-2.824,4.255l-3.258-1.417
      c0.891-2.049,3.31-6.778,6.463-6.425c2.919,0.324,4.793,5.046,5.649,7.831L119.994,107.796z"/>
  </g>
  <g>
    <path fill="#606060" d="M145.384,107.795l-3.395-1.045c0.856-2.785,2.73-7.507,5.65-7.831c3.152-0.354,5.569,4.376,6.461,6.425
      l-3.258,1.418c-0.822-1.883-2.133-3.842-2.824-4.256C147.315,103.064,146.087,105.508,145.384,107.795z"/>
  </g>
  <g>
    <path fill="#E34D0B" d="M15.408,142.128c-1.004,1.83-1.898,3.201-2.685,4.117c-0.788,0.914-1.428,1.371-1.921,1.371
      c-0.679,0-1.019-0.777-1.019-2.337c0-1.511,0.216-2.869,0.648-4.073c0.432-1.203,1.037-2.271,1.816-3.203
      c0.779-0.934,1.704-1.729,2.776-2.386c1.072-0.655,2.245-1.193,3.518-1.619c1.272-0.424,2.619-0.736,4.037-0.938
      c1.42-0.199,2.877-0.3,4.374-0.3c1.743,0,3.495,0.127,5.252,0.382c1.759,0.253,3.449,0.611,5.069,1.072
      c1.619,0.463,3.131,1.02,4.534,1.674c1.405,0.654,2.627,1.376,3.667,2.171c1.043,0.792,1.86,1.649,2.453,2.573
      c0.594,0.924,0.893,1.885,0.893,2.885c0,1.191-0.26,2.366-0.775,3.527c-0.519,1.159-1.327,2.207-2.431,3.144
      c-1.103,0.936-2.514,1.703-4.234,2.308c-1.72,0.604-3.783,0.929-6.19,0.974c1.528,0,2.862,0.249,4.004,0.746
      c1.141,0.496,2.098,1.167,2.869,2.012c0.771,0.842,1.351,1.852,1.735,3.026c0.386,1.175,0.579,2.367,0.579,3.581
      c0,0.957-0.133,1.928-0.395,2.916c-0.262,0.986-0.655,1.934-1.18,2.845c-0.524,0.91-1.18,1.764-1.966,2.562
      c-0.787,0.798-1.71,1.491-2.766,2.083c-1.058,0.593-2.249,1.059-3.575,1.4c-1.327,0.341-2.785,0.513-4.373,0.513
      c-1.004,0-2.061-0.061-3.171-0.182s-2.232-0.285-3.366-0.492c-1.135-0.204-2.25-0.453-3.344-0.737
      c-1.097-0.285-2.129-0.591-3.102-0.918c-0.432-0.099-0.814-0.249-1.146-0.448c-0.332-0.199-0.497-0.555-0.497-1.068
      c0-2.592,0.065-5.246,0.197-7.964c0.131-2.718,0.396-5.407,0.797-8.07c0.402-2.663,0.941-4.979,1.621-6.945
      c0.678-1.968,1.642-3.881,2.893-5.74c1.095-0.758,2.09-1.138,2.984-1.138c1.127,0,2.067,0.635,2.822,1.904
      c-0.71,0.972-1.314,2.05-1.815,3.237c-0.501,1.189-0.884,2.245-1.146,3.166c-0.264,0.924-0.498,2.065-0.707,3.426
      c-0.208,1.36-0.373,2.69-0.497,3.987c-0.077,0.735-0.142,1.553-0.196,2.452c-0.055,0.898-0.104,1.779-0.149,2.638
      c-0.048,0.86-0.083,1.717-0.104,2.569c-0.024,0.852-0.035,1.671-0.035,2.451c0,0.126,0,0.299,0,0.521
      c0,0.22,0.02,0.449,0.057,0.685c0.039,0.236,0.09,0.454,0.152,0.652c0.062,0.196,0.152,0.341,0.276,0.437
      c0.94,0.314,1.952,0.583,3.032,0.804c1.079,0.221,2.158,0.331,3.238,0.331c1.312,0,2.584-0.161,3.82-0.484
      c1.233-0.323,2.328-0.836,3.284-1.538c0.956-0.7,1.724-1.6,2.303-2.695c0.578-1.096,0.868-2.495,0.868-4.198
      c0-0.912-0.17-1.674-0.51-2.28c-0.339-0.607-0.783-1.115-1.33-1.525c-0.548-0.41-1.173-0.737-1.873-0.981
      c-0.703-0.245-1.421-0.465-2.154-0.663c-0.731-0.197-1.449-0.389-2.151-0.578c-0.702-0.187-1.327-0.426-1.874-0.716
      c-0.549-0.288-0.992-0.648-1.33-1.078c-0.339-0.433-0.51-0.991-0.51-1.681c0-0.325,0.02-0.606,0.059-0.845
      c0.038-0.239,0.131-0.437,0.278-0.59c0.146-0.155,0.361-0.27,0.647-0.347c0.285-0.078,0.674-0.117,1.168-0.117
      c0.662,0,1.27,0.026,1.816,0.081c0.547,0.056,1.137,0.081,1.77,0.081c1.482,0,2.82-0.182,4.015-0.546
      c1.196-0.362,2.214-0.854,3.056-1.474c0.84-0.619,1.488-1.344,1.943-2.172s0.682-1.716,0.682-2.661
      c0-0.618-0.176-1.187-0.532-1.706c-0.354-0.519-0.851-0.982-1.492-1.394c-0.64-0.41-1.393-0.769-2.256-1.079
      c-0.864-0.311-1.804-0.57-2.823-0.779c-1.018-0.209-2.09-0.364-3.216-0.465c-1.126-0.1-2.268-0.15-3.425-0.15
      c-1.867,0-3.317,0.062-4.35,0.187c-1.42,0.155-2.743,0.398-3.97,0.732c-1.226,0.333-2.313,0.764-3.263,1.289
      C16.622,140.865,15.901,141.463,15.408,142.128z"/>
    <path fill="#E34D0B" d="M48.705,168.095c0-0.678,0.039-1.468,0.117-2.373c0.076-0.9,0.181-1.854,0.312-2.856
      c0.131-1.003,0.284-2.024,0.463-3.064c0.176-1.043,0.403-2.153,0.68-3.333c0.279-1.18,0.52-2.165,0.721-2.949
      c0.199-0.789,0.4-1.436,0.6-1.945c0.125-0.34,0.247-0.608,0.371-0.81c0.122-0.199,0.266-0.358,0.428-0.474
      c0.162-0.116,0.362-0.194,0.602-0.233c0.239-0.038,0.537-0.057,0.891-0.057c0.401,0,0.714,0.019,0.938,0.057
      c0.224,0.039,0.391,0.132,0.498,0.279c0.107,0.146,0.174,0.357,0.196,0.637c0.022,0.277,0.034,0.655,0.034,1.133
      c0,0.572-0.039,1.381-0.114,2.431c-0.079,1.049-0.101,1.966-0.069,2.753h0.254c0.309-0.617,0.693-1.427,1.156-2.43
      s0.949-1.836,1.458-2.499c0.51-0.664,1.087-1.223,1.735-1.679c0.647-0.454,1.396-0.682,2.245-0.682
      c0.293,0,0.577,0.05,0.855,0.149c0.278,0.102,0.521,0.243,0.73,0.429c0.208,0.186,0.372,0.413,0.497,0.683
      c0.123,0.271,0.184,0.576,0.184,0.915c0,0.262-0.037,0.628-0.115,1.098c-0.077,0.472-0.201,1.084-0.37,1.84
      c-0.17,0.757-0.292,1.379-0.37,1.863c-0.078,0.485-0.116,0.89-0.116,1.215c0,0.557,0.055,1.019,0.163,1.388
      c0.107,0.371,0.25,0.668,0.428,0.892c0.178,0.225,0.377,0.382,0.602,0.475c0.224,0.093,0.459,0.139,0.705,0.139
      c0.695,0,1.413-0.154,2.152-0.463c0.74-0.308,1.42-0.654,2.037-1.042c0.725-0.447,1.434-0.956,2.129-1.526l-0.348,5.414
      c-0.4,0.264-0.855,0.556-1.365,0.88c-0.508,0.324-1.053,0.629-1.632,0.915c-0.578,0.285-1.18,0.523-1.804,0.716
      c-0.625,0.193-1.262,0.29-1.91,0.29c-1.157,0-2.09-0.235-2.799-0.707c-0.709-0.47-1.273-1.086-1.69-1.851
      c-0.416-0.764-0.725-1.62-0.926-2.568c-0.2-0.948-0.361-1.909-0.485-2.881h-0.37l-4.142,11.548
      c-0.217,0.601-0.421,1.098-0.614,1.492c-0.192,0.393-0.389,0.713-0.59,0.959c-0.201,0.247-0.416,0.422-0.647,0.521
      c-0.231,0.101-0.485,0.15-0.764,0.15c-0.633,0-1.142-0.135-1.527-0.404c-0.386-0.271-0.683-0.633-0.891-1.088
      c-0.209-0.455-0.348-0.973-0.416-1.551C48.74,169.311,48.705,168.713,48.705,168.095z"/>
    <path fill="#E34D0B" d="M82.721,168.004c-0.555,0.508-1.246,1.054-2.07,1.631c-0.826,0.578-1.716,1.109-2.672,1.597
      c-0.957,0.484-1.934,0.891-2.928,1.214c-0.994,0.324-1.941,0.486-2.834,0.486c-0.804,0-1.479-0.111-2.025-0.335
      c-0.548-0.225-0.99-0.536-1.33-0.938s-0.583-0.892-0.729-1.47c-0.146-0.579-0.22-1.215-0.22-1.909c0-0.972,0.107-2.104,0.324-3.4
      c0.444-2.682,0.729-4.187,0.857-4.518c0.21-0.659,0.631-2.118,1.262-4.379c0.585-1.843,0.947-3.042,1.084-3.599
      c0.076-0.39,0.287-0.74,0.637-1.052c0.318-0.281,0.678-0.512,1.08-0.691c0.401-0.179,0.818-0.311,1.251-0.397
      c0.433-0.085,0.821-0.129,1.171-0.129c0.635,0,1.068,0.121,1.295,0.358c0.228,0.239,0.34,0.56,0.34,0.962
      c0,0.338-0.078,0.818-0.236,1.438s-0.338,1.326-0.541,2.119c-0.203,0.792-0.503,1.811-0.9,3.059
      c-0.398,1.244-0.67,2.308-0.816,3.187c-0.145,0.878-0.328,1.752-0.552,2.62c-0.22,0.867-0.331,1.655-0.331,2.364
      c0,0.694,0.076,1.245,0.231,1.654c0.154,0.408,0.47,0.612,0.948,0.612c0.556,0,1.173-0.193,1.852-0.577
      c0.679-0.387,1.365-0.853,2.061-1.401c0.693-0.548,1.371-1.115,2.035-1.7c0.663-0.587,1.25-1.088,1.758-1.506V168.004z
       M72.379,143.719c0-0.357,0.076-0.764,0.23-1.215s0.404-0.876,0.752-1.271c0.348-0.397,0.811-0.732,1.388-1.006
      c0.579-0.271,1.3-0.409,2.164-0.409c0.54,0,1.049,0.063,1.527,0.188c0.479,0.126,0.896,0.315,1.251,0.573
      c0.354,0.257,0.635,0.595,0.843,1.014c0.209,0.424,0.313,0.92,0.313,1.498c0,0.527-0.086,1.042-0.256,1.541
      c-0.169,0.496-0.438,0.941-0.809,1.33c-0.371,0.389-0.837,0.705-1.4,0.946c-0.562,0.242-1.238,0.362-2.025,0.362
      c-1.357,0-2.359-0.323-3.007-0.97C72.703,145.654,72.379,144.793,72.379,143.719z"/>
    <path fill="#E34D0B" d="M107.323,168.116c-1.096,0.901-2.175,1.705-3.24,2.408c-0.446,0.296-0.917,0.585-1.411,0.874
      c-0.494,0.285-0.98,0.54-1.457,0.761c-0.479,0.22-0.943,0.401-1.395,0.54c-0.451,0.141-0.864,0.209-1.24,0.209
      c-0.221,0-0.549-0.049-0.982-0.146c-0.436-0.1-0.908-0.302-1.423-0.603c-0.513-0.304-1.026-0.741-1.54-1.314
      c-0.513-0.574-0.959-1.337-1.337-2.286c-0.573,0.589-1.181,1.151-1.822,1.683c-0.644,0.532-1.308,0.995-1.996,1.389
      s-1.386,0.708-2.089,0.945c-0.705,0.238-1.412,0.356-2.125,0.356c-1.001,0-1.869-0.209-2.603-0.627
      c-0.731-0.416-1.343-0.971-1.827-1.664c-0.486-0.693-0.849-1.479-1.088-2.356c-0.239-0.88-0.359-1.789-0.359-2.728
      c0-1.001,0.128-2.017,0.383-3.043c0.255-1.023,0.623-2.02,1.11-2.98c0.485-0.964,1.026-1.969,1.619-3.021
      c0.595-1.048,1.381-2.002,2.361-2.864c0.979-0.861,1.985-1.511,3.02-1.949c1.033-0.438,2.136-0.712,3.309-0.821
      c0.047-2.005,0.259-3.771,0.639-5.296c0.379-1.528,0.786-3.172,1.224-4.93c0.438-1.76,1-3.381,1.691-4.861
      c0.689-1.481,1.446-2.761,2.27-3.842c0.822-1.079,1.699-1.924,2.631-2.533c0.93-0.608,1.891-0.914,2.885-0.914
      c0.726,0,1.342,0.19,1.852,0.568c0.51,0.38,0.922,0.881,1.237,1.508c0.315,0.625,0.544,1.353,0.684,2.179
      c0.138,0.826,0.208,1.681,0.208,2.56c0,0.553-0.005,1.117-0.016,1.698c-0.044,2.215-0.387,4.275-1.024,6.185
      c-0.641,1.907-1.272,3.792-1.896,5.656s-1.377,3.71-2.26,5.535c-1.347,2.793-2.206,4.688-2.574,5.685
      c-0.08,0.219-0.161,0.483-0.241,0.797c-0.08,0.312-0.156,0.65-0.229,1.017c-0.072,0.368-0.132,0.742-0.182,1.124
      c-0.047,0.382-0.07,0.753-0.07,1.11c0,0.453,0.025,0.882,0.078,1.289c0.053,0.404,0.139,0.766,0.259,1.087
      c0.12,0.319,0.281,0.573,0.484,0.76c0.204,0.188,0.455,0.281,0.755,0.281c0.293,0,0.614-0.059,0.962-0.175
      c0.346-0.117,0.713-0.275,1.099-0.479c0.385-0.202,0.775-0.432,1.168-0.688s0.775-0.517,1.145-0.781
      c0.85-0.622,1.736-1.33,2.662-2.123L107.323,168.116z M91.283,154.451c-1.018,0.497-1.926,1.155-2.719,1.972
      c-0.795,0.815-1.458,1.895-1.989,3.23c-0.533,1.338-0.938,2.488-1.216,3.453c-0.277,0.964-0.417,1.835-0.417,2.613
      c0,0.241,0.036,0.482,0.104,0.726c0.069,0.241,0.196,0.459,0.382,0.651s0.448,0.351,0.786,0.471
      c0.34,0.12,0.779,0.182,1.319,0.182c0.278,0,0.552-0.062,0.822-0.185c0.271-0.124,0.528-0.285,0.776-0.482
      c0.246-0.198,0.482-0.424,0.707-0.678c0.223-0.253,0.428-0.518,0.612-0.791c0.433-0.628,0.827-1.34,1.182-2.134
      c-0.046-0.219-0.085-0.564-0.117-1.037c-0.032-0.475-0.055-1.198-0.07-2.171c-0.016-0.971-0.032-1.77-0.046-2.39
      c-0.018-0.624-0.029-1.191-0.035-1.705c-0.009-0.513-0.02-0.934-0.035-1.26C91.314,154.592,91.298,154.436,91.283,154.451z
       M102.199,138.663c0.098-1.08,0.145-1.936,0.145-2.569c0-0.834-0.074-1.412-0.223-1.736s-0.365-0.487-0.646-0.487
      c-0.502,0-0.957,0.313-1.366,0.938c-0.407,0.625-0.735,1.43-0.983,2.416c-0.248,0.988-0.517,2.059-0.808,3.218
      c-0.292,1.157-0.504,2.291-0.64,3.402c-0.134,1.109-0.242,2.11-0.321,3.001c-0.082,0.892-0.14,1.524-0.173,1.899
      c-0.066,0.768-0.121,1.505-0.164,2.216c-0.043,0.712-0.071,1.36-0.088,1.947c-0.018,0.585-0.025,1.099-0.025,1.536
      c0,0.437,0,0.774,0,1.008v0.235c0.857-2.056,1.648-4.104,2.373-6.142c0.299-0.87,0.598-1.777,0.891-2.721
      c0.294-0.944,0.587-1.879,0.876-2.809c0.288-0.93,0.534-1.849,0.733-2.76C101.98,140.347,102.12,139.482,102.199,138.663z"/>
    <path fill="#E34D0B" d="M108.678,194.139c-0.663-0.177-1.277-0.446-1.839-0.809c-0.564-0.363-1.019-0.869-1.366-1.516
      c-0.346-0.649-0.559-1.404-0.637-2.268c-0.123-1.621,0.324-3.341,1.343-5.16c0.587-1.02,0.991-1.729,1.215-2.13
      s0.587-0.969,1.089-1.699c0.5-0.733,1.014-1.395,1.537-1.98c1.08-1.218,1.971-2.194,2.674-2.927
      c0.701-0.733,1.538-1.523,2.51-2.372l0.463-2.751c-1.728,1.634-3.41,2.451-5.045,2.451c-1.203,0-2.311-0.363-3.32-1.088
      c-1.01-0.726-1.77-1.628-2.279-2.707c-0.925-1.929-0.949-4.181-0.068-6.758c0.801-2.405,1.611-4.392,2.43-5.958
      c0.816-1.566,1.874-2.928,3.17-4.084c1.882-1.683,3.709-2.522,5.484-2.522c0.801,0,1.388,0.225,1.758,0.678
      c0.046,0.048,0.115,0.136,0.208,0.27c0.093,0.133,0.158,0.215,0.196,0.245c0.039,0.031,0.105,0.094,0.197,0.187
      c0.093,0.095,0.178,0.152,0.255,0.176s0.177,0.058,0.301,0.104c0.122,0.047,0.262,0.078,0.417,0.095
      c0.155,0.014,0.334,0.022,0.536,0.022l1.02-0.022c0.694,0,1.173,0.209,1.435,0.628c0.093,0.169,0.193,0.394,0.301,0.673
      c0.186,0.48,0.208,2.067,0.07,4.761c-0.047,0.837-0.243,1.871-0.591,3.107c-0.347,1.233-0.575,2.604-0.683,4.11
      c-0.107,1.509-0.276,3.471-0.51,5.885c0.448-0.262,0.926-0.584,1.436-0.969c1.82-1.37,3.881-3.916,6.179-7.639l1.505,5.137
      c-0.433,0.858-1.198,1.844-2.291,2.961c-1.111,1.103-2.053,1.951-2.824,2.547c-0.139,0.093-0.247,0.162-0.324,0.207
      c-1.48,0.958-2.553,1.661-3.215,2.108c-0.418,0.276-0.704,0.779-0.857,1.505c-0.154,0.724-0.323,2.084-0.51,4.076
      c-0.074,0.572-0.131,1.017-0.168,1.327c-0.09,0.701-0.178,1.393-0.264,2.071c-0.086,0.681-0.24,1.446-0.465,2.304
      c-0.224,0.854-0.482,1.641-0.773,2.357c-0.295,0.718-0.676,1.436-1.146,2.151c-0.472,0.719-0.999,1.322-1.586,1.816
      c-0.586,0.493-1.289,0.895-2.105,1.203c-0.817,0.308-1.711,0.462-2.684,0.462C110.065,194.405,109.341,194.317,108.678,194.139z
       M112.039,182.57c-1.049,1.705-1.882,3.436-2.498,5.194c-0.51,1.465-0.248,2.197,0.787,2.197c0.369,0,0.697-0.045,0.982-0.138
      c0.285-0.094,0.553-0.259,0.799-0.498c0.246-0.24,0.463-0.498,0.647-0.774c0.186-0.278,0.383-0.681,0.591-1.205
      c0.207-0.523,0.396-1.037,0.566-1.538c0.17-0.502,0.37-1.167,0.602-2.002c0.139-0.446,0.241-0.936,0.306-1.472
      c0.065-0.534,0.146-1.193,0.241-1.979c0.097-0.786,0.158-1.286,0.184-1.5C114.157,179.629,113.089,180.866,112.039,182.57z
       M110.651,167.562c0.37,0.648,0.855,0.972,1.458,0.972c1.049,0,1.92-0.839,2.615-2.521c0.539-1.327,0.84-2.661,0.902-4.003
      l1.735-7.707c-1.79,0-3.364,1.203-4.721,3.61c-1.467,2.561-2.269,4.297-2.407,5.208C109.941,165.08,110.08,166.56,110.651,167.562
      z"/>
    <path fill="#E34D0B" d="M136.232,172.932c-1.441,0-2.701-0.269-3.78-0.8c-1.081-0.535-1.982-1.254-2.702-2.155
      c-0.721-0.904-1.261-1.948-1.621-3.135c-0.359-1.184-0.539-2.43-0.539-3.731c0-0.854,0.16-1.87,0.483-3.05
      c0.321-1.179,0.655-2.228,1.001-3.141c0.345-0.912,0.778-1.783,1.301-2.614c0.521-0.83,1.131-1.56,1.828-2.191
      c0.699-0.632,1.482-1.135,2.35-1.509c0.866-0.372,1.829-0.56,2.887-0.56c0.865,0,1.669,0.139,2.41,0.417
      c0.74,0.277,1.386,0.665,1.935,1.166c0.548,0.502,0.976,1.106,1.286,1.815c0.309,0.709,0.463,1.501,0.463,2.379
      c0,0.936-0.313,1.984-0.939,3.146c-0.626,1.159-1.356,2.156-2.191,2.986c-0.835,0.829-1.828,1.567-2.979,2.217
      c-1.153,0.648-2.4,1.154-3.746,1.516c0.232,0.408,0.461,0.747,0.685,1.02c0.226,0.271,0.453,0.482,0.687,0.632
      c0.231,0.152,0.475,0.257,0.73,0.318c0.255,0.06,0.53,0.091,0.824,0.091c0.927,0,1.902-0.182,2.928-0.545
      c1.026-0.362,2.025-0.813,2.997-1.357c0.971-0.542,1.889-1.134,2.753-1.776c0.864-0.64,1.597-1.247,2.197-1.82l2.986,3.032
      c-1.357,1.445-2.8,2.725-4.326,3.836c-0.664,0.478-1.377,0.946-2.141,1.406c-0.764,0.462-1.566,0.871-2.407,1.227
      c-0.841,0.358-1.712,0.646-2.614,0.859C138.073,172.824,137.158,172.932,136.232,172.932z M133.144,161.91
      c0.558,0,1.165-0.138,1.823-0.417c0.658-0.28,1.27-0.638,1.835-1.076c0.564-0.438,1.118-1.024,1.66-1.765
      c0.542-0.739,0.814-1.351,0.814-1.833c0-0.679-0.129-1.236-0.384-1.673c-0.255-0.438-0.568-0.657-0.941-0.657
      c-0.666,0-1.234,0.121-1.707,0.361c-0.473,0.242-0.867,0.555-1.186,0.939c-0.316,0.384-0.572,0.821-0.766,1.312
      c-0.193,0.49-0.419,1.098-0.673,1.821c-0.256,0.724-0.399,1.32-0.431,1.787C133.158,161.18,133.144,161.578,133.144,161.91z"/>
    <path fill="#E34D0B" d="M150.301,140.537c0-1.361,0.284-2.549,0.849-3.564c0.565-1.015,1.36-1.879,2.386-2.592
      c1.023-0.714,2.253-1.303,3.688-1.764c1.433-0.463,3.011-0.823,4.733-1.084c1.72-0.26,3.564-0.434,5.531-0.524
      c1.969-0.091,4-0.135,6.098-0.135c2.818,0,5.771,0.104,8.857,0.314s6.306,0.594,9.658,1.149c0.777,0.15,1.324,0.421,1.64,0.812
      c0.316,0.39,0.474,0.825,0.474,1.307c0,0.358-0.072,0.707-0.219,1.048c-0.146,0.34-0.34,0.652-0.583,0.939
      c-0.241,0.289-0.526,0.516-0.851,0.686c-0.323,0.169-0.664,0.254-1.02,0.254c-1.248,0-2.548-0.079-3.9-0.241
      c-1.354-0.162-2.762-0.344-4.227-0.544c-1.467-0.202-2.977-0.404-4.531-0.606c-1.555-0.203-3.16-0.353-4.811-0.453
      c-0.292,2.105-0.707,4.192-1.246,6.261c-0.539,2.07-1.091,4.189-1.655,6.359c-0.564,2.169-1.129,4.337-1.691,6.499
      c-0.563,2.163-1.103,4.235-1.618,6.218c-0.518,1.982-0.993,3.812-1.43,5.49c-0.437,1.676-0.812,3.118-1.125,4.324
      c-0.137,0.541-0.341,1.038-0.619,1.491c-0.279,0.453-0.59,0.848-0.936,1.182c-0.346,0.333-0.701,0.592-1.072,0.775
      c-0.371,0.183-0.716,0.275-1.035,0.275c-0.961,0-1.75-0.22-2.372-0.657c-0.62-0.437-0.931-1.144-0.931-2.115
      c0-0.308,0.049-0.646,0.146-1.019c0.355-1.431,0.712-2.861,1.068-4.292c0.356-1.43,0.729-2.927,1.119-4.49
      s0.885-3.212,1.484-4.945c0.599-1.733,1.263-3.64,1.992-5.722c0.729-2.082,1.518-4.416,2.368-7.002
      c0.851-2.585,1.771-5.463,2.758-8.633c-0.858,0.067-1.729,0.145-2.612,0.227c-0.882,0.086-1.74,0.201-2.574,0.345
      c-0.835,0.145-1.625,0.327-2.375,0.547c-0.746,0.222-1.43,0.5-2.049,0.841c-0.617,0.338-1.107,0.746-1.468,1.221
      c-0.359,0.475-0.54,1.034-0.54,1.678c0,0.035-0.018,0.222-0.056,0.561c-0.039,0.34-0.172,0.708-0.401,1.106
      c-0.229,0.398-0.594,0.763-1.09,1.094s-1.204,0.497-2.122,0.497c-0.917,0-1.628-0.163-2.132-0.487
      c-0.505-0.324-0.873-0.682-1.102-1.07C150.485,141.643,150.331,141.122,150.301,140.537z"/>
    <path fill="#E34D0B" d="M173.637,167.779c0-0.712,0.041-1.543,0.121-2.489c0.082-0.949,0.191-1.947,0.329-3
      c0.137-1.054,0.3-2.127,0.486-3.22c0.185-1.094,0.425-2.261,0.716-3.5s0.543-2.271,0.753-3.098
      c0.21-0.826,0.422-1.507,0.632-2.041c0.129-0.356,0.259-0.639,0.39-0.85c0.129-0.21,0.278-0.378,0.45-0.5
      c0.169-0.121,0.379-0.202,0.631-0.24c0.25-0.041,0.562-0.062,0.935-0.062c0.422,0,0.75,0.021,0.983,0.062
      c0.235,0.038,0.41,0.136,0.523,0.29c0.112,0.153,0.184,0.378,0.207,0.669s0.036,0.688,0.036,1.19c0,0.6-0.041,1.448-0.122,2.552
      c-0.083,1.102-0.104,2.063-0.072,2.891h0.267c0.324-0.648,0.729-1.498,1.215-2.552c0.485-1.052,0.997-1.927,1.531-2.623
      s1.142-1.285,1.821-1.763c0.682-0.478,1.466-0.717,2.357-0.717c0.309,0,0.607,0.053,0.899,0.157
      c0.291,0.105,0.546,0.256,0.765,0.45c0.219,0.195,0.393,0.435,0.522,0.718s0.194,0.604,0.194,0.96c0,0.273-0.04,0.659-0.121,1.152
      c-0.082,0.494-0.211,1.139-0.389,1.933c-0.179,0.794-0.308,1.446-0.39,1.956c-0.081,0.511-0.12,0.936-0.12,1.274
      c0,0.584,0.057,1.069,0.169,1.458c0.114,0.39,0.264,0.702,0.45,0.937c0.187,0.235,0.396,0.401,0.632,0.497
      c0.235,0.098,0.481,0.147,0.741,0.147c0.729,0,1.482-0.162,2.26-0.487s1.49-0.688,2.138-1.094c0.76-0.47,1.506-1.005,2.234-1.604
      l-0.363,5.687c-0.421,0.276-0.899,0.582-1.434,0.923s-1.106,0.66-1.714,0.959c-0.607,0.301-1.238,0.551-1.895,0.754
      c-0.656,0.202-1.324,0.303-2.005,0.303c-1.214,0-2.194-0.246-2.939-0.741c-0.745-0.492-1.337-1.141-1.774-1.942
      s-0.761-1.702-0.971-2.698c-0.211-0.994-0.381-2.004-0.51-3.023h-0.39l-4.349,12.124c-0.227,0.631-0.442,1.154-0.645,1.567
      c-0.203,0.412-0.41,0.747-0.619,1.007c-0.211,0.261-0.438,0.442-0.682,0.547c-0.241,0.106-0.51,0.158-0.801,0.158
      c-0.664,0-1.199-0.142-1.604-0.426c-0.405-0.283-0.717-0.663-0.936-1.142c-0.219-0.478-0.363-1.021-0.438-1.627
      C173.674,169.055,173.637,168.428,173.637,167.779z"/>
    <path fill="#E34D0B" d="M210.393,154.127c0.469,0.938,0.819,1.93,1.056,2.974c0.233,1.046,0.352,2.224,0.352,3.535
      c0,0.957-0.104,1.921-0.315,2.891c-0.211,0.974-0.514,1.913-0.91,2.82c-0.397,0.907-0.885,1.758-1.459,2.55
      c-0.575,0.796-1.231,1.482-1.967,2.065c-0.738,0.583-1.543,1.045-2.418,1.386c-0.875,0.34-1.808,0.51-2.795,0.51
      c-1.425,0-2.644-0.312-3.656-0.936c-1.013-0.624-1.843-1.438-2.49-2.442c-0.647-1.003-1.122-2.138-1.422-3.402
      c-0.3-1.262-0.449-2.541-0.449-3.838c0-2.137,0.268-3.98,0.803-5.527c0.533-1.547,1.299-2.892,2.295-4.032
      c0.997-1.143,2.214-2.041,3.656-2.697s3.062-0.982,4.86-0.982c1.539,0,2.979,0.237,4.323,0.716
      c1.346,0.478,2.604,1.116,3.778,1.919c1.175,0.802,2.271,1.81,3.281,3.023c1.012,1.216,1.955,2.374,2.83,3.476l-0.46,3.426
      c-0.439-0.583-1.029-1.215-1.775-1.896c-0.746-0.68-1.533-1.433-2.368-2.258c-0.835-0.827-1.655-1.528-2.468-2.104
      c-0.809-0.574-1.506-1.057-2.088-1.445L210.393,154.127z M202.884,168.193c0.55,0,1.085-0.28,1.604-0.838
      c0.519-0.56,0.972-1.265,1.36-2.115c0.389-0.85,0.7-1.879,0.936-3.085c0.234-1.207,0.352-2.28,0.352-3.221
      c0-0.743-0.057-1.437-0.17-2.076c-0.112-0.64-0.283-1.194-0.51-1.665c-0.227-0.469-0.518-0.84-0.875-1.117
      c-0.355-0.275-0.785-0.412-1.287-0.412c-0.664,0-1.296,0.283-1.896,0.851c-0.6,0.566-1.126,1.29-1.579,2.173
      c-0.453,0.885-0.811,1.859-1.07,2.929c-0.258,1.069-0.387,2.275-0.387,3.619c0,0.68,0.064,1.322,0.194,1.92
      c0.129,0.601,0.332,1.121,0.606,1.567c0.275,0.446,0.64,0.802,1.094,1.069C201.709,168.059,202.252,168.193,202.884,168.193z"/>
    <path fill="#E34D0B" d="M222.705,172.857c-0.872,0-1.684-0.379-2.433-1.137c-0.751-0.757-1.405-1.773-1.962-3.048
      c-0.557-1.276-0.992-2.755-1.307-4.437c-0.313-1.683-0.473-3.448-0.473-5.298c0-1.59,0.234-3.71,0.701-6.364
      c0.467-2.655,0.701-3.981,0.701-3.981s0.354-1.324,1.061-3.976c0.707-2.65,1.418-4.776,2.129-6.378
      c0.712-1.601,1.484-3.097,2.32-4.487c0.834-1.392,1.709-2.604,2.625-3.638s1.873-1.846,2.871-2.437s2.014-0.887,3.043-0.887
      c0.75,0,1.369,0.143,1.857,0.43c0.488,0.286,0.873,0.665,1.152,1.134c0.279,0.47,0.475,1.003,0.588,1.597
      c0.113,0.595,0.17,1.2,0.17,1.816c0,1.531-0.182,3.092-0.543,4.679c-0.363,1.589-0.85,3.185-1.465,4.788
      c-0.616,1.605-1.326,3.213-2.135,4.827c-0.809,1.611-1.65,3.212-2.525,4.8c-0.877,1.588-1.757,3.152-2.641,4.69
      c-0.885,1.54-1.699,3.046-2.447,4.515c-0.082,0.164-0.167,0.376-0.256,0.637c-0.09,0.263-0.175,0.544-0.256,0.846
      c-0.081,0.303-0.162,0.624-0.244,0.968c-0.08,0.342-0.146,0.678-0.195,1.005v0.342c0,0.426,0.045,0.838,0.135,1.239
      c0.088,0.399,0.199,0.758,0.328,1.075c0.13,0.32,0.27,0.573,0.414,0.762c0.146,0.188,0.285,0.282,0.415,0.282
      c0.315,0,0.677-0.065,1.082-0.197c0.405-0.13,0.838-0.306,1.293-0.526c0.456-0.22,0.925-0.473,1.407-0.759
      c0.48-0.287,0.944-0.577,1.392-0.87c1.046-0.687,2.142-1.479,3.285-2.376l2.146,5.12c-1.485,0.985-2.953,1.863-4.404,2.634
      c-0.633,0.323-1.289,0.643-1.963,0.958c-0.678,0.318-1.356,0.597-2.041,0.845c-0.684,0.246-1.351,0.442-2.002,0.588
      C223.879,172.785,223.271,172.857,222.705,172.857z M222.728,153.598c0.731-1.307,1.506-2.777,2.328-4.41
      c0.819-1.633,1.597-3.314,2.327-5.048c0.73-1.731,1.365-3.457,1.901-5.181c0.536-1.725,0.878-3.328,1.023-4.815
      c0-0.474-0.011-0.878-0.033-1.213c-0.024-0.334-0.097-0.502-0.22-0.502c-0.445,0-0.925,0.308-1.439,0.922
      c-0.514,0.615-1.027,1.448-1.542,2.499c-0.515,1.05-1.129,2.758-1.841,5.124c-0.715,2.366-1.072,3.549-1.072,3.549
      c0,0.001-0.219,1.1-0.654,3.294C223.069,150.011,222.811,151.938,222.728,153.598z"/>
    <path fill="#E34D0B" d="M238.822,172.857c-0.873,0-1.683-0.379-2.434-1.137c-0.75-0.757-1.403-1.773-1.961-3.048
      c-0.556-1.276-0.991-2.755-1.307-4.437c-0.314-1.683-0.473-3.448-0.473-5.298c0-1.59,0.234-3.71,0.701-6.364
      c0.468-2.655,0.701-3.981,0.701-3.981s0.354-1.324,1.062-3.976c0.707-2.65,1.418-4.776,2.128-6.378
      c0.713-1.601,1.484-3.097,2.32-4.487c0.834-1.392,1.709-2.604,2.626-3.638c0.915-1.033,1.872-1.846,2.869-2.437
      c1-0.591,2.014-0.887,3.046-0.887c0.749,0,1.369,0.143,1.855,0.43c0.488,0.286,0.873,0.665,1.152,1.134
      c0.279,0.47,0.475,1.003,0.588,1.597c0.113,0.595,0.171,1.2,0.171,1.816c0,1.531-0.181,3.092-0.543,4.679
      c-0.362,1.589-0.851,3.185-1.466,4.788c-0.615,1.605-1.326,3.213-2.135,4.827c-0.809,1.611-1.65,3.212-2.525,4.8
      s-1.756,3.152-2.641,4.69c-0.884,1.54-1.7,3.046-2.447,4.515c-0.081,0.164-0.166,0.376-0.256,0.637
      c-0.089,0.263-0.174,0.544-0.256,0.846c-0.081,0.303-0.162,0.624-0.243,0.968c-0.082,0.342-0.147,0.678-0.196,1.005v0.342
      c0,0.426,0.045,0.838,0.134,1.239c0.092,0.399,0.199,0.758,0.329,1.075c0.131,0.32,0.269,0.573,0.416,0.762
      c0.146,0.188,0.283,0.282,0.414,0.282c0.315,0,0.675-0.065,1.082-0.197c0.406-0.13,0.838-0.306,1.293-0.526
      c0.457-0.22,0.926-0.473,1.406-0.759c0.48-0.287,0.945-0.577,1.393-0.87c1.045-0.687,2.14-1.479,3.284-2.376l2.146,5.12
      c-1.484,0.985-2.952,1.863-4.404,2.634c-0.633,0.323-1.287,0.643-1.963,0.958c-0.676,0.318-1.355,0.597-2.039,0.845
      c-0.685,0.246-1.354,0.442-2.002,0.588C239.998,172.785,239.389,172.857,238.822,172.857z M238.846,153.598
      c0.731-1.307,1.506-2.777,2.326-4.41c0.821-1.633,1.598-3.314,2.328-5.048c0.732-1.731,1.365-3.457,1.901-5.181
      c0.536-1.725,0.878-3.328,1.024-4.815c0-0.474-0.012-0.878-0.035-1.213c-0.023-0.334-0.095-0.502-0.219-0.502
      c-0.445,0-0.925,0.308-1.439,0.922c-0.514,0.615-1.027,1.448-1.543,2.499c-0.513,1.05-1.127,2.758-1.841,5.124
      s-1.071,3.549-1.071,3.549c0,0.001-0.219,1.1-0.654,3.294S238.928,151.938,238.846,153.598z"/>
  </g>
  <rect x="26.532" y="114" fill="#606060" width="212" height="5"/>
  <path fill="#606060" d="M83.169,114c-7.756-9.84-12.41-21.945-12.41-34.83c0-26.934,26.709-58.488,61.146-58.804l0.354-0.004
    l0.494,0.004c34.437,0.315,61.146,31.87,61.146,58.804c0,12.885-4.654,24.99-12.41,34.83h5.316
    c7.318-10.332,11.304-22.355,11.304-34.83c0-28.391-27.577-61.553-63.577-63.184v-0.084l-2.489,0.02l-2.511-0.012v0.076
    c-36,1.631-63.313,34.793-63.313,63.184c0,12.475,3.938,24.498,11.234,34.83H83.169z"/>
  <path fill="#606060" d="M238.532,114.338c-1.012-0.74-1.793-1.273-2.271-1.589c-0.83-1.479-3.339-5.253-10.794-13.835
    c-10.054-11.574-26.872-16.358-27.582-16.56l-1.193,4.277c0.162,0.046,16.26,4.644,25.424,15.194
    c8.994,10.354,10.348,13.215,10.4,13.331l0.265,0.695l0.276,0.147h5.475V114.338z"/>
  <path fill="#606060" d="M66.876,82.354c-0.71,0.201-17.528,4.985-27.582,16.56c-7.455,8.582-9.964,12.356-10.794,13.835
    c-0.428,0.282-1.104,0.745-1.968,1.369V116h5.172l0.276-0.147l0.265-0.695c0.053-0.116,1.406-2.978,10.4-13.331
    c9.164-10.551,25.262-15.148,25.424-15.194L66.876,82.354z"/>
</g>
<g id="Layer_2">
</g>
</svg>
